<svg width="333" height="467" viewBox="0 0 333 467" fill="none" xmlns="http://www.w3.org/2000/svg">
<rect x="2.5" y="2.5" width="328" height="462" stroke="#FFFBE2" stroke-width="5"/>
<rect x="14" y="15" width="305" height="438" fill="#FFFBE2"/>
<g clip-path="url(#clip0_34_17)">
<path d="M168.78 232.012C173.479 236.454 179.255 239.596 185.54 241.129C191.824 242.662 198.4 242.533 204.619 240.754C227.053 234.988 177.67 199.74 168.78 232.012Z" fill="#FFF7CE"/>
<path d="M239.946 90.4632C242.645 93.0673 273.969 124.176 273.969 124.176C273.969 124.176 284.209 133.198 275.971 139.708C268.679 145.575 260.247 149.867 251.21 152.309C241.901 155.053 219.048 162.028 219.048 162.028C210.646 166.706 204.253 174.3 201.082 183.372C201.082 183.372 200.058 164.446 197.079 158.401C194.934 153.13 191.965 148.233 188.283 143.893C185.35 141.428 161.38 120.642 159.472 113.528C157.563 106.413 156.074 98.5544 164.126 96.0898C172.178 93.6253 211.508 82.4651 211.508 82.4651C216.545 81.6071 221.71 81.8798 226.629 83.2632C231.547 84.6465 236.096 87.1059 239.946 90.4632Z" fill="#F4EBC9"/>
<path d="M205.131 240.475C203.315 240.727 201.465 240.578 199.713 240.04C197.96 239.502 196.346 238.587 194.984 237.36C192.958 235.798 191.4 233.71 190.481 231.323C189.561 228.937 189.316 226.344 189.772 223.828C190.702 220.34 200.756 181.977 201.92 178.954C203.083 175.932 207.179 163.237 219.653 159.192C232.126 155.146 258.191 147.659 260.89 146.915C263.59 146.171 271.968 144.823 274.202 138.22C276.436 131.616 276.203 128.919 274.621 125.525C278.271 128.53 280.957 132.54 282.347 137.057C285.074 143.613 285.58 150.88 283.79 157.75C281.649 165.469 272.061 202.995 270.664 207.181C269.268 211.366 260.611 224.665 249.999 227.92C239.387 231.175 205.131 240.475 205.131 240.475Z" fill="#E5DDBD"/>
<path d="M168.78 232.012C171.595 233.217 174.672 233.681 177.717 233.361C180.637 232.858 183.36 231.558 185.587 229.605C187.813 227.652 189.454 225.121 190.33 222.293C191.726 216.853 200.942 181.837 202.059 178.954C202.642 168.785 199.986 158.692 194.473 150.124C187.91 142.079 161.892 117.573 161.892 117.573C160.028 115.71 158.861 113.264 158.588 110.645C158.137 107.88 158.475 105.045 159.561 102.463C160.648 99.8806 162.439 97.6561 164.731 96.0433C156.202 98.0667 148.813 103.362 144.159 110.784C135.874 123.479 126.752 172.63 126.752 172.63C126.982 180.42 129.158 188.029 133.082 194.765C139.226 202.809 168.78 232.012 168.78 232.012Z" fill="#FFF7CE"/>
<path d="M200.477 163.191C200.803 164.4 201.082 165.516 201.268 166.492C202.345 170.569 202.66 174.81 202.199 179.001C201.175 181.559 193.635 210.203 191.122 219.643C190.842 220.805 190.609 221.735 190.423 222.293C189.613 225.166 187.998 227.747 185.769 229.733C183.623 231.77 180.885 233.073 177.95 233.453C174.886 233.755 171.795 233.275 168.967 232.059C168.687 231.78 139.365 202.763 133.454 194.858C129.497 188.117 127.304 180.488 127.077 172.677C127.077 172.212 136.386 123.432 144.531 110.831C147.846 105.671 152.472 101.483 157.936 98.6938C160.192 97.4862 162.604 96.5945 165.104 96.0433H165.523L165.197 96.2758C162.905 97.8753 161.114 100.093 160.035 102.67C158.955 105.246 158.631 108.077 159.099 110.831C159.402 113.419 160.547 115.837 162.358 117.713C162.637 117.713 188.329 142.451 194.938 150.263C197.632 154.159 199.515 158.555 200.477 163.191ZM168.874 231.919C171.673 233.12 174.734 233.584 177.764 233.267C180.665 232.763 183.37 231.466 185.58 229.521C187.789 227.576 189.418 225.059 190.284 222.247C190.284 221.689 190.656 220.759 190.982 219.596C193.495 210.296 201.035 181.512 202.013 178.954C202.499 174.779 202.183 170.549 201.082 166.492C200.072 160.642 197.818 155.076 194.473 150.17C187.956 142.265 162.264 117.62 161.892 117.62C160.005 115.754 158.836 113.285 158.588 110.645C158.376 108.146 158.596 105.629 159.239 103.204C160.024 100.315 161.847 97.8153 164.359 96.1828C162.016 96.7666 159.751 97.625 157.61 98.7403C152.19 101.554 147.589 105.718 144.252 110.831C136.154 123.339 127.031 171.747 126.891 172.63C127.107 180.408 129.284 188.005 133.222 194.718C139.179 202.623 168.175 231.268 168.827 231.919H168.874Z" fill="#FFF7CE"/>
<path d="M148.991 190.747C152.106 189.961 153.596 185.227 152.319 180.172C151.042 175.117 147.48 171.656 144.365 172.442C141.25 173.228 139.76 177.963 141.037 183.018C142.314 188.072 145.876 191.533 148.991 190.747Z" fill="#187B5C"/>
<path d="M154.8 169.973C157.915 169.187 159.405 164.452 158.128 159.397C156.85 154.343 153.289 150.882 150.174 151.668C147.058 152.454 145.568 157.188 146.846 162.243C148.123 167.298 151.684 170.759 154.8 169.973Z" fill="#187B5C"/>
<path d="M160.372 148.791C163.488 148.006 164.978 143.271 163.7 138.216C162.423 133.161 158.862 129.701 155.746 130.486C152.631 131.272 151.141 136.007 152.418 141.062C153.696 146.117 157.257 149.577 160.372 148.791Z" fill="#187B5C"/>
<path d="M171.912 213.833C175.027 213.047 176.517 208.313 175.24 203.258C173.962 198.203 170.401 194.743 167.286 195.528C164.171 196.314 162.681 201.049 163.958 206.104C165.235 211.159 168.796 214.619 171.912 213.833Z" fill="#187B5C"/>
<path d="M177.709 193.014C180.825 192.228 182.315 187.493 181.037 182.438C179.76 177.384 176.199 173.923 173.083 174.709C169.968 175.495 168.478 180.23 169.755 185.284C171.033 190.339 174.594 193.8 177.709 193.014Z" fill="#187B5C"/>
<path d="M183.326 171.775C186.442 170.989 187.932 166.254 186.654 161.199C185.377 156.145 181.816 152.684 178.701 153.47C175.585 154.256 174.095 158.99 175.373 164.045C176.65 169.1 180.211 172.561 183.326 171.775Z" fill="#187B5C"/>
<path d="M230.341 184.241C234.099 180.333 235.222 175.32 232.85 173.042C230.477 170.764 225.508 172.085 221.75 175.992C217.991 179.899 216.868 184.913 219.24 187.191C221.613 189.469 226.583 188.148 230.341 184.241Z" fill="#187B5C"/>
<path d="M222.497 219.511C226.344 215.511 227.51 210.393 225.1 208.08C222.691 205.767 217.619 207.134 213.771 211.134C209.924 215.133 208.759 220.251 211.168 222.564C213.578 224.878 218.65 223.511 222.497 219.511Z" fill="#187B5C"/>
<path d="M262.172 175.926C265.93 172.019 267.054 167.005 264.681 164.727C262.309 162.45 257.339 163.771 253.581 167.678C249.823 171.585 248.7 176.599 251.072 178.877C253.444 181.154 258.414 179.833 262.172 175.926Z" fill="#187B5C"/>
<path d="M254.045 208.149C257.804 204.242 258.927 199.228 256.554 196.95C254.182 194.672 249.212 195.993 245.454 199.9C241.696 203.808 240.573 208.821 242.945 211.099C245.317 213.377 250.287 212.056 254.045 208.149Z" fill="#187B5C"/>
<path d="M211.035 121.626C211.912 118.458 208.526 114.757 203.472 113.361C198.418 111.964 193.609 113.401 192.732 116.569C191.855 119.737 195.241 123.438 200.295 124.835C205.35 126.231 210.158 124.795 211.035 121.626Z" fill="#187B5C"/>
<path d="M242.948 129.284C243.836 126.129 240.476 122.423 235.442 121.009C230.407 119.594 225.606 121.006 224.718 124.162C223.83 127.318 227.19 131.023 232.224 132.437C237.259 133.852 242.06 132.44 242.948 129.284Z" fill="#187B5C"/>
<path d="M48.2334 333.151C47.6451 338.035 48.34 342.987 50.2498 347.521C52.1595 352.054 55.218 356.012 59.1244 359.006C72.7617 370.12 72.0172 323.991 48.2334 333.151Z" fill="#FFF7CE"/>
<path d="M167.058 312.644C166.686 315.435 161.846 348.636 161.846 348.636C161.846 348.636 160.915 358.959 153.189 356.867C146.312 355.109 139.878 351.942 134.292 347.567C128.335 342.917 113.813 332.314 113.813 332.314C107.155 329.29 99.614 328.826 92.6353 331.012C97.6665 326.922 102.183 322.238 106.086 317.062C108.279 313.359 109.852 309.322 110.741 305.111C110.741 302.228 112.929 278.094 116.28 273.816C119.631 269.538 123.959 264.935 128.986 268.655C134.013 272.375 158.774 291.44 158.774 291.44C161.661 294.126 163.904 297.426 165.339 301.097C166.773 304.768 167.361 308.715 167.058 312.644Z" fill="#F4EBC9"/>
<path d="M59.5891 359.285C58.607 358.289 57.8562 357.09 57.3897 355.772C56.9232 354.454 56.7525 353.05 56.8898 351.659C56.9575 349.723 57.5409 347.841 58.58 346.206C59.6191 344.571 61.0764 343.243 62.8009 342.359C65.3608 341.382 93.4264 330.175 95.7535 329.524C99.0297 328.306 102.539 327.84 106.02 328.162C109.501 328.484 112.864 329.585 115.86 331.384C124.005 337.197 140.342 349.706 142.018 351.054C143.693 352.403 148.301 356.867 153.421 355.239C158.541 353.612 159.937 352.263 161.333 349.706C161.141 353.295 159.913 356.751 157.796 359.657C154.992 364.292 150.764 367.896 145.741 369.934C140.063 372.119 112.788 383.233 109.623 384.256C102.121 385.966 94.2494 384.804 87.5618 381.001C80.7665 376.025 59.5891 359.285 59.5891 359.285Z" fill="#E5DDBD"/>
<path d="M48.2329 333.151C48.7926 335.432 49.9305 337.53 51.5373 339.243C53.1642 340.8 55.191 341.876 57.3928 342.352C59.5946 342.828 61.8856 342.685 64.0113 341.94C67.9675 340.359 93.6128 330.129 95.8469 329.524C102.328 325.247 107.307 319.053 110.089 311.808C111.997 304.181 115.395 277.211 115.395 277.211C115.69 275.239 116.661 273.431 118.141 272.096C119.63 270.566 121.519 269.485 123.592 268.975C125.666 268.466 127.841 268.548 129.87 269.213C124.768 264.92 118.183 262.8 111.532 263.307C100.036 264.005 65.826 280.652 65.826 280.652C61.1514 284.34 57.4722 289.135 55.1213 294.602C52.7475 302.042 48.2329 333.151 48.2329 333.151Z" fill="#FFF7CE"/>
<path d="M104.69 321.387L103.015 323.34C101.007 325.853 98.5434 327.967 95.7538 329.571C93.7525 330.129 72.8077 338.453 65.9192 341.196L63.9648 341.987C61.7961 342.742 59.461 342.887 57.2156 342.405C55.0437 341.956 53.062 340.852 51.5374 339.243C49.9675 337.499 48.8632 335.388 48.3262 333.105C48.3262 332.779 52.9804 301.763 55.1214 294.463C57.4825 289.001 61.1599 284.208 65.826 280.512C66.1984 280.512 100.176 263.865 111.579 263.168C116.237 262.86 120.895 263.791 125.077 265.865C126.754 266.738 128.318 267.816 129.731 269.073V269.306H129.405C127.392 268.626 125.227 268.536 123.165 269.047C121.103 269.558 119.23 270.648 117.769 272.189C116.294 273.529 115.325 275.335 115.023 277.304C115.023 277.536 111.625 304.321 109.717 311.901C108.664 315.355 106.958 318.575 104.69 321.387ZM48.3262 333.152C48.8411 335.406 49.9312 337.488 51.4908 339.197C53.1154 340.742 55.1364 341.807 57.3298 342.275C59.5232 342.743 61.8037 342.595 63.9182 341.847L65.8726 341.103C72.7611 338.36 93.799 329.99 95.7538 329.432C98.5112 327.839 100.943 325.74 102.922 323.247C106.053 319.986 108.435 316.082 109.903 311.808C111.812 304.274 115.209 277.49 115.255 277.211C115.574 275.224 116.559 273.404 118.048 272.049C119.415 270.795 120.99 269.788 122.703 269.073C124.832 268.266 127.183 268.266 129.312 269.073C127.883 267.902 126.32 266.903 124.657 266.097C120.478 264.068 115.844 263.155 111.206 263.447C99.896 264.098 66.1521 280.466 65.5471 280.745C60.8709 284.42 57.2036 289.22 54.8884 294.695C52.8405 302.042 48.4193 332.454 48.3262 333.152Z" fill="#FFF7CE"/>
<path d="M72.9167 300.331C75.4424 297.253 75.9591 293.503 74.0705 291.957C72.1818 290.41 68.6031 291.652 66.0773 294.731C63.5516 297.809 63.035 301.559 64.9236 303.106C66.8123 304.652 70.3909 303.41 72.9167 300.331Z" fill="#187B5C"/>
<path d="M88.2751 294.438C90.8008 291.36 91.3171 287.61 89.4285 286.064C87.5399 284.517 83.9615 285.759 81.4357 288.837C78.91 291.916 78.3934 295.666 80.282 297.212C82.1707 298.759 85.7493 297.517 88.2751 294.438Z" fill="#187B5C"/>
<path d="M103.738 288.261C106.264 285.182 106.78 281.433 104.891 279.886C103.003 278.34 99.4244 279.581 96.8986 282.66C94.3729 285.738 93.8563 289.488 95.7449 291.035C97.6336 292.581 101.212 291.339 103.738 288.261Z" fill="#187B5C"/>
<path d="M69.1717 324.747C71.6974 321.668 72.214 317.918 70.3254 316.372C68.4367 314.825 64.8581 316.067 62.3323 319.146C59.8066 322.225 59.2903 325.974 61.1789 327.52C63.0675 329.067 66.6459 327.825 69.1717 324.747Z" fill="#187B5C"/>
<path d="M84.5197 318.837C87.0454 315.758 87.5621 312.008 85.6735 310.462C83.7849 308.915 80.2061 310.157 77.6803 313.236C75.1546 316.314 74.638 320.064 76.5267 321.611C78.4153 323.157 81.994 321.915 84.5197 318.837Z" fill="#187B5C"/>
<path d="M100.029 312.659C102.555 309.58 103.072 305.831 101.183 304.284C99.2943 302.737 95.7155 303.979 93.1898 307.058C90.664 310.137 90.1478 313.886 92.0364 315.433C93.9251 316.979 97.5035 315.738 100.029 312.659Z" fill="#187B5C"/>
<path d="M113.372 345.145C113.691 342.675 110.623 340.243 106.519 339.713C102.414 339.183 98.8279 340.757 98.5085 343.227C98.1891 345.698 101.258 348.13 105.362 348.66C109.466 349.189 113.053 347.616 113.372 345.145Z" fill="#187B5C"/>
<path d="M88.4168 356.285C88.7428 353.763 85.6178 351.281 81.4368 350.742C77.2559 350.202 73.6023 351.81 73.2763 354.331C72.9503 356.853 76.0753 359.334 80.2562 359.874C84.4372 360.413 88.0908 358.807 88.4168 356.285Z" fill="#187B5C"/>
<path d="M132.863 360.844C133.183 358.374 130.114 355.942 126.01 355.412C121.905 354.882 118.319 356.456 118 358.926C117.68 361.397 120.749 363.829 124.853 364.359C128.958 364.888 132.544 363.315 132.863 360.844Z" fill="#187B5C"/>
<path d="M109.498 370.442C109.817 367.971 106.749 365.539 102.645 365.009C98.5402 364.48 94.9539 366.053 94.6345 368.523C94.3151 370.994 97.3835 373.426 101.488 373.956C105.592 374.485 109.179 372.912 109.498 370.442Z" fill="#187B5C"/>
<path d="M130.997 323.354C133.324 322.46 134.052 318.723 132.622 315.008C131.192 311.292 128.147 309.005 125.819 309.898C123.492 310.792 122.765 314.529 124.194 318.245C125.624 321.96 128.67 324.248 130.997 323.354Z" fill="#187B5C"/>
<path d="M154.302 313.771C156.629 312.877 157.357 309.141 155.927 305.425C154.497 301.71 151.451 299.422 149.124 300.316C146.797 301.21 146.069 304.947 147.499 308.662C148.929 312.378 151.974 314.665 154.302 313.771Z" fill="#187B5C"/>
</g>
<defs>
<clipPath id="clip0_34_17">
<rect width="237" height="303" fill="white" transform="translate(48 82)"/>
</clipPath>
</defs>
</svg>
