<svg width="333" height="467" viewBox="0 0 333 467" fill="none" xmlns="http://www.w3.org/2000/svg">
<rect x="2.5" y="2.5" width="328" height="462" stroke="#FFFBE2" stroke-width="5"/>
<rect x="14" y="15" width="305" height="438" fill="#FFFBE2"/>
<path d="M137.395 359.005C137.771 359.605 137.983 360.294 138.011 361.003C138.038 361.711 137.88 362.415 137.553 363.043C137.225 363.671 136.738 364.203 136.142 364.584C135.546 364.966 134.86 365.184 134.153 365.218C127.791 366.111 113.891 366.639 113.121 364.243C112.892 363.005 113.108 361.726 113.732 360.633C114.355 359.54 115.345 358.704 116.525 358.274C120.193 357.566 123.961 357.566 127.629 358.274C130.762 359.381 134.133 359.634 137.395 359.005Z" fill="#353E46"/>
<path d="M62.2235 359.005C62.2235 359.005 59.3869 364.284 65.2223 365.218C71.0577 366.152 83.9442 366.639 84.5116 364.243C84.7332 363.037 84.5417 361.791 83.9679 360.707C83.3941 359.624 82.4719 358.766 81.3507 358.274C77.997 357.566 74.533 357.566 71.1793 358.274C68.327 359.378 65.2166 359.632 62.2235 359.005Z" fill="#353E46"/>
<path d="M123.09 117.749C110.487 103.13 81.9178 103.414 71.3817 118.724C65.1005 127.86 64.1684 139.515 64.5331 149.87C65.3031 169.281 72.2326 177.931 84.2277 183.048C88.3058 184.878 92.7073 185.875 97.1745 185.979C101.642 186.084 106.085 185.294 110.244 183.657C113.72 182.45 116.915 180.545 119.632 178.06C122.349 175.574 124.532 172.56 126.048 169.2C130.48 156.769 131.775 143.432 129.817 130.378C128.924 125.576 126.575 121.165 123.09 117.749Z" fill="#F9BDAE"/>
<path d="M72.557 136.997C73.3924 136.111 74.4164 135.424 75.5528 134.988C76.6893 134.552 77.9091 134.378 79.1218 134.48C82.1197 134.237 85.1224 134.887 87.7534 136.348C89.1312 137.525 85.1193 136.348 83.2552 136.063C80.0224 135.259 76.608 135.664 73.6511 137.2C73.6511 137.2 72.0302 138.297 72.557 136.997Z" fill="#422C1D"/>
<path d="M122.806 150.033C122.647 151.639 122.064 153.174 121.116 154.48C120.169 155.786 118.892 156.816 117.417 157.464C115.523 157.997 113.507 157.888 111.682 157.154C109.857 156.419 108.326 155.101 107.326 153.403C107.326 153.16 107.61 153.403 107.894 153.647C109.19 154.297 113.283 157.099 115.674 156.611C119.362 155.962 122.766 148.977 122.806 150.033Z" fill="#391E15"/>
<path d="M106.759 136.064C109.048 135.097 111.491 134.547 113.972 134.439C118.349 134.236 121.55 135.414 122.442 137.282C123.333 139.15 120.821 136.226 117.984 135.86C115.961 135.49 113.888 135.49 111.865 135.86C110.973 136.063 105.3 137.769 106.759 136.064Z" fill="#422C1D"/>
<path opacity="0.64" d="M114.54 162.865C119.374 162.865 123.293 159.193 123.293 154.662C123.293 150.132 119.374 146.459 114.54 146.459C109.706 146.459 105.787 150.132 105.787 154.662C105.787 159.193 109.706 162.865 114.54 162.865Z" fill="url(#paint0_radial_34_176)"/>
<path opacity="0.64" d="M80.8645 162.134C85.6987 162.134 89.6176 158.462 89.6176 153.931C89.6176 149.401 85.6987 145.728 80.8645 145.728C76.0302 145.728 72.1113 149.401 72.1113 153.931C72.1113 158.462 76.0302 162.134 80.8645 162.134Z" fill="url(#paint1_radial_34_176)"/>
<path opacity="0.31" d="M98.5734 134.439C103.408 134.439 107.327 130.766 107.327 126.236C107.327 121.706 103.408 118.033 98.5734 118.033C93.7392 118.033 89.8203 121.706 89.8203 126.236C89.8203 130.766 93.7392 134.439 98.5734 134.439Z" fill="url(#paint2_radial_34_176)"/>
<path d="M113.283 143.332C111.888 143.381 110.528 143.779 109.325 144.488C108.122 145.197 107.115 146.195 106.394 147.393C104.489 151.21 108.096 155.109 110.446 156.408C111.932 157.158 113.611 157.431 115.257 157.191C116.902 156.951 118.434 156.21 119.645 155.068C121.342 153.394 122.488 151.241 122.928 148.896C123.09 147.434 120.577 143.454 113.283 143.332Z" fill="white"/>
<path d="M114.54 155.474C117.785 155.474 120.415 152.838 120.415 149.586C120.415 146.334 117.785 143.698 114.54 143.698C111.294 143.698 108.664 146.334 108.664 149.586C108.664 152.838 111.294 155.474 114.54 155.474Z" fill="#1A1212"/>
<path d="M114.54 155.109C117.583 155.109 120.051 152.636 120.051 149.586C120.051 146.536 117.583 144.063 114.54 144.063C111.496 144.063 109.028 146.536 109.028 149.586C109.028 152.636 111.496 155.109 114.54 155.109Z" fill="url(#paint3_linear_34_176)"/>
<path style="mix-blend-mode:multiply" d="M114.54 152.997C116.42 152.997 117.944 151.47 117.944 149.586C117.944 147.702 116.42 146.175 114.54 146.175C112.66 146.175 111.136 147.702 111.136 149.586C111.136 151.47 112.66 152.997 114.54 152.997Z" fill="url(#paint4_linear_34_176)"/>
<path style="mix-blend-mode:overlay" opacity="0.27" d="M110.933 154.419C105.057 149.343 110.933 149.099 113.81 151.617C116.687 154.134 116.161 158.926 110.933 154.419Z" fill="url(#paint5_linear_34_176)"/>
<path d="M105.422 148.611C105.422 148.611 105.422 142.642 113.527 142.601C121.631 142.561 123.171 147.759 123.171 148.652C122.145 147.313 120.821 146.233 119.305 145.497C117.789 144.762 116.123 144.391 114.438 144.414C112.754 144.438 111.098 144.856 109.603 145.634C108.108 146.412 106.815 147.529 105.827 148.896C105.503 149.261 105.462 148.977 105.422 148.611Z" fill="#391E15"/>
<path opacity="0.85" d="M115.188 149.139C115.77 149.139 116.242 148.667 116.242 148.084C116.242 147.501 115.77 147.028 115.188 147.028C114.606 147.028 114.134 147.501 114.134 148.084C114.134 148.667 114.606 149.139 115.188 149.139Z" fill="url(#paint6_linear_34_176)"/>
<path d="M73.1245 150.764C73.284 152.37 73.8672 153.905 74.8144 155.211C75.7616 156.517 77.0385 157.547 78.5142 158.195C80.4075 158.728 82.4237 158.619 84.2487 157.885C86.0737 157.15 87.6052 155.832 88.6046 154.134C88.6046 153.85 88.3209 154.134 88.0373 154.378C86.7405 155.028 82.6476 157.83 80.2567 157.342C76.6095 156.693 73.165 149.505 73.1245 150.764Z" fill="#391E15"/>
<path d="M82.6476 144.063C84.0423 144.112 85.4028 144.51 86.6057 145.219C87.8087 145.928 88.8161 146.926 89.5366 148.124C91.4412 151.941 87.8346 155.84 85.4842 157.139C83.9989 157.888 82.3196 158.162 80.674 157.922C79.0284 157.682 77.4963 156.941 76.2853 155.799C74.5885 154.125 73.4431 151.971 73.0029 149.627C72.8408 148.165 75.3533 144.185 82.6476 144.063Z" fill="white"/>
<path d="M81.3506 156.205C84.5957 156.205 87.2265 153.569 87.2265 150.317C87.2265 147.065 84.5957 144.429 81.3506 144.429C78.1054 144.429 75.4746 147.065 75.4746 150.317C75.4746 153.569 78.1054 156.205 81.3506 156.205Z" fill="#1A1212"/>
<path d="M81.3506 155.84C84.3944 155.84 86.8618 153.367 86.8618 150.317C86.8618 147.267 84.3944 144.794 81.3506 144.794C78.3068 144.794 75.8394 147.267 75.8394 150.317C75.8394 153.367 78.3068 155.84 81.3506 155.84Z" fill="url(#paint7_linear_34_176)"/>
<path style="mix-blend-mode:multiply" d="M81.3508 153.728C83.2307 153.728 84.7548 152.201 84.7548 150.317C84.7548 148.433 83.2307 146.906 81.3508 146.906C79.4708 146.906 77.9468 148.433 77.9468 150.317C77.9468 152.201 79.4708 153.728 81.3508 153.728Z" fill="url(#paint8_linear_34_176)"/>
<path style="mix-blend-mode:overlay" opacity="0.27" d="M84.9977 155.15C90.8737 150.073 84.9977 149.83 82.1205 152.348C79.2433 154.865 79.7702 159.657 84.9977 155.15Z" fill="url(#paint9_linear_34_176)"/>
<path d="M90.5091 149.342C90.5091 149.342 90.3065 143.373 82.2018 143.332C74.0971 143.292 72.5571 148.449 72.5571 149.383C73.5693 148.038 74.8795 146.946 76.3844 146.194C77.8892 145.443 79.5477 145.051 81.2292 145.051C82.9107 145.051 84.5692 145.443 86.0741 146.194C87.5789 146.946 88.8891 148.038 89.9013 149.383C90.4281 149.992 90.4686 149.586 90.5091 149.342Z" fill="#391E15"/>
<path opacity="0.85" d="M80.7426 149.87C81.3245 149.87 81.7962 149.397 81.7962 148.814C81.7962 148.231 81.3245 147.759 80.7426 147.759C80.1607 147.759 79.689 148.231 79.689 148.814C79.689 149.397 80.1607 149.87 80.7426 149.87Z" fill="url(#paint10_linear_34_176)"/>
<path d="M61.4941 144.063C61.4941 144.063 58.4548 142.723 55.5776 146.541C54.3223 148.184 53.6421 150.197 53.6421 152.266C53.6421 154.336 54.3223 156.348 55.5776 157.992C57.7659 161.16 61.8588 166.682 64.6144 166.967C67.37 167.251 67.1269 163.353 67.1269 163.353C67.1269 163.353 64.6955 150.236 64.817 148.896C64.9386 147.556 63.4393 144.023 61.4941 144.063Z" fill="#F9BDAE"/>
<path opacity="0.64" d="M64.8786 162.304C67.1612 161.213 67.4339 157.013 65.4876 152.924C63.5413 148.835 60.113 146.405 57.8304 147.496C55.5477 148.587 55.275 152.786 57.2213 156.875C59.1676 160.965 62.5959 163.395 64.8786 162.304Z" fill="url(#paint11_radial_34_176)"/>
<path d="M65.303 158.723C65.303 158.723 64.2899 161.931 61.0075 159.17C57.725 156.408 57.8466 150.561 59.1028 149.87C60.3591 149.18 64.4925 151.617 64.6141 153.038C64.7356 154.459 65.303 158.723 65.303 158.723Z" fill="#EA976E"/>
<path d="M133.343 141.464C133.343 141.464 136.382 140.124 139.259 143.942C140.511 145.579 141.19 147.584 141.19 149.647C141.19 151.71 140.511 153.715 139.259 155.353C137.071 158.52 132.978 164.043 130.222 164.327C127.467 164.611 127.669 160.713 127.669 160.713C127.669 160.713 130.141 147.596 130.02 146.256C129.898 144.916 131.276 141.424 133.343 141.464Z" fill="#F9BDAE"/>
<path opacity="0.64" d="M137.362 153.562C138.406 149.154 137.257 145.107 134.797 144.522C132.336 143.936 129.495 147.035 128.451 151.443C127.407 155.851 128.556 159.899 131.016 160.484C133.477 161.069 136.318 157.97 137.362 153.562Z" fill="url(#paint12_radial_34_176)"/>
<path d="M129.29 156.084C129.29 156.084 130.303 159.292 133.586 156.571C136.868 153.85 136.746 147.962 135.49 147.271C134.234 146.581 130.101 148.977 129.979 150.398C129.857 151.82 129.29 156.084 129.29 156.084Z" fill="#EA976E"/>
<path d="M86.8618 182.845C86.8618 182.845 89.9416 193.403 90.6711 196.124C91.4005 198.844 99.3431 210.174 103.639 205.626C107.934 201.078 110.325 190.601 111.298 188.733C112.27 186.865 112.351 181.464 110.244 181.301C108.137 181.139 86.8618 182.845 86.8618 182.845Z" fill="#F9BDAE"/>
<path d="M142.015 312.386C142.015 312.386 145.175 312.832 145.175 314.051C145.175 315.269 145.662 358.72 142.744 359.289C139.826 359.857 107.043 361.441 107.61 357.624C108.177 353.807 101.248 320.589 100.113 315.228C98.8568 309.218 97.5601 352.67 94.5613 358.152C92.4135 362.213 62.7097 359.898 58.7789 358.964C54.1997 357.867 61.5345 313.848 61.5345 313.848" fill="#F3F0F0"/>
<path d="M94.8855 192.266L95.6554 188.205C95.6554 188.205 111.298 187.677 111.298 184.144C111.662 182.926 114.783 184.956 114.013 187.068C117.336 187.555 151.538 191.9 164.627 233.28C166.329 238.032 160.574 250.498 135.977 254.519C135.45 255.818 147.769 336.385 147.769 336.385L138.935 337.685C114.296 341.38 51.8088 340.812 51.8088 337.685C51.8088 330.903 61.5345 267.229 62.7502 258.092C56.7527 255.25 37.3418 255.94 36.1261 249.158C34.9103 242.377 41.8399 194.661 85.5245 190.316C86.0513 188.692 85.5245 186.58 87.9965 186.783C89.2606 187.991 90.9508 188.649 92.6972 188.611C92.7628 189.887 92.6948 191.166 92.4946 192.428L94.8855 192.266Z" fill="#DD852D"/>
<path d="M84.025 257.646C84.025 257.646 74.5019 254.072 84.025 250.742C88.2079 249.007 92.6401 247.952 97.1547 247.615C98.7566 247.474 100.37 247.692 101.877 248.254C103.384 248.816 104.747 249.708 105.867 250.864C109.15 254.681 99.7482 260.529 98.1272 258.295C96.5063 256.062 84.7139 257.443 84.025 257.646Z" fill="#F7C4AF"/>
<path d="M99.3432 259.067C99.0691 259.091 98.7931 259.048 98.539 258.942C98.2849 258.836 98.0603 258.67 97.8844 258.458C96.4255 256.468 84.9573 257.645 84.1468 257.93H83.9442C83.7416 257.93 79.4866 256.224 79.5271 253.869C79.5271 252.529 80.986 251.392 83.9442 250.336C88.1469 248.575 92.6101 247.518 97.155 247.209C98.7951 247.059 100.448 247.28 101.991 247.856C103.534 248.433 104.928 249.35 106.07 250.539C106.459 250.973 106.716 251.51 106.809 252.086C106.903 252.662 106.829 253.252 106.597 253.788C105.925 255.095 104.968 256.234 103.796 257.12C102.625 258.006 101.269 258.616 99.8295 258.904L99.3432 259.067ZM92.0085 256.752C94.8856 256.752 97.6007 257.036 98.3302 258.133C98.5233 258.297 98.753 258.412 98.9998 258.469C99.2466 258.525 99.5034 258.521 99.7485 258.458C101.084 258.175 102.342 257.604 103.434 256.783C104.526 255.963 105.426 254.912 106.07 253.707C106.256 253.27 106.313 252.789 106.234 252.321C106.155 251.853 105.943 251.418 105.624 251.067C104.531 249.949 103.205 249.086 101.741 248.539C100.278 247.991 98.7121 247.773 97.155 247.899C92.6817 248.249 88.2915 249.304 84.1468 251.026C81.5128 251.92 80.0945 252.975 80.0945 253.991C80.0945 255.006 82.8906 256.874 84.1468 257.361C86.7487 256.963 89.3765 256.76 92.0085 256.752Z" fill="#AD6D3C"/>
<path d="M51.6063 238.681C51.6063 238.681 50.7958 237.747 58.1711 239.656C64.3713 241.28 78.7572 245.423 88.8881 247.006C90.428 247.25 90.7522 248.752 89.3744 249.321C87.1861 250.255 85.0789 251.392 85.0384 252.488C85.0791 252.593 85.0791 252.709 85.0384 252.813C84.5689 253.628 84.3217 254.552 84.3217 255.493C84.3217 256.434 84.5689 257.359 85.0384 258.174C85.7273 259.108 84.7142 260.204 83.3364 260.042C71.9087 258.945 50.0664 256.63 50.0259 254.925" fill="#DD852D"/>
<path d="M51.6063 238.681C51.6063 238.397 51.9711 238.438 52.1737 238.438H52.8626L54.2809 238.641L57.077 239.169C58.9411 239.534 60.7647 240.021 62.5882 240.509C66.2354 241.443 69.8825 242.377 73.5702 243.229C77.2579 244.082 80.905 244.976 84.5927 245.666L87.3482 246.194L88.7261 246.397C89.3314 246.457 89.9004 246.714 90.347 247.128C90.6041 247.386 90.7645 247.724 90.8014 248.087C90.8384 248.449 90.7494 248.813 90.5497 249.118C90.1721 249.554 89.6811 249.878 89.1313 250.052C88.2915 250.428 87.4791 250.862 86.6999 251.351C86.356 251.565 86.0424 251.825 85.7678 252.123C85.7329 252.242 85.7329 252.369 85.7678 252.488C85.7928 252.663 85.7928 252.841 85.7678 253.016V253.341C85.3848 254.11 85.1903 254.959 85.2005 255.818C85.2016 256.233 85.27 256.644 85.4031 257.036L85.6463 257.605V257.849C85.7214 257.994 85.7891 258.143 85.8489 258.295C85.9656 258.628 85.965 258.991 85.847 259.324C85.729 259.656 85.5008 259.938 85.2005 260.123C84.7179 260.466 84.1284 260.625 83.5391 260.569C79.7298 260.204 76.0016 259.798 72.2734 259.351C68.5452 258.904 64.7766 258.377 61.0484 257.767C59.1843 257.483 57.3202 257.158 55.4561 256.752L52.7005 256.102L51.3632 255.696C50.958 255.696 50.3906 255.412 50.188 254.925C50.3906 255.371 50.958 255.453 51.3632 255.615C51.8158 255.761 52.2757 255.883 52.741 255.981L55.4966 256.509C57.3607 256.793 59.2248 257.036 61.1294 257.239C64.8576 257.686 68.5858 258.092 72.3545 258.458L83.6201 259.554C84.3495 259.554 85.0789 259.026 84.8763 258.661V258.295C84.7305 258.065 84.6083 257.82 84.5116 257.564C84.3358 257.068 84.2401 256.547 84.228 256.021C84.2159 254.983 84.4375 253.956 84.8763 253.016V252.691C84.9187 252.36 85.06 252.048 85.2816 251.798C85.6105 251.37 86.0075 251 86.4567 250.701C87.2907 250.186 88.1571 249.725 89.0503 249.321C90.0634 248.996 90.266 248.63 89.9418 248.224C89.6176 247.818 88.483 247.778 87.5914 247.575L84.7953 247.047C81.0671 246.316 77.3794 245.422 73.7323 244.488L62.8314 241.483L57.3607 239.9L54.6456 239.169L53.2678 238.884H52.5789C51.9711 238.316 51.5658 238.316 51.6063 238.681Z" fill="#C14F27"/>
<path d="M131.276 200.915C129.897 202.531 129.055 204.537 128.866 206.655C128.677 208.773 129.151 210.897 130.222 212.732C132.464 216.398 135.315 219.653 138.651 222.357C139.471 223.196 140.179 224.138 140.758 225.159C141.352 226.342 141.468 227.709 141.083 228.976C140.635 230.041 140.064 231.05 139.381 231.981C138.846 232.82 138.488 233.76 138.327 234.742C138.066 236.822 138.345 238.934 139.137 240.874C139.841 242.927 140.808 244.879 142.015 246.681C140.418 245.082 139.152 243.183 138.29 241.092C137.427 239.001 136.985 236.761 136.99 234.499C137.102 233.308 137.476 232.157 138.084 231.128L138.935 229.707C139.178 229.294 139.381 228.859 139.543 228.407C139.75 227.547 139.65 226.642 139.259 225.849C138.724 224.999 138.099 224.209 137.395 223.494C133.946 220.672 131.105 217.176 129.047 213.22C128.068 211.132 127.716 208.804 128.034 206.519C128.384 204.313 129.54 202.316 131.276 200.915Z" fill="#BA4727"/>
<path d="M92.4946 192.509C87.7128 194.54 82.8499 196.205 78.0681 197.951C75.6367 198.804 73.2458 199.697 70.8954 200.672C69.7202 201.159 68.545 201.646 67.4104 202.215C66.245 202.706 65.2459 203.524 64.5332 204.57C64.9833 203.312 65.8388 202.241 66.9646 201.524C68.0208 200.722 69.1465 200.015 70.3281 199.413C72.6343 198.226 75.017 197.195 77.4603 196.326C82.3307 194.55 87.3677 193.271 92.4946 192.509Z" fill="#C14F27"/>
<path d="M104.166 252.285H103.558C103.558 251.92 102.14 250.945 100.478 250.174L100.721 249.646C101.532 250.011 104.206 251.311 104.166 252.285Z" fill="#AD6D3C"/>
<path d="M103.153 254.559H102.585C102.585 254.194 101.167 253.219 99.4648 252.448L99.708 251.92C100.518 252.082 103.193 253.382 103.153 254.559Z" fill="#AD6D3C"/>
<path d="M102.058 256.468H101.491C101.491 256.102 100.032 255.128 98.3706 254.356L98.6137 253.828C99.4242 254.153 102.099 255.453 102.058 256.468Z" fill="#AD6D3C"/>
<path d="M70.8143 126.114C68.3424 136.591 62.9527 136.957 65.2625 147.028C65.2625 147.028 57.1578 137.119 60.967 129.444L70.8143 126.114Z" fill="#362517"/>
<path d="M120.699 125.668C123.171 136.145 130.79 136.51 128.52 146.581C128.52 146.581 134.396 136.145 132.573 128.795L120.699 125.668Z" fill="#362517"/>
<path d="M64.817 115.394C66.7621 111.82 70.4498 102.968 96.8713 102.968C118.308 102.968 125.562 110.196 127.588 113.851C130.619 118.63 132.364 124.114 132.654 129.769C125.481 129.038 104.652 127.658 96.1824 120.835C88.645 127.576 60.8052 129.444 60.8052 129.444C61.6741 124.639 63.018 119.932 64.817 115.394Z" fill="url(#paint13_linear_34_176)"/>
<path d="M127.588 113.851C125.967 110.927 120.902 105.729 107.813 103.658C99.0596 106.378 83.4985 107.15 71.3413 107.962C68.4298 109.712 66.1134 112.302 64.6954 115.394C62.8826 119.931 61.5251 124.637 60.6431 129.444C60.6431 129.444 88.4829 127.576 96.0203 120.835C104.125 127.657 125.157 128.957 132.492 129.769C132.251 124.128 130.562 118.646 127.588 113.851Z" fill="#362517"/>
<path d="M96.2229 120.104C51.039 120.104 54.8887 130.947 54.8887 130.947C54.8887 134.52 60.9673 134.439 60.9673 134.439C69.072 127.698 86.7404 129.81 88.9286 129.282C91.1169 128.754 92.6974 124.449 96.2229 124.449C99.7485 124.449 101.329 128.713 103.517 129.282C105.706 129.85 123.212 127.698 131.479 134.439C131.479 134.439 137.517 134.439 137.517 130.947C137.395 130.947 141.447 120.104 96.2229 120.104Z" fill="url(#paint14_linear_34_176)"/>
<path style="mix-blend-mode:multiply" d="M96.2229 120.104C51.039 120.104 54.8887 130.947 54.8887 130.947C54.8887 134.52 60.9673 134.439 60.9673 134.439C69.072 127.698 86.7404 129.81 88.9286 129.282C91.1169 128.754 92.6974 124.449 96.2229 124.449C99.7485 124.449 101.329 128.713 103.517 129.282C105.706 129.85 123.212 127.698 131.479 134.439C131.479 134.439 137.517 134.439 137.517 130.947C137.395 130.947 141.447 120.104 96.2229 120.104Z" fill="url(#paint15_linear_34_176)"/>
<path style="mix-blend-mode:multiply" d="M96.2229 120.104C51.039 120.104 54.8887 130.947 54.8887 130.947C54.8887 132.612 56.2261 133.464 57.6444 133.952C53.592 131.393 62.9935 123.962 96.2229 123.962C126.292 123.962 138.206 129.363 136.747 132.774C136.984 132.534 137.172 132.249 137.297 131.935C137.422 131.621 137.483 131.285 137.476 130.947C137.476 130.947 141.447 120.104 96.2229 120.104Z" fill="url(#paint16_linear_34_176)"/>
<path d="M96.2228 104.917C70.5713 104.917 57.32 108.977 56.1449 112.064C55.2398 118.316 54.8198 124.629 54.8886 130.947C54.8886 130.947 57.1174 122.013 96.2228 122.013C135.328 122.013 137.517 130.947 137.517 130.947C137.517 130.947 138.286 113.972 136.139 111.414C134.68 109.627 121.874 104.917 96.2228 104.917Z" fill="url(#paint17_linear_34_176)"/>
<path style="mix-blend-mode:multiply" d="M98.6545 162.703C98.9084 163.048 99.0743 163.451 99.1379 163.876C99.2014 164.3 99.1607 164.734 99.0192 165.139C98.7972 165.788 98.5122 166.414 98.1682 167.007C98.1682 167.21 98.1682 167.21 98.1682 167.007C98.1682 166.804 98.1682 167.007 98.1682 167.373C98.1682 167.738 98.8976 168.388 99.3029 169.159C98.4906 169.386 97.6227 169.3 96.8714 168.916C96.3401 168.645 95.9336 168.18 95.7368 167.616C95.5939 166.971 95.6799 166.296 95.9799 165.708C96.8714 164.246 97.6008 164.083 98.6545 162.703Z" fill="url(#paint18_linear_34_176)"/>
<path d="M104.976 173.545C104.289 174.483 103.409 175.263 102.395 175.83C101.381 176.398 100.257 176.74 99.1 176.834C97.9199 176.933 96.7325 176.78 95.615 176.388C94.5106 176.009 93.5394 175.318 92.8188 174.398C93.8681 174.522 94.9232 174.59 95.9797 174.601C96.9513 174.662 97.9258 174.662 98.8974 174.601L101.815 174.195C102.585 173.951 103.598 173.708 104.976 173.545Z" fill="#763E48"/>
<path opacity="0.2" d="M93.2238 174.926C93.7101 174.926 92.4539 173.667 91.8866 173.87C91.3192 174.073 91.4813 175.007 93.2238 174.926Z" fill="url(#paint19_linear_34_176)"/>
<path opacity="0.2" d="M103.963 174.073C103.476 174.073 104.733 172.814 105.26 172.977C105.786 173.139 105.705 174.114 103.963 174.073Z" fill="url(#paint20_linear_34_176)"/>
<path d="M227.034 203.596C227.034 203.596 229.425 214.154 229.951 216.875C230.478 219.595 236.638 230.844 239.961 226.336C243.284 221.829 245.107 211.352 245.837 209.484C246.566 207.616 246.688 202.255 245.026 202.093C243.365 201.931 227.034 203.596 227.034 203.596Z" fill="#F7C4AF"/>
<path d="M214.633 348.65C214.633 348.65 211.918 360.832 214.633 362.456C217.348 364.081 236.435 366.517 237.813 363.634C237.813 363.634 262.897 367.005 265.328 361.888C267.76 356.771 282.105 342.843 259.979 344.548C237.853 346.254 214.633 348.65 214.633 348.65Z" fill="#231F20"/>
<path d="M297.059 352.304C297.059 352.304 264.64 276.894 261.6 258.092C261.212 254.454 260.368 250.879 259.088 247.453L258.764 246.762C258.715 242.185 258.391 237.615 257.791 233.077C260.506 222.803 267.395 216.184 258.318 213.423C257.264 213.098 253.212 212.651 249.443 211.717C248.359 212.22 247.25 212.667 246.12 213.057C241.861 214.458 237.318 214.765 232.91 213.951C230.362 213.763 227.971 212.652 226.183 210.824C223.751 211.473 220.469 211.555 217.389 212.001C211.472 212.813 210.095 218.742 214.188 224.996C217.875 233.118 213.58 246.356 213.58 246.356L214.512 250.052C211.878 256.021 213.174 259.798 211.797 268.691C209.446 283.96 201.585 328.751 181.931 352.832C181.931 352.832 183.146 357.989 204.705 356.69C204.705 356.69 219.982 363.756 249.727 361.766C279.471 359.776 283.645 357.136 283.645 357.136L280.971 354.7C286.448 355.216 291.968 354.394 297.059 352.304Z" fill="#2C6041"/>
<path d="M200.815 177.606C200.815 177.606 185.456 173.545 185.334 146.419C185.334 129.444 215.363 85.5058 261.276 108.531C311.485 133.668 272.623 177.565 272.623 177.565" fill="#3F6E4B"/>
<path d="M272.501 176.225C272.501 176.225 303.664 138.5 259.088 118.074C216.619 98.663 188.333 135.089 188.333 151.86C188.751 162.586 193.228 172.75 200.855 180.286" fill="#1D4824"/>
<path d="M257.386 144.916C246.809 131.596 222.738 131.881 213.863 145.809C209.191 154.509 207.189 164.399 208.109 174.236C208.757 191.941 214.552 199.819 224.683 204.448C228.072 206.125 231.784 207.045 235.562 207.143C239.34 207.241 243.095 206.516 246.566 205.017C249.571 203.849 252.306 202.075 254.599 199.804C256.892 197.534 258.696 194.816 259.898 191.819C263.629 180.425 264.71 168.326 263.059 156.449C262.339 152.13 260.366 148.119 257.386 144.916Z" fill="#F7C4AF"/>
<path d="M208.069 175.86C208.069 175.86 208.676 165.708 210.905 163.19C213.134 160.672 228.736 149.221 230.276 146.947C231.815 144.673 237.408 139.962 237.205 134.561C239.071 141.677 243.618 147.791 249.889 151.617C260.912 158.886 263.1 162.175 263.667 170.581V175.697C263.667 175.697 264.518 170.621 264.842 169.281C265.533 164.564 265.102 159.751 263.584 155.232C262.066 150.714 259.503 146.62 256.106 143.282C252.708 139.945 248.572 137.46 244.034 136.029C239.496 134.598 234.684 134.262 229.992 135.048C216.011 137.16 206.367 149.87 205.151 170.215V171.231C205.151 171.231 206.529 172.124 207.177 175.535C207.825 178.946 208.069 175.86 208.069 175.86Z" fill="#362517"/>
<path d="M214.998 165.789C215.7 165.042 216.558 164.462 217.511 164.09C218.465 163.717 219.489 163.563 220.509 163.636C223.035 163.437 225.562 164.003 227.763 165.261C228.938 166.235 225.575 165.261 223.994 165.017C221.268 164.352 218.394 164.683 215.89 165.951C215.89 165.951 214.39 166.885 214.998 165.789Z" fill="#422C1D"/>
<path d="M257.142 176.794C257.09 178.32 256.533 179.786 255.56 180.962C254.587 182.137 253.252 182.956 251.765 183.291C250.278 183.625 248.722 183.455 247.341 182.809C245.961 182.162 244.833 181.075 244.134 179.718C244.134 179.474 244.377 179.718 244.621 179.921C245.715 180.489 249.159 182.845 251.145 182.439C254.265 181.789 257.142 175.738 257.142 176.794Z" fill="#391E15"/>
<path d="M243.648 164.977C245.582 164.18 247.639 163.727 249.727 163.636C253.415 163.636 256.089 164.449 256.859 166.032C257.629 167.616 255.481 165.139 253.09 164.855C251.402 164.549 249.673 164.549 247.984 164.855C247.174 164.977 242.433 166.439 243.648 164.977Z" fill="#422C1D"/>
<path opacity="0.64" d="M250.213 187.636C254.286 187.636 257.589 184.527 257.589 180.692C257.589 176.857 254.286 173.748 250.213 173.748C246.14 173.748 242.838 176.857 242.838 180.692C242.838 184.527 246.14 187.636 250.213 187.636Z" fill="url(#paint21_radial_34_176)"/>
<path opacity="0.64" d="M221.847 187.027C225.92 187.027 229.222 183.918 229.222 180.083C229.222 176.248 225.92 173.139 221.847 173.139C217.773 173.139 214.471 176.248 214.471 180.083C214.471 183.918 217.773 187.027 221.847 187.027Z" fill="url(#paint22_radial_34_176)"/>
<path opacity="0.31" d="M236.759 163.677C240.832 163.677 244.134 160.568 244.134 156.733C244.134 152.898 240.832 149.789 236.759 149.789C232.686 149.789 229.384 152.898 229.384 156.733C229.384 160.568 232.686 163.677 236.759 163.677Z" fill="url(#paint23_radial_34_176)"/>
<path d="M249.159 171.149C247.99 171.188 246.848 171.512 245.831 172.092C244.815 172.672 243.954 173.491 243.324 174.479C241.743 177.687 244.783 180.976 246.849 182.073C248.101 182.725 249.526 182.966 250.923 182.762C252.319 182.558 253.616 181.919 254.63 180.936C256.036 179.516 256.982 177.705 257.345 175.738C257.386 174.601 255.278 171.23 249.159 171.149Z" fill="white"/>
<path d="M250.213 181.383C252.943 181.383 255.157 179.165 255.157 176.428C255.157 173.692 252.943 171.474 250.213 171.474C247.483 171.474 245.269 173.692 245.269 176.428C245.269 179.165 247.483 181.383 250.213 181.383Z" fill="#2F1514"/>
<path d="M250.213 181.058C252.764 181.058 254.833 178.985 254.833 176.428C254.833 173.872 252.764 171.799 250.213 171.799C247.662 171.799 245.593 173.872 245.593 176.428C245.593 178.985 247.662 181.058 250.213 181.058Z" fill="url(#paint24_linear_34_176)"/>
<path style="mix-blend-mode:multiply" d="M250.213 179.312C251.802 179.312 253.09 178.021 253.09 176.428C253.09 174.836 251.802 173.545 250.213 173.545C248.624 173.545 247.336 174.836 247.336 176.428C247.336 178.021 248.624 179.312 250.213 179.312Z" fill="url(#paint25_linear_34_176)"/>
<path style="mix-blend-mode:overlay" opacity="0.27" d="M247.174 180.489C242.23 176.225 247.174 175.982 249.605 178.134C252.037 180.286 251.55 184.306 247.174 180.489Z" fill="url(#paint26_linear_34_176)"/>
<path d="M242.514 175.616C242.514 175.616 242.716 170.581 249.524 170.54C256.332 170.499 257.629 174.845 257.629 175.657C256.785 174.515 255.685 173.587 254.419 172.947C253.152 172.308 251.753 171.975 250.335 171.975C248.916 171.975 247.518 172.308 246.251 172.947C244.984 173.587 243.885 174.515 243.041 175.657C242.757 176.144 242.757 175.819 242.514 175.616Z" fill="#391E15"/>
<path opacity="0.85" d="M250.74 176.022C251.232 176.022 251.631 175.622 251.631 175.129C251.631 174.636 251.232 174.236 250.74 174.236C250.247 174.236 249.848 174.636 249.848 175.129C249.848 175.622 250.247 176.022 250.74 176.022Z" fill="url(#paint27_linear_34_176)"/>
<path d="M215.363 177.403C215.416 178.929 215.972 180.395 216.945 181.571C217.918 182.746 219.253 183.565 220.74 183.9C222.227 184.234 223.783 184.064 225.164 183.418C226.545 182.771 227.672 181.684 228.371 180.327C228.371 180.083 228.128 180.327 227.885 180.327C226.79 180.895 223.346 183.251 221.36 182.845C218.443 182.398 215.363 176.347 215.363 177.403Z" fill="#391E15"/>
<path d="M223.346 171.758C224.51 171.794 225.648 172.116 226.659 172.697C227.669 173.278 228.522 174.099 229.14 175.088C230.761 178.296 227.722 181.586 225.655 182.682C224.403 183.334 222.978 183.575 221.582 183.371C220.186 183.167 218.889 182.528 217.875 181.545C216.445 180.143 215.495 178.323 215.16 176.347C215.119 175.21 217.186 171.84 223.346 171.758Z" fill="white"/>
<path d="M222.252 181.992C224.982 181.992 227.195 179.774 227.195 177.037C227.195 174.301 224.982 172.083 222.252 172.083C219.521 172.083 217.308 174.301 217.308 177.037C217.308 179.774 219.521 181.992 222.252 181.992Z" fill="#2F1514"/>
<path d="M222.252 181.667C224.803 181.667 226.871 179.594 226.871 177.038C226.871 174.481 224.803 172.408 222.252 172.408C219.7 172.408 217.632 174.481 217.632 177.038C217.632 179.594 219.7 181.667 222.252 181.667Z" fill="url(#paint28_linear_34_176)"/>
<path style="mix-blend-mode:multiply" d="M222.252 179.921C223.841 179.921 225.129 178.63 225.129 177.038C225.129 175.445 223.841 174.154 222.252 174.154C220.663 174.154 219.375 175.445 219.375 177.038C219.375 178.63 220.663 179.921 222.252 179.921Z" fill="url(#paint29_linear_34_176)"/>
<path style="mix-blend-mode:overlay" opacity="0.27" d="M225.332 181.098C230.276 176.834 225.332 176.591 222.9 178.743C220.469 180.895 220.915 184.915 225.332 181.098Z" fill="url(#paint30_linear_34_176)"/>
<path d="M229.951 176.225C229.951 176.225 229.951 171.19 222.981 171.149C216.011 171.109 214.876 175.494 214.876 176.266C215.585 175.214 216.529 174.342 217.634 173.721C218.739 173.101 219.973 172.748 221.239 172.692C222.804 172.483 224.396 172.723 225.831 173.384C227.265 174.046 228.483 175.101 229.343 176.428C229.911 176.753 229.951 176.428 229.951 176.225Z" fill="#391E15"/>
<path opacity="0.85" d="M221.725 176.672C222.217 176.672 222.617 176.272 222.617 175.779C222.617 175.285 222.217 174.885 221.725 174.885C221.233 174.885 220.833 175.285 220.833 175.779C220.833 176.272 221.233 176.672 221.725 176.672Z" fill="url(#paint31_linear_34_176)"/>
<path d="M205.556 171.758C205.556 171.758 203.003 170.621 200.571 173.87C199.548 175.265 198.996 176.951 198.996 178.682C198.996 180.414 199.548 182.1 200.571 183.494C202.435 186.175 205.88 190.845 208.23 191.088C210.581 191.332 210.338 188.043 210.338 188.043C210.338 188.043 208.271 176.956 208.352 175.86C208.433 174.764 207.177 171.718 205.556 171.758Z" fill="#FBC8B7"/>
<path opacity="0.64" d="M208.234 187.418C210.155 186.504 210.382 182.955 208.742 179.49C207.102 176.025 204.215 173.957 202.294 174.87C200.373 175.783 200.145 179.332 201.786 182.797C203.426 186.262 206.313 188.331 208.234 187.418Z" fill="url(#paint32_radial_34_176)"/>
<path d="M232.788 142.033C231.828 145.076 230.566 148.015 229.019 150.804C231.619 147.925 233.851 144.733 235.665 141.302C236.212 144.478 235.699 147.746 234.206 150.601C235.583 149.132 236.609 147.369 237.205 145.444C237.742 144.157 237.827 142.725 237.448 141.383C239.382 144.321 241.623 147.044 244.134 149.505C242.49 146.88 241.298 143.998 240.609 140.977C239.231 135.332 237.407 131.028 232.788 142.033Z" fill="#362517"/>
<path d="M208.757 184.103C208.757 184.103 207.906 186.824 205.15 184.509C202.395 182.195 202.476 177.241 203.53 176.672C204.583 176.104 208.068 178.134 208.19 179.352C208.311 180.57 208.757 184.103 208.757 184.103Z" fill="#EA976E"/>
<path d="M265.936 169.566C265.936 169.566 268.489 168.428 270.921 171.637C271.954 173.035 272.512 174.729 272.512 176.469C272.512 178.209 271.954 179.903 270.921 181.301C269.097 183.982 265.653 188.652 263.302 188.895C260.952 189.139 261.195 185.809 261.195 185.809C261.195 185.809 263.262 174.763 263.181 173.626C263.1 172.489 264.275 169.525 265.936 169.566Z" fill="#FBC8B7"/>
<path opacity="0.64" d="M269.354 179.619C270.233 175.886 269.268 172.464 267.199 171.974C265.13 171.485 262.739 174.114 261.86 177.847C260.981 181.579 261.946 185.002 264.015 185.491C266.085 185.981 268.475 183.352 269.354 179.619Z" fill="url(#paint33_radial_34_176)"/>
<path d="M262.735 181.911C262.735 181.911 263.586 184.631 266.342 182.317C269.097 180.002 268.976 175.048 267.962 174.439C266.949 173.829 263.383 175.9 263.302 177.119C263.221 178.337 262.735 181.911 262.735 181.911Z" fill="#EA976E"/>
<path d="M231.896 195.271C233.323 196.643 235.19 197.464 237.165 197.585C239.88 197.585 241.217 195.068 241.946 194.905C238.596 194.546 235.212 194.669 231.896 195.271Z" fill="url(#paint34_radial_34_176)"/>
<path d="M232.18 194.256C233.577 194.957 235.086 195.41 236.637 195.596C238.338 195.577 239.992 195.039 241.379 194.053C241.662 194.053 242.838 193.809 241.743 194.743C240.433 195.757 238.855 196.364 237.205 196.489C235.456 196.481 233.739 196.019 232.22 195.149C231.612 194.662 231.491 194.012 232.18 194.256Z" fill="#AB4233"/>
<path d="M237.205 183.494C237.205 183.494 236.84 186.093 237.529 186.418C238.218 186.743 237.164 187.839 236.759 187.717C236.531 186.295 236.685 184.837 237.205 183.494Z" fill="#F08F7D"/>
<path d="M217.51 300.934C217.51 300.934 199.072 352.832 188.09 355.39C193.557 356.477 199.148 356.805 204.705 356.365H204.948H205.231C205.231 356.365 217.145 311.411 217.51 300.934Z" fill="#25462A"/>
<g style="mix-blend-mode:multiply" opacity="0.5">
<path d="M263.262 299.432C263.262 299.432 270.88 337.969 281.578 354.294C286.2 354.577 290.836 354.125 295.316 352.954C282.214 336.683 271.427 318.671 263.262 299.432Z" fill="#25462A"/>
</g>
<path d="M227.276 205.382C226.263 209.037 225.899 210.418 223.021 210.58C220.144 210.743 208.555 212.854 204.543 217.077C200.531 221.301 188.982 237.788 190.076 241.158C191.17 244.529 200.571 266.336 207.987 270.762C215.403 275.188 225.534 257.036 226.466 254.925C227.398 252.813 209.162 241.402 209.932 240.346C210.702 239.29 215.16 228.164 215.16 228.164L236.718 226.499C236.718 226.499 238.137 216.509 235.624 212.732C233.285 209.819 230.46 207.333 227.276 205.382Z" fill="#2C6041"/>
<g style="mix-blend-mode:multiply">
<path d="M225.332 254.884C226.952 255.412 225.332 259.635 221.603 264.346C217.875 269.056 213.499 272.467 211.999 271.899C210.5 271.33 211.999 267.148 215.727 262.437C219.456 257.727 223.711 254.559 225.332 254.884Z" fill="#2C6041"/>
</g>
<path d="M246.201 205.382C247.174 209.037 247.539 210.418 250.456 210.58C253.374 210.743 264.923 212.854 268.895 217.077C272.866 221.301 284.456 237.788 283.362 241.158C282.267 244.529 272.866 266.336 265.45 270.762C258.034 275.188 247.903 257.036 247.012 254.925C246.12 252.813 264.275 241.402 263.505 240.346C262.735 239.29 258.277 228.164 258.277 228.164L236.719 226.499C236.719 226.499 235.3 216.509 237.813 212.732C240.161 209.812 242.999 207.324 246.201 205.382Z" fill="#2C6041"/>
<g style="mix-blend-mode:multiply">
<path d="M249.564 258.133C248.146 258.539 249.848 262.762 253.374 267.554C256.899 272.346 260.83 275.879 262.208 275.473C263.586 275.067 261.924 270.843 258.439 266.051C254.954 261.26 250.861 257.727 249.564 258.133Z" fill="#2C6041"/>
</g>
<path d="M222.089 258.62C226.306 258.316 230.521 259.217 234.246 261.219C237.894 263.209 243.324 267.798 242.351 268.163C241.379 268.529 239.636 268.163 234.733 264.671C234.733 264.671 237.853 269.869 237.164 270.884C236.358 271.606 235.402 272.141 234.365 272.45C233.328 272.759 232.236 272.834 231.167 272.671C228.208 272.671 228.087 267.432 224.683 266.904C221.697 266.751 218.846 265.608 216.578 263.656C216.578 263.656 217.551 262.64 218.766 261.26C219.775 260.262 220.889 259.376 222.089 258.62Z" fill="#F7C4AF"/>
<path d="M231.815 272.955H231.329C229.748 272.955 228.897 271.534 228.087 270.153C227.276 268.772 226.425 267.432 224.845 267.189H224.44C221.579 266.963 218.867 265.824 216.7 263.94L216.457 263.737L216.659 263.493C216.659 263.493 217.632 262.478 218.847 261.097C219.774 260.095 220.807 259.196 221.927 258.417C226.237 258.074 230.554 258.976 234.368 261.016C237.367 262.64 242.838 266.945 242.756 268.123C242.754 268.211 242.727 268.296 242.676 268.369C242.626 268.441 242.555 268.497 242.473 268.529C241.541 268.894 240.041 268.854 235.705 265.767C236.678 267.554 238.015 270.275 237.448 271.128C236.693 271.816 235.8 272.336 234.828 272.651C233.857 272.966 232.83 273.07 231.815 272.955ZM217.308 263.615C219.348 265.353 221.89 266.391 224.561 266.579H224.926C225.742 266.804 226.495 267.214 227.128 267.777C227.76 268.341 228.255 269.042 228.573 269.828C229.384 271.168 230.073 272.305 231.369 272.346C232.392 272.503 233.436 272.435 234.429 272.148C235.423 271.861 236.342 271.36 237.124 270.681C237.488 270.153 236.151 267.189 234.692 264.793L233.922 263.534L235.097 264.387C239.96 268.001 241.581 268.163 242.351 267.879C240.047 265.269 237.303 263.084 234.246 261.422C230.53 259.399 226.304 258.51 222.089 258.864C221.031 259.598 220.053 260.442 219.172 261.382C218.442 262.437 217.672 263.25 217.308 263.615Z" fill="#AD6D3C"/>
<path d="M250.254 259.392C243.729 259.392 241.825 259.392 238.096 261.219C234.368 263.046 228.979 267.798 229.992 268.163C231.005 268.529 232.707 268.163 237.57 264.671C237.57 264.671 234.449 269.869 235.138 270.884C236.657 272.175 238.542 272.956 240.528 273.117C243.81 271.94 244.216 267.432 247.62 266.904C251.024 266.376 253.05 266.904 256.697 264.387C256.058 263.357 255.34 262.38 254.549 261.463C253.303 260.438 251.83 259.728 250.254 259.392Z" fill="#F7C4AF"/>
<path d="M240.325 273.442C238.329 273.206 236.45 272.371 234.936 271.046C234.368 270.193 235.706 267.473 236.678 265.686C232.383 268.732 230.843 268.813 229.911 268.447C229.829 268.415 229.758 268.36 229.707 268.287C229.657 268.215 229.629 268.129 229.627 268.041C229.627 266.864 235.057 262.559 238.015 260.935C240.913 259.448 244.177 258.828 247.417 259.148H250.294C251.947 259.485 253.491 260.224 254.792 261.3C255.611 262.243 256.356 263.248 257.021 264.305V264.508H256.818C254.85 266.044 252.424 266.873 249.929 266.864C249.2 266.864 248.43 266.863 247.579 267.067C246.814 267.29 246.103 267.669 245.49 268.179C244.876 268.689 244.374 269.319 244.013 270.031C243.221 271.454 242.001 272.59 240.528 273.28L240.325 273.442ZM238.623 263.574L237.853 264.833C236.435 267.229 235.057 270.194 235.422 270.721C236.861 271.893 238.605 272.626 240.447 272.833C241.805 272.182 242.936 271.135 243.689 269.828C244.09 269.03 244.661 268.329 245.361 267.775C246.061 267.22 246.873 266.826 247.741 266.62L250.132 266.376C252.418 266.421 254.655 265.707 256.494 264.346C255.892 263.41 255.228 262.515 254.509 261.666C253.326 260.702 251.94 260.021 250.456 259.676H247.66C244.517 259.371 241.352 259.977 238.542 261.422C235.472 263.064 232.726 265.252 230.437 267.879C231.207 268.163 232.828 267.879 237.651 264.386L238.623 263.574Z" fill="#AD6D3C"/>
<path d="M239.88 266.052C238.125 267.476 236.736 269.3 235.827 271.371C236.154 270.256 236.705 269.219 237.448 268.326C238.125 267.436 238.947 266.667 239.88 266.052Z" fill="#AD6D3C"/>
<path d="M241.703 267.026C239.887 268.44 238.43 270.262 237.448 272.346C237.791 271.237 238.341 270.204 239.069 269.3C239.82 268.405 240.709 267.637 241.703 267.026Z" fill="#AD6D3C"/>
<path d="M242.959 268.691C241.556 269.793 240.396 271.176 239.555 272.752C240.166 271.032 241.374 269.591 242.959 268.691Z" fill="#AD6D3C"/>
<defs>
<radialGradient id="paint0_radial_34_176" cx="0" cy="0" r="1" gradientUnits="userSpaceOnUse" gradientTransform="translate(95.8701 150.802) scale(7.72261 9.5751)">
<stop stop-color="#F19A84"/>
<stop offset="1" stop-color="#F7C4AF"/>
</radialGradient>
<radialGradient id="paint1_radial_34_176" cx="0" cy="0" r="1" gradientUnits="userSpaceOnUse" gradientTransform="translate(62.3496 150.06) scale(7.72261 9.5751)">
<stop stop-color="#F19A84"/>
<stop offset="1" stop-color="#F7C4AF"/>
</radialGradient>
<radialGradient id="paint2_radial_34_176" cx="0" cy="0" r="1" gradientUnits="userSpaceOnUse" gradientTransform="translate(79.9706 122.491) scale(7.72261 9.5751)">
<stop stop-color="#F19A84"/>
<stop offset="1" stop-color="#F7C4AF"/>
</radialGradient>
<linearGradient id="paint3_linear_34_176" x1="114.54" y1="154.662" x2="114.54" y2="144.551" gradientUnits="userSpaceOnUse">
<stop stop-color="#401614"/>
<stop offset="1" stop-color="#1A1212"/>
</linearGradient>
<linearGradient id="paint4_linear_34_176" x1="114.54" y1="154.012" x2="114.54" y2="146.418" gradientUnits="userSpaceOnUse">
<stop stop-color="#94BBB1"/>
<stop offset="0.99" stop-color="#5A3534"/>
</linearGradient>
<linearGradient id="paint5_linear_34_176" x1="63.7006" y1="7.47428" x2="66.1869" y2="4.47639" gradientUnits="userSpaceOnUse">
<stop stop-color="#D4C7CE"/>
<stop offset="1" stop-color="#D5C6C8"/>
</linearGradient>
<linearGradient id="paint6_linear_34_176" x1="114.742" y1="148.571" x2="116.083" y2="146.99" gradientUnits="userSpaceOnUse">
<stop stop-color="#F0E2EA"/>
<stop offset="1" stop-color="#F4FAFA"/>
</linearGradient>
<linearGradient id="paint7_linear_34_176" x1="81.3506" y1="155.393" x2="81.3506" y2="145.281" gradientUnits="userSpaceOnUse">
<stop stop-color="#401614"/>
<stop offset="1" stop-color="#1A1212"/>
</linearGradient>
<linearGradient id="paint8_linear_34_176" x1="81.3508" y1="154.743" x2="81.3508" y2="147.15" gradientUnits="userSpaceOnUse">
<stop stop-color="#94BBB1"/>
<stop offset="0.99" stop-color="#5A3534"/>
</linearGradient>
<linearGradient id="paint9_linear_34_176" x1="84.7443" y1="154.71" x2="82.2456" y2="151.709" gradientUnits="userSpaceOnUse">
<stop stop-color="#D4C7CE"/>
<stop offset="1" stop-color="#D5C6C8"/>
</linearGradient>
<linearGradient id="paint10_linear_34_176" x1="81.1478" y1="149.342" x2="79.8478" y2="147.761" gradientUnits="userSpaceOnUse">
<stop stop-color="#F0E2EA"/>
<stop offset="1" stop-color="#F4FAFA"/>
</linearGradient>
<radialGradient id="paint11_radial_34_176" cx="0" cy="0" r="1" gradientUnits="userSpaceOnUse" gradientTransform="translate(46.4203 120.684) rotate(-25.5466) scale(4.05924 9.5714)">
<stop stop-color="#F19A84"/>
<stop offset="1" stop-color="#F7C4AF"/>
</radialGradient>
<radialGradient id="paint12_radial_34_176" cx="0" cy="0" r="1" gradientUnits="userSpaceOnUse" gradientTransform="translate(123.718 165.963) rotate(13.3769) scale(4.05811 9.57405)">
<stop stop-color="#F19A84"/>
<stop offset="1" stop-color="#F7C4AF"/>
</radialGradient>
<linearGradient id="paint13_linear_34_176" x1="66.3164" y1="96.592" x2="125.994" y2="148.853" gradientUnits="userSpaceOnUse">
<stop stop-color="#4E4F4F"/>
<stop offset="1" stop-color="#010101"/>
</linearGradient>
<linearGradient id="paint14_linear_34_176" x1="77.0957" y1="106.785" x2="113.294" y2="151.339" gradientUnits="userSpaceOnUse">
<stop offset="0.08" stop-color="#DF934F"/>
<stop offset="0.75" stop-color="#DF8A3B"/>
</linearGradient>
<linearGradient id="paint15_linear_34_176" x1="45.2846" y1="127.048" x2="99.0596" y2="127.412" gradientUnits="userSpaceOnUse">
<stop offset="0.08" stop-color="#DF934F"/>
<stop offset="0.37" stop-color="#DF8E44"/>
<stop offset="0.75" stop-color="#DF8A3B"/>
</linearGradient>
<linearGradient id="paint16_linear_34_176" x1="77.0957" y1="106.785" x2="113.293" y2="151.339" gradientUnits="userSpaceOnUse">
<stop offset="0.08" stop-color="#DF934F"/>
<stop offset="0.37" stop-color="#DF8E44"/>
<stop offset="0.75" stop-color="#DF8A3B"/>
</linearGradient>
<linearGradient id="paint17_linear_34_176" x1="73.2054" y1="93.5461" x2="116.716" y2="147.182" gradientUnits="userSpaceOnUse">
<stop offset="0.08" stop-color="#DF934F"/>
<stop offset="0.75" stop-color="#DF8A3B"/>
</linearGradient>
<linearGradient id="paint18_linear_34_176" x1="95.9799" y1="163.84" x2="100.286" y2="169.151" gradientUnits="userSpaceOnUse">
<stop offset="0.52" stop-color="#FAC8C7"/>
<stop offset="1" stop-color="#EB9697"/>
</linearGradient>
<linearGradient id="paint19_linear_34_176" x1="91.0368" y1="178.553" x2="92.8269" y2="179.055" gradientUnits="userSpaceOnUse">
<stop offset="0.05" stop-color="#8E1927"/>
<stop offset="0.37" stop-color="#B81C32"/>
<stop offset="0.68" stop-color="#E4203E"/>
</linearGradient>
<linearGradient id="paint20_linear_34_176" x1="104.023" y1="153.216" x2="102.233" y2="153.737" gradientUnits="userSpaceOnUse">
<stop offset="0.05" stop-color="#8E1927"/>
<stop offset="0.37" stop-color="#B81C32"/>
<stop offset="0.68" stop-color="#E4203E"/>
</linearGradient>
<radialGradient id="paint21_radial_34_176" cx="0" cy="0" r="1" gradientUnits="userSpaceOnUse" gradientTransform="translate(230.949 173.961) scale(6.50325 8.06324)">
<stop stop-color="#F19A84"/>
<stop offset="1" stop-color="#F7C4AF"/>
</radialGradient>
<radialGradient id="paint22_radial_34_176" cx="0" cy="0" r="1" gradientUnits="userSpaceOnUse" gradientTransform="translate(202.712 173.338) scale(6.50325 8.06324)">
<stop stop-color="#F19A84"/>
<stop offset="1" stop-color="#F7C4AF"/>
</radialGradient>
<radialGradient id="paint23_radial_34_176" cx="0" cy="0" r="1" gradientUnits="userSpaceOnUse" gradientTransform="translate(217.559 150.127) scale(6.50325 8.06324)">
<stop stop-color="#F19A84"/>
<stop offset="1" stop-color="#F7C4AF"/>
</radialGradient>
<linearGradient id="paint24_linear_34_176" x1="250.213" y1="180.692" x2="250.213" y2="172.165" gradientUnits="userSpaceOnUse">
<stop stop-color="#5C201F"/>
<stop offset="1" stop-color="#2F1514"/>
</linearGradient>
<linearGradient id="paint25_linear_34_176" x1="250.213" y1="180.124" x2="250.213" y2="173.748" gradientUnits="userSpaceOnUse">
<stop stop-color="#A7D6C8"/>
<stop offset="0.99" stop-color="#734342"/>
</linearGradient>
<linearGradient id="paint26_linear_34_176" x1="199.528" y1="33.3053" x2="201.623" y2="30.7732" gradientUnits="userSpaceOnUse">
<stop stop-color="#F0E2EA"/>
<stop offset="1" stop-color="#F0DEE2"/>
</linearGradient>
<linearGradient id="paint27_linear_34_176" x1="250.375" y1="175.576" x2="251.512" y2="174.238" gradientUnits="userSpaceOnUse">
<stop stop-color="#F0E2EA"/>
<stop offset="1" stop-color="#F4FAFA"/>
</linearGradient>
<linearGradient id="paint28_linear_34_176" x1="222.252" y1="181.301" x2="222.252" y2="172.774" gradientUnits="userSpaceOnUse">
<stop stop-color="#5C201F"/>
<stop offset="1" stop-color="#2F1514"/>
</linearGradient>
<linearGradient id="paint29_linear_34_176" x1="222.252" y1="180.773" x2="222.252" y2="174.357" gradientUnits="userSpaceOnUse">
<stop stop-color="#A7D6C8"/>
<stop offset="0.99" stop-color="#734342"/>
</linearGradient>
<linearGradient id="paint30_linear_34_176" x1="225.162" y1="180.786" x2="223.028" y2="178.222" gradientUnits="userSpaceOnUse">
<stop stop-color="#F0E2EA"/>
<stop offset="1" stop-color="#F0DEE2"/>
</linearGradient>
<linearGradient id="paint31_linear_34_176" x1="222.09" y1="176.185" x2="220.993" y2="174.847" gradientUnits="userSpaceOnUse">
<stop stop-color="#F0E2EA"/>
<stop offset="1" stop-color="#F4FAFA"/>
</linearGradient>
<radialGradient id="paint32_radial_34_176" cx="0" cy="0" r="1" gradientUnits="userSpaceOnUse" gradientTransform="translate(185.573 154.255) rotate(-25.4264) scale(3.41827 8.06017)">
<stop stop-color="#F19A84"/>
<stop offset="1" stop-color="#F7C4AF"/>
</radialGradient>
<radialGradient id="paint33_radial_34_176" cx="0" cy="0" r="1" gradientUnits="userSpaceOnUse" gradientTransform="translate(256.724 183.656) rotate(13.3068) scale(3.41733 8.06234)">
<stop stop-color="#F19A84"/>
<stop offset="1" stop-color="#F7C4AF"/>
</radialGradient>
<radialGradient id="paint34_radial_34_176" cx="0" cy="0" r="1" gradientUnits="userSpaceOnUse" gradientTransform="translate(239.162 199.896) rotate(-1.61693) scale(3.77061 3.24676)">
<stop stop-color="#F19A84"/>
<stop offset="0.48" stop-color="#F4B09A"/>
<stop offset="1" stop-color="#F7C4AF"/>
</radialGradient>
</defs>
</svg>
