<svg width="171" height="92" viewBox="0 0 171 92" fill="none" xmlns="http://www.w3.org/2000/svg">
<g clip-path="url(#clip0_28_39)">
<path d="M12.1356 44.3752H11.896H11.7234C10.8815 44.2374 10.0203 44.2732 9.1928 44.4803H9.1257C9.00108 45.2163 8.84772 45.6559 8.65601 45.6942C9.96336 45.3101 11.3497 45.2805 12.6724 45.6081C12.377 45.258 12.1904 44.8295 12.1356 44.3752ZM10.7649 22.3931L9.80628 22.4695C9.66249 27.5923 9.80628 39.759 9.15445 44.0789C10.1053 43.9251 11.0725 43.8993 12.0302 44.0025C11.1099 39.8545 10.7169 28.4812 10.7649 22.4313V22.3931Z" fill="#044332"/>
<path d="M91.3711 13.1128C93.48 10.972 94.2469 11.0866 94.6207 11.4498C94.9945 11.813 94.6974 13.1033 93.1349 14.5751C91.6094 16.013 89.8857 17.2263 88.0161 18.1783C88.771 16.2766 89.9134 14.5518 91.3711 13.1128Z" fill="#044332"/>
<path d="M36.7135 26.694L36.3588 26.3021C36.3244 26.2659 36.2819 26.2383 36.2348 26.2217C36.1876 26.205 36.1372 26.1997 36.0876 26.2062C36.0381 26.2128 35.9907 26.2309 35.9496 26.2592C35.9084 26.2875 35.8745 26.3251 35.8507 26.369C34.5426 29.0639 33.7649 31.9838 33.5597 34.9707C33.553 34.9921 33.5397 35.0108 33.5216 35.0241C33.5035 35.0373 33.4816 35.0445 33.4591 35.0445C33.4366 35.0445 33.4147 35.0373 33.3966 35.0241C33.3785 35.0108 33.3651 34.9921 33.3584 34.9707C33.344 30.8721 33.8792 26.79 34.9497 22.8327C34.9632 22.7869 34.9657 22.7386 34.9571 22.6916C34.9484 22.6447 34.9289 22.6004 34.9 22.5623C34.8711 22.5242 34.8337 22.4934 34.7907 22.4723C34.7477 22.4512 34.7004 22.4404 34.6525 22.4409H25.3352C25.2871 22.4409 25.2397 22.4519 25.1965 22.4729C25.1533 22.4939 25.1155 22.5245 25.086 22.5622C25.0564 22.6 25.0359 22.644 25.0259 22.6909C25.0159 22.7377 25.0168 22.7863 25.0284 22.8327C27.2044 31.8359 27.214 36.8344 25.1051 45.8566C25.0932 45.9026 25.0922 45.9508 25.1021 45.9972C25.1121 46.0437 25.1328 46.0872 25.1626 46.1243C25.1923 46.1614 25.2304 46.1911 25.2736 46.211C25.3169 46.2309 25.3642 46.2405 25.4119 46.239H34.7196C34.7677 46.2389 34.8151 46.228 34.8583 46.207C34.9014 46.1859 34.9393 46.1554 34.9688 46.1176C34.9984 46.0798 35.019 46.0358 35.0289 45.989C35.0389 45.9421 35.038 45.8936 35.0264 45.8471C34.9401 45.5221 34.8634 45.1972 34.7771 44.8913C33.5981 38.4592 34.7771 30.6985 36.771 27.1145C36.8178 27.0506 36.838 26.9711 36.8273 26.8926C36.8166 26.8142 36.7758 26.743 36.7135 26.694ZM49.4433 12.2431H55.3194C54.5431 10.2407 53.3167 8.44238 51.7343 6.98651C48.864 4.18664 45.0138 2.60996 40.9983 2.59008C27.1181 2.66654 21.2133 19.5354 11.7905 18.6848C11.6098 19.2167 11.4625 19.7594 11.3496 20.3096C12.1421 20.4351 12.9436 20.4958 13.746 20.4912C22.9388 20.4912 30.8757 11.9659 41.2954 11.9373C44.1249 11.8663 46.8963 12.7448 49.1653 14.4318C49.079 13.9539 48.9736 13.476 48.8682 13.0268C48.8448 12.9326 48.8439 12.8343 48.8656 12.7397C48.8872 12.6451 48.9308 12.5568 48.9928 12.482C49.0483 12.4145 49.1167 12.3585 49.194 12.3175C49.2714 12.2765 49.3561 12.2512 49.4433 12.2431ZM16.2 4.13838C15.2225 2.35635 13.5794 1.03069 11.6276 0.449217C10.6423 0.169882 9.62285 0.028351 8.59849 0.0286871C-1.74452 0.0286871 -1.62952 16.974 9.89254 20.042C9.97882 19.4399 10.1034 18.6944 10.1609 18.4076C8.95015 18.0525 7.89327 17.3039 7.15852 16.2807C6.42378 15.2576 6.0534 14.0188 6.10631 12.7615C6.15922 11.5043 6.63238 10.3008 7.4505 9.34262C8.26863 8.38445 9.38469 7.72667 10.6211 7.47395C11.7785 7.23784 12.972 7.23784 14.1295 7.47395C14.9347 7.60775 15.7878 7.61731 16.6984 7.7989C16.7436 7.80871 16.7904 7.80852 16.8355 7.79834C16.8806 7.78817 16.923 7.76826 16.9595 7.74001C16.9961 7.71176 17.026 7.67585 17.0471 7.63483C17.0683 7.59381 17.0801 7.5487 17.0818 7.50262C17.1083 6.32116 16.8028 5.15585 16.2 4.13838ZM11.4071 18.6561C11.0409 18.6106 10.6788 18.5371 10.3239 18.4363C10.2472 18.8377 10.1322 19.5354 10.0555 20.0707C10.371 20.1554 10.6911 20.2224 11.0141 20.2714C11.1237 19.7276 11.2678 19.1913 11.4455 18.6657L11.4071 18.6561ZM50.354 26.7417C49.381 27.3553 48.2556 27.6863 47.1044 27.6975C45.5567 27.6801 44.068 27.1027 42.9154 26.0727C42.2465 25.4951 41.7893 24.7121 41.6157 23.847C41.4422 22.9818 41.5622 22.0837 41.9569 21.294C42.2295 20.6629 42.6702 20.1181 43.2312 19.7188C43.7922 19.3196 44.4521 19.081 45.1393 19.0289C45.648 19.0518 46.1414 19.209 46.5692 19.4844C46.997 19.7598 47.3438 20.1435 47.5741 20.5963C48.686 22.5078 47.4303 23.8841 46.4238 23.8841C45.9254 23.8841 45.4652 23.5113 45.4652 22.6225C45.4712 22.3445 45.545 22.0721 45.6803 21.829C45.8156 21.5858 46.0083 21.3793 46.2417 21.2271C46.2852 21.1983 46.3209 21.1593 46.3456 21.1134C46.3702 21.0675 46.3831 21.0163 46.3831 20.9643C46.3831 20.9122 46.3702 20.861 46.3456 20.8151C46.3209 20.7693 46.2852 20.7302 46.2417 20.7015C45.9264 20.5323 45.574 20.4436 45.216 20.4434C44.7104 20.4677 44.2257 20.6523 43.8326 20.9703C43.4395 21.2883 43.1585 21.7232 43.0305 22.2115C42.9363 22.6261 42.9341 23.0562 43.0242 23.4716C43.1143 23.8871 43.2944 24.2779 43.552 24.6166C43.8095 24.9553 44.1382 25.2338 44.5151 25.4325C44.892 25.6312 45.3079 25.7453 45.7336 25.7669C48.1492 25.7669 49.4912 22.4218 48.2067 20.2809C47.7387 19.5086 47.0608 18.8842 46.2517 18.4799C45.4425 18.0757 44.5351 17.9081 43.6344 17.9967C35.4769 18.1305 34.0486 29.1407 43.9794 29.1884C46.2187 29.2364 48.4351 28.7308 50.4306 27.7166C50.3923 27.3821 50.3923 27.0571 50.3827 26.7417H50.354ZM55.4056 12.5107H49.4146C49.361 12.51 49.308 12.5217 49.2597 12.5449C49.2115 12.5681 49.1693 12.6022 49.1366 12.6445C49.102 12.6847 49.0779 12.7327 49.0662 12.7844C49.0545 12.836 49.0556 12.8897 49.0695 12.9408C49.1941 13.5047 49.3091 14.0781 49.4242 14.6802C50.172 15.3013 50.8415 16.0106 51.418 16.7925C52.1119 17.6887 52.601 18.7253 52.851 19.8298C53.101 20.9342 53.106 22.0798 52.8654 23.1864C52.567 24.5433 51.7659 25.7379 50.6224 26.5315C50.6224 26.866 50.6224 27.1909 50.6224 27.4872C55.8945 24.5913 57.4953 18.0923 55.4344 12.5107H55.4056Z" fill="#044332"/>
<path d="M71.8356 38.1055C71.9741 36.0376 72.3734 33.9953 73.0242 32.027C73.4643 30.6978 73.7663 29.3271 73.9252 27.9364C73.4379 26.2582 72.6803 24.6701 71.6822 23.2342C71.6376 23.1659 71.6139 23.0862 71.6139 23.0048C71.6139 22.9234 71.6376 22.8436 71.6822 22.7754C70.4393 22.0597 68.9869 21.793 67.5699 22.0203C63.7356 22.5651 59.2399 25.8433 57.8883 33.4893C57.8786 33.5721 57.8374 33.648 57.7732 33.7014C57.709 33.7548 57.6266 33.7815 57.5432 33.776C57.4575 33.7736 57.376 33.7386 57.3154 33.6782C57.2548 33.6177 57.2197 33.5365 57.2173 33.4511C57.0492 29.8455 57.0876 26.2333 57.3323 22.632C57.5335 19.3756 57.9821 16.1391 58.6743 12.9503C58.6833 12.8984 58.6811 12.8451 58.6679 12.794C58.6547 12.7429 58.6307 12.6952 58.5976 12.6541C58.5644 12.6123 58.5221 12.5786 58.474 12.5554C58.4259 12.5322 58.3731 12.5202 58.3197 12.5203H55.4439H49.4528C49.3993 12.5195 49.3463 12.5312 49.298 12.5545C49.2498 12.5777 49.2076 12.6118 49.1749 12.6541C49.1403 12.6943 49.1161 12.7423 49.1044 12.7939C49.0927 12.8455 49.0939 12.8992 49.1077 12.9503C49.2324 13.5142 49.3474 14.0877 49.4624 14.6898C50.1665 18.6037 50.5671 22.5658 50.6606 26.541C50.6606 26.8755 50.6606 27.2005 50.6606 27.4968C50.8646 33.6626 50.3662 39.8316 49.1749 45.8853C49.1659 45.9351 49.1673 45.9863 49.1788 46.0356C49.1903 46.0849 49.2118 46.1313 49.242 46.172C49.2737 46.2161 49.3154 46.252 49.3637 46.2769C49.412 46.3019 49.4656 46.315 49.52 46.3154H58.4347C58.4851 46.317 58.5353 46.3076 58.5816 46.2877C58.628 46.2679 58.6695 46.2382 58.7031 46.2007C58.7365 46.1616 58.7607 46.1156 58.774 46.066C58.7873 46.0164 58.7892 45.9644 58.7798 45.914C58.4268 43.5572 58.2601 41.1765 58.2813 38.7937C58.2968 36.8691 58.4861 34.9499 58.8469 33.0592C59.2575 30.4879 60.2942 28.0562 61.8664 25.9771C62.1522 25.5749 62.5188 25.2364 62.9429 24.983C63.367 24.7296 63.8394 24.5669 64.3299 24.5053C65.2885 24.5053 65.9691 25.2699 66.1704 26.6079C66.5251 28.9304 65.8061 32.0461 65.0488 35.3434C64.1861 39.1664 63.2755 43.085 64.004 46.0095C64.0217 46.087 64.0657 46.156 64.1286 46.2048C64.1915 46.2536 64.2694 46.2791 64.3491 46.2771H73.2734C73.3339 46.2778 73.3934 46.2622 73.4457 46.2319C73.4981 46.2017 73.5412 46.1578 73.5706 46.1051C73.6009 46.0528 73.6168 45.9935 73.6168 45.9331C73.6168 45.8727 73.6009 45.8134 73.5706 45.7611C72.348 43.3981 71.7508 40.763 71.8356 38.1055Z" fill="#044332"/>
<path d="M96.5955 45.9044C94.525 36.9587 94.5058 31.9697 96.5284 22.9666C96.5412 22.9146 96.5423 22.8604 96.5316 22.808C96.521 22.7555 96.4988 22.7061 96.4668 22.6632C96.4347 22.6203 96.3936 22.5849 96.3462 22.5597C96.2989 22.5345 96.2465 22.5201 96.1929 22.5174H87.4699C87.4187 22.5192 87.3685 22.532 87.3228 22.555C87.2771 22.5781 87.2369 22.6107 87.205 22.6506C87.1732 22.6906 87.1503 22.737 87.1381 22.7865C87.1259 22.8361 87.1247 22.8878 87.1344 22.9379C89.6267 39.09 85.7828 44.3848 82.9646 44.3944C81.8047 44.3944 80.0889 42.9129 79.8876 41.2595C79.1207 36.2514 82.6387 28.2805 81.2775 22.8041C81.2586 22.729 81.2156 22.6622 81.155 22.6138C81.0944 22.5655 81.0196 22.5383 80.942 22.5365H72.1998C72.1588 22.5267 72.1162 22.5267 72.0752 22.5365C72.0292 22.5533 71.9892 22.5832 71.9601 22.6225C71.9236 22.6481 71.8966 22.6851 71.8835 22.7276C71.8556 22.7738 71.8408 22.8267 71.8408 22.8806C71.8408 22.9344 71.8556 22.9873 71.8835 23.0335C72.8052 24.3725 73.5284 25.8372 74.0307 27.3821C74.0786 27.5159 74.1169 27.6497 74.1553 27.7931C74.1936 27.9364 74.2224 28.0416 74.2607 28.1658C75.9287 34.7413 71.9602 39.4914 74.0499 44.0216C74.74 46.0478 77.3378 46.8219 79.3699 46.755C82.3032 46.6595 84.7859 46.0574 87.7383 41.5749C87.8533 41.4029 88.0834 41.4794 88.045 41.6705C87.8245 42.9799 87.5562 44.3466 87.2207 45.8089C87.2077 45.8616 87.2069 45.9165 87.2181 45.9697C87.2292 46.0228 87.2522 46.0727 87.2853 46.1158C87.3184 46.1589 87.3608 46.1941 87.4093 46.2187C87.4579 46.2433 87.5113 46.2568 87.5657 46.2581H96.2408C96.3341 46.2556 96.4229 46.2176 96.4889 46.1518C96.5549 46.086 96.5931 45.9975 96.5955 45.9044Z" fill="#044332"/>
<path d="M135.974 15.9132C135.974 15.9132 133.232 18.0158 134.056 19.1149C134.756 20.0707 136.079 19.3634 136.827 18.4076C137.101 17.9276 137.478 17.5145 137.933 17.1987C138.387 16.8829 138.907 16.6723 139.453 16.5822C140.258 16.5822 141.236 16.8498 142.77 18.7995C142.781 18.8173 142.799 18.8302 142.82 18.8357C142.84 18.8413 142.862 18.8391 142.881 18.8297C142.9 18.8202 142.915 18.8041 142.922 18.7844C142.93 18.7648 142.931 18.7429 142.923 18.7231C142.578 17.7673 141.629 15.4926 140.048 15.0625C139.347 14.9107 138.622 14.908 137.92 15.0546C137.218 15.2012 136.554 15.4937 135.974 15.9132Z" fill="#044332"/>
<path d="M131.248 45.264C131.19 45.1398 131.123 45.0156 131.075 44.9009C130.532 44.4754 130.034 43.9949 129.59 43.4672C128.6 42.2717 127.855 40.8952 127.394 39.4149C126.882 37.7882 126.623 36.0927 126.628 34.3877C126.616 32.685 126.861 30.9902 127.356 29.3605C127.423 29.1406 127.5 28.9208 127.577 28.7105C127.445 27.4306 127.165 26.1701 126.743 24.9545C126.432 23.9934 125.818 23.1584 124.992 22.5744C124.166 21.9903 123.173 21.6887 122.161 21.7145C118.508 21.7145 113.926 25.3081 112.45 32.8203C112.439 32.879 112.407 32.9319 112.361 32.97C112.314 33.0081 112.256 33.0289 112.196 33.0289C112.136 33.0289 112.078 33.0081 112.032 32.97C111.985 32.9319 111.954 32.879 111.942 32.8203C111.617 26.2023 112.093 19.5693 113.361 13.065C113.382 12.9643 113.381 12.86 113.357 12.7599C113.332 12.6597 113.286 12.5663 113.221 12.4865C113.155 12.4067 113.073 12.3426 112.979 12.2988C112.886 12.255 112.784 12.2327 112.68 12.2335H104.312C104.208 12.2341 104.106 12.2578 104.012 12.3027C103.919 12.3476 103.837 12.4126 103.772 12.4931C103.706 12.5736 103.66 12.6675 103.636 12.7681C103.612 12.8687 103.61 12.9733 103.631 13.0746C105.673 22.2306 105.721 36.347 103.737 45.5126C103.713 45.6135 103.713 45.7184 103.737 45.8194C103.76 45.9203 103.807 46.0145 103.873 46.0947C103.938 46.175 104.022 46.2392 104.116 46.2824C104.21 46.3256 104.314 46.3467 104.417 46.344H112.853C112.952 46.3434 113.049 46.322 113.139 46.2811C113.229 46.2402 113.309 46.1808 113.374 46.1067C113.44 46.0327 113.488 45.9457 113.517 45.8515C113.547 45.7574 113.555 45.6581 113.543 45.5603C111.559 31.6638 116.256 24.5339 118.969 24.5339C119.822 24.5339 120.474 25.1838 120.675 26.5314C121.432 31.4535 117.234 40.2751 118.48 45.7706C118.514 45.9223 118.6 46.0578 118.721 46.155C118.843 46.2522 118.995 46.3054 119.151 46.3058H130.654C130.775 46.3033 130.893 46.2696 130.997 46.2077C131.101 46.1459 131.188 46.0582 131.247 45.9532C131.307 45.8482 131.339 45.7295 131.339 45.6087C131.339 45.4879 131.308 45.3691 131.248 45.264Z" fill="#044332"/>
<path d="M138.265 49.5267C138.009 49.5266 137.756 49.5776 137.52 49.6766C137.284 49.7757 137.071 49.9208 136.892 50.1033C136.713 50.2859 136.573 50.5023 136.48 50.7398C136.386 50.9773 136.341 51.231 136.348 51.486C136.348 51.9929 136.55 52.4791 136.909 52.8376C137.269 53.1961 137.756 53.3975 138.265 53.3975C138.773 53.3975 139.261 53.1961 139.62 52.8376C139.98 52.4791 140.182 51.9929 140.182 51.486C140.188 51.231 140.144 50.9773 140.05 50.7398C139.957 50.5023 139.816 50.2859 139.638 50.1033C139.459 49.9208 139.246 49.7757 139.01 49.6766C138.774 49.5776 138.521 49.5266 138.265 49.5267ZM138.15 21.7432C135.852 21.6466 133.588 22.3104 131.708 23.6312C129.829 24.9519 128.44 26.8554 127.759 29.0451C127.174 30.7649 126.888 32.5719 126.915 34.3877C126.915 38.6503 128.363 42.3491 131.085 44.6046C133.095 46.2406 135.633 47.0931 138.226 47.0035C145.531 47.0035 149.557 41.4411 149.528 34.3112C149.499 27.1814 145.483 21.7145 138.15 21.7432ZM140.067 23.1959C144.984 22.6034 142.128 44.92 136.472 45.5795C130.817 46.239 134.114 23.9032 140.115 23.1959H140.067Z" fill="#044332"/>
<path d="M141.649 23.8267C141.487 23.5695 141.255 23.3636 140.98 23.2332C140.705 23.1029 140.398 23.0535 140.096 23.0908C139.128 23.2652 138.261 23.7977 137.671 24.5817C136.864 25.5753 136.217 26.6876 135.753 27.879C134.518 30.9303 133.768 34.1548 133.529 37.4365C133.4 38.9067 133.422 40.3864 133.597 41.852C133.687 42.9446 134.046 43.9982 134.641 44.92C134.823 45.1929 135.069 45.4168 135.359 45.5719C135.648 45.7269 135.971 45.8083 136.3 45.8088H136.568C137.987 45.6368 139.329 44.1745 140.45 41.5558C141.717 38.3861 142.48 35.0391 142.713 31.6351C142.962 27.8695 142.607 25.0309 141.649 23.8267ZM142.406 31.5587C142.175 34.9362 141.418 38.2574 140.163 41.4029C139.743 42.4648 139.153 43.4523 138.418 44.3274C137.944 44.936 137.261 45.3479 136.501 45.4839C136.178 45.5277 135.848 45.4792 135.551 45.3438C135.254 45.2085 135.002 44.9919 134.824 44.7193C133.865 43.4864 133.51 40.8294 133.769 37.427C134.01 34.1846 134.754 30.9992 135.974 27.9842C136.44 26.8202 137.087 25.7365 137.891 24.7729C138.436 24.0363 139.241 23.534 140.144 23.3679H140.307C140.532 23.3744 140.753 23.4351 140.95 23.5449C141.147 23.6548 141.314 23.8104 141.438 23.9987C141.993 24.9048 142.322 25.9309 142.396 26.9902C142.538 28.4969 142.541 30.0132 142.406 31.5204V31.5587ZM141.649 23.8267C141.487 23.5695 141.255 23.3636 140.98 23.2332C140.705 23.1029 140.398 23.0535 140.096 23.0908C139.128 23.2652 138.261 23.7977 137.671 24.5817C136.864 25.5753 136.217 26.6876 135.753 27.879C134.518 30.9303 133.768 34.1548 133.529 37.4365C133.4 38.9067 133.422 40.3864 133.597 41.852C133.687 42.9446 134.046 43.9982 134.641 44.92C134.823 45.1929 135.069 45.4168 135.359 45.5719C135.648 45.7269 135.971 45.8083 136.3 45.8088H136.568C137.987 45.6368 139.329 44.1745 140.45 41.5558C141.717 38.3861 142.48 35.0391 142.713 31.6351C142.962 27.8695 142.607 25.0309 141.649 23.8267ZM142.406 31.5587C142.175 34.9362 141.418 38.2574 140.163 41.4029C139.743 42.4648 139.153 43.4523 138.418 44.3274C137.944 44.936 137.261 45.3479 136.501 45.4839C136.178 45.5277 135.848 45.4792 135.551 45.3438C135.254 45.2085 135.002 44.9919 134.824 44.7193C133.865 43.4864 133.51 40.8294 133.769 37.427C134.01 34.1846 134.754 30.9992 135.974 27.9842C136.44 26.8202 137.087 25.7365 137.891 24.7729C138.436 24.0363 139.241 23.534 140.144 23.3679H140.307C140.532 23.3744 140.753 23.4351 140.95 23.5449C141.147 23.6548 141.314 23.8104 141.438 23.9987C141.993 24.9048 142.322 25.9309 142.396 26.9902C142.538 28.4969 142.541 30.0132 142.406 31.5204V31.5587ZM141.649 23.8267C141.487 23.5695 141.255 23.3636 140.98 23.2332C140.705 23.1029 140.398 23.0535 140.096 23.0908C139.128 23.2652 138.261 23.7977 137.671 24.5817C136.864 25.5753 136.217 26.6876 135.753 27.879C134.518 30.9303 133.768 34.1548 133.529 37.4365C133.4 38.9067 133.422 40.3864 133.597 41.852C133.687 42.9446 134.046 43.9982 134.641 44.92C134.823 45.1929 135.069 45.4168 135.359 45.5719C135.648 45.7269 135.971 45.8083 136.3 45.8088H136.568C137.987 45.6368 139.329 44.1745 140.45 41.5558C141.717 38.3861 142.48 35.0391 142.713 31.6351C142.962 27.8695 142.607 25.0309 141.649 23.8267ZM142.406 31.5587C142.175 34.9362 141.418 38.2574 140.163 41.4029C139.743 42.4648 139.153 43.4523 138.418 44.3274C137.944 44.936 137.261 45.3479 136.501 45.4839C136.178 45.5277 135.848 45.4792 135.551 45.3438C135.254 45.2085 135.002 44.9919 134.824 44.7193C133.865 43.4864 133.51 40.8294 133.769 37.427C134.01 34.1846 134.754 30.9992 135.974 27.9842C136.44 26.8202 137.087 25.7365 137.891 24.7729C138.436 24.0363 139.241 23.534 140.144 23.3679H140.307C140.532 23.3744 140.753 23.4351 140.95 23.5449C141.147 23.6548 141.314 23.8104 141.438 23.9987C141.993 24.9048 142.322 25.9309 142.396 26.9902C142.538 28.4969 142.541 30.0132 142.406 31.5204V31.5587ZM141.649 23.8267C141.487 23.5695 141.255 23.3636 140.98 23.2332C140.705 23.1029 140.398 23.0535 140.096 23.0908C139.128 23.2652 138.261 23.7977 137.671 24.5817C136.864 25.5753 136.217 26.6876 135.753 27.879C134.518 30.9303 133.768 34.1548 133.529 37.4365C133.4 38.9067 133.422 40.3864 133.597 41.852C133.687 42.9446 134.046 43.9982 134.641 44.92C134.823 45.1929 135.069 45.4168 135.359 45.5719C135.648 45.7269 135.971 45.8083 136.3 45.8088H136.568C137.987 45.6368 139.329 44.1745 140.45 41.5558C141.717 38.3861 142.48 35.0391 142.713 31.6351C142.962 27.8695 142.607 25.0309 141.649 23.8267ZM142.406 31.5587C142.175 34.9362 141.418 38.2574 140.163 41.4029C139.743 42.4648 139.153 43.4523 138.418 44.3274C137.944 44.936 137.261 45.3479 136.501 45.4839C136.178 45.5277 135.848 45.4792 135.551 45.3438C135.254 45.2085 135.002 44.9919 134.824 44.7193C133.865 43.4864 133.51 40.8294 133.769 37.427C134.01 34.1846 134.754 30.9992 135.974 27.9842C136.44 26.8202 137.087 25.7365 137.891 24.7729C138.436 24.0363 139.241 23.534 140.144 23.3679H140.307C140.532 23.3744 140.753 23.4351 140.95 23.5449C141.147 23.6548 141.314 23.8104 141.438 23.9987C141.993 24.9048 142.322 25.9309 142.396 26.9902C142.538 28.4969 142.541 30.0132 142.406 31.5204V31.5587ZM141.649 23.8267C141.487 23.5695 141.255 23.3636 140.98 23.2332C140.705 23.1029 140.398 23.0535 140.096 23.0908C139.128 23.2652 138.261 23.7977 137.671 24.5817C136.864 25.5753 136.217 26.6876 135.753 27.879C134.518 30.9303 133.768 34.1548 133.529 37.4365C133.4 38.9067 133.422 40.3864 133.597 41.852C133.687 42.9446 134.046 43.9982 134.641 44.92C134.823 45.1929 135.069 45.4168 135.359 45.5719C135.648 45.7269 135.971 45.8083 136.3 45.8088H136.568C137.987 45.6368 139.329 44.1745 140.45 41.5558C141.717 38.3861 142.48 35.0391 142.713 31.6351C142.962 27.8695 142.607 25.0309 141.649 23.8267ZM142.406 31.5587C142.175 34.9362 141.418 38.2574 140.163 41.4029C139.743 42.4648 139.153 43.4523 138.418 44.3274C137.944 44.936 137.261 45.3479 136.501 45.4839C136.178 45.5277 135.848 45.4792 135.551 45.3438C135.254 45.2085 135.002 44.9919 134.824 44.7193C133.865 43.4864 133.51 40.8294 133.769 37.427C134.01 34.1846 134.754 30.9992 135.974 27.9842C136.44 26.8202 137.087 25.7365 137.891 24.7729C138.436 24.0363 139.241 23.534 140.144 23.3679H140.307C140.532 23.3744 140.753 23.4351 140.95 23.5449C141.147 23.6548 141.314 23.8104 141.438 23.9987C141.993 24.9048 142.322 25.9309 142.396 26.9902C142.538 28.4969 142.541 30.0132 142.406 31.5204V31.5587ZM141.649 23.8267C141.487 23.5695 141.255 23.3636 140.98 23.2332C140.705 23.1029 140.398 23.0535 140.096 23.0908C139.128 23.2652 138.261 23.7977 137.671 24.5817C136.864 25.5753 136.217 26.6876 135.753 27.879C134.518 30.9303 133.768 34.1548 133.529 37.4365C133.4 38.9067 133.422 40.3864 133.597 41.852C133.687 42.9446 134.046 43.9982 134.641 44.92C134.823 45.1929 135.069 45.4168 135.359 45.5719C135.648 45.7269 135.971 45.8083 136.3 45.8088H136.568C137.987 45.6368 139.329 44.1745 140.45 41.5558C141.717 38.3861 142.48 35.0391 142.713 31.6351C142.962 27.8695 142.607 25.0309 141.649 23.8267ZM142.406 31.5587C142.175 34.9362 141.418 38.2574 140.163 41.4029C139.743 42.4648 139.153 43.4523 138.418 44.3274C137.944 44.936 137.261 45.3479 136.501 45.4839C136.178 45.5277 135.848 45.4792 135.551 45.3438C135.254 45.2085 135.002 44.9919 134.824 44.7193C133.865 43.4864 133.51 40.8294 133.769 37.427C134.01 34.1846 134.754 30.9992 135.974 27.9842C136.44 26.8202 137.087 25.7365 137.891 24.7729C138.436 24.0363 139.241 23.534 140.144 23.3679H140.307C140.532 23.3744 140.753 23.4351 140.95 23.5449C141.147 23.6548 141.314 23.8104 141.438 23.9987C141.993 24.9048 142.322 25.9309 142.396 26.9902C142.538 28.4969 142.541 30.0132 142.406 31.5204V31.5587ZM141.649 23.8267C141.487 23.5695 141.255 23.3636 140.98 23.2332C140.705 23.1029 140.398 23.0535 140.096 23.0908C139.128 23.2652 138.261 23.7977 137.671 24.5817C136.864 25.5753 136.217 26.6876 135.753 27.879C134.518 30.9303 133.768 34.1548 133.529 37.4365C133.4 38.9067 133.422 40.3864 133.597 41.852C133.687 42.9446 134.046 43.9982 134.641 44.92C134.823 45.1929 135.069 45.4168 135.359 45.5719C135.648 45.7269 135.971 45.8083 136.3 45.8088H136.568C137.987 45.6368 139.329 44.1745 140.45 41.5558C141.717 38.3861 142.48 35.0391 142.713 31.6351C142.962 27.8695 142.607 25.0309 141.649 23.8267ZM142.406 31.5587C142.175 34.9362 141.418 38.2574 140.163 41.4029C139.743 42.4648 139.153 43.4523 138.418 44.3274C137.944 44.936 137.261 45.3479 136.501 45.4839C136.178 45.5277 135.848 45.4792 135.551 45.3438C135.254 45.2085 135.002 44.9919 134.824 44.7193C133.865 43.4864 133.51 40.8294 133.769 37.427C134.01 34.1846 134.754 30.9992 135.974 27.9842C136.44 26.8202 137.087 25.7365 137.891 24.7729C138.436 24.0363 139.241 23.534 140.144 23.3679H140.307C140.532 23.3744 140.753 23.4351 140.95 23.5449C141.147 23.6548 141.314 23.8104 141.438 23.9987C141.993 24.9048 142.322 25.9309 142.396 26.9902C142.538 28.4969 142.541 30.0132 142.406 31.5204V31.5587ZM141.649 23.8267C141.487 23.5695 141.255 23.3636 140.98 23.2332C140.705 23.1029 140.398 23.0535 140.096 23.0908C139.128 23.2652 138.261 23.7977 137.671 24.5817C136.864 25.5753 136.217 26.6876 135.753 27.879C134.518 30.9303 133.768 34.1548 133.529 37.4365C133.4 38.9067 133.422 40.3864 133.597 41.852C133.687 42.9446 134.046 43.9982 134.641 44.92C134.823 45.1929 135.069 45.4168 135.359 45.5719C135.648 45.7269 135.971 45.8083 136.3 45.8088H136.568C137.987 45.6368 139.329 44.1745 140.45 41.5558C141.717 38.3861 142.48 35.0391 142.713 31.6351C142.962 27.8695 142.607 25.0309 141.649 23.8267ZM142.406 31.5587C142.175 34.9362 141.418 38.2574 140.163 41.4029C139.743 42.4648 139.153 43.4523 138.418 44.3274C137.944 44.936 137.261 45.3479 136.501 45.4839C136.178 45.5277 135.848 45.4792 135.551 45.3438C135.254 45.2085 135.002 44.9919 134.824 44.7193C133.865 43.4864 133.51 40.8294 133.769 37.427C134.01 34.1846 134.754 30.9992 135.974 27.9842C136.44 26.8202 137.087 25.7365 137.891 24.7729C138.436 24.0363 139.241 23.534 140.144 23.3679H140.307C140.532 23.3744 140.753 23.4351 140.95 23.5449C141.147 23.6548 141.314 23.8104 141.438 23.9987C141.993 24.9048 142.322 25.9309 142.396 26.9902C142.538 28.4969 142.541 30.0132 142.406 31.5204V31.5587ZM141.649 23.8267C141.487 23.5695 141.255 23.3636 140.98 23.2332C140.705 23.1029 140.398 23.0535 140.096 23.0908C139.128 23.2652 138.261 23.7977 137.671 24.5817C136.864 25.5753 136.217 26.6876 135.753 27.879C134.518 30.9303 133.768 34.1548 133.529 37.4365C133.4 38.9067 133.422 40.3864 133.597 41.852C133.687 42.9446 134.046 43.9982 134.641 44.92C134.823 45.1929 135.069 45.4168 135.359 45.5719C135.648 45.7269 135.971 45.8083 136.3 45.8088H136.568C137.987 45.6368 139.329 44.1745 140.45 41.5558C141.717 38.3861 142.48 35.0391 142.713 31.6351C142.962 27.8695 142.607 25.0309 141.649 23.8267ZM142.406 31.5587C142.175 34.9362 141.418 38.2574 140.163 41.4029C139.743 42.4648 139.153 43.4523 138.418 44.3274C137.944 44.936 137.261 45.3479 136.501 45.4839C136.178 45.5277 135.848 45.4792 135.551 45.3438C135.254 45.2085 135.002 44.9919 134.824 44.7193C133.865 43.4864 133.51 40.8294 133.769 37.427C134.01 34.1846 134.754 30.9992 135.974 27.9842C136.44 26.8202 137.087 25.7365 137.891 24.7729C138.436 24.0363 139.241 23.534 140.144 23.3679H140.307C140.532 23.3744 140.753 23.4351 140.95 23.5449C141.147 23.6548 141.314 23.8104 141.438 23.9987C141.993 24.9048 142.322 25.9309 142.396 26.9902C142.538 28.4969 142.541 30.0132 142.406 31.5204V31.5587ZM141.649 23.8267C141.487 23.5695 141.255 23.3636 140.98 23.2332C140.705 23.1029 140.398 23.0535 140.096 23.0908C139.128 23.2652 138.261 23.7977 137.671 24.5817C136.864 25.5753 136.217 26.6876 135.753 27.879C134.518 30.9303 133.768 34.1548 133.529 37.4365C133.4 38.9067 133.422 40.3864 133.597 41.852C133.687 42.9446 134.046 43.9982 134.641 44.92C134.823 45.1929 135.069 45.4168 135.359 45.5719C135.648 45.7269 135.971 45.8083 136.3 45.8088H136.568C137.987 45.6368 139.329 44.1745 140.45 41.5558C141.717 38.3861 142.48 35.0391 142.713 31.6351C142.962 27.8695 142.607 25.0309 141.649 23.8267ZM142.406 31.5587C142.175 34.9362 141.418 38.2574 140.163 41.4029C139.743 42.4648 139.153 43.4523 138.418 44.3274C137.944 44.936 137.261 45.3479 136.501 45.4839C136.178 45.5277 135.848 45.4792 135.551 45.3438C135.254 45.2085 135.002 44.9919 134.824 44.7193C133.865 43.4864 133.51 40.8294 133.769 37.427C134.01 34.1846 134.754 30.9992 135.974 27.9842C136.44 26.8202 137.087 25.7365 137.891 24.7729C138.436 24.0363 139.241 23.534 140.144 23.3679H140.307C140.532 23.3744 140.753 23.4351 140.95 23.5449C141.147 23.6548 141.314 23.8104 141.438 23.9987C141.993 24.9048 142.322 25.9309 142.396 26.9902C142.538 28.4969 142.541 30.0132 142.406 31.5204V31.5587ZM141.649 23.8267C141.487 23.5695 141.255 23.3636 140.98 23.2332C140.705 23.1029 140.398 23.0535 140.096 23.0908C139.128 23.2652 138.261 23.7977 137.671 24.5817C136.864 25.5753 136.217 26.6876 135.753 27.879C134.518 30.9303 133.768 34.1548 133.529 37.4365C133.4 38.9067 133.422 40.3864 133.597 41.852C133.687 42.9446 134.046 43.9982 134.641 44.92C134.823 45.1929 135.069 45.4168 135.359 45.5719C135.648 45.7269 135.971 45.8083 136.3 45.8088H136.568C137.987 45.6368 139.329 44.1745 140.45 41.5558C141.717 38.3861 142.48 35.0391 142.713 31.6351C142.962 27.8695 142.607 25.0309 141.649 23.8267ZM142.406 31.5587C142.175 34.9362 141.418 38.2574 140.163 41.4029C139.743 42.4648 139.153 43.4523 138.418 44.3274C137.944 44.936 137.261 45.3479 136.501 45.4839C136.178 45.5277 135.848 45.4792 135.551 45.3438C135.254 45.2085 135.002 44.9919 134.824 44.7193C133.865 43.4864 133.51 40.8294 133.769 37.427C134.01 34.1846 134.754 30.9992 135.974 27.9842C136.44 26.8202 137.087 25.7365 137.891 24.7729C138.436 24.0363 139.241 23.534 140.144 23.3679H140.307C140.532 23.3744 140.753 23.4351 140.95 23.5449C141.147 23.6548 141.314 23.8104 141.438 23.9987C141.993 24.9048 142.322 25.9309 142.396 26.9902C142.538 28.4969 142.541 30.0132 142.406 31.5204V31.5587ZM141.649 23.8267C141.487 23.5695 141.255 23.3636 140.98 23.2332C140.705 23.1029 140.398 23.0535 140.096 23.0908C139.128 23.2652 138.261 23.7977 137.671 24.5817C136.864 25.5753 136.217 26.6876 135.753 27.879C134.518 30.9303 133.768 34.1548 133.529 37.4365C133.4 38.9067 133.422 40.3864 133.597 41.852C133.687 42.9446 134.046 43.9982 134.641 44.92C134.823 45.1929 135.069 45.4168 135.359 45.5719C135.648 45.7269 135.971 45.8083 136.3 45.8088H136.568C137.987 45.6368 139.329 44.1745 140.45 41.5558C141.717 38.3861 142.48 35.0391 142.713 31.6351C142.962 27.8695 142.607 25.0309 141.649 23.8267ZM142.406 31.5587C142.175 34.9362 141.418 38.2574 140.163 41.4029C139.743 42.4648 139.153 43.4523 138.418 44.3274C137.944 44.936 137.261 45.3479 136.501 45.4839C136.178 45.5277 135.848 45.4792 135.551 45.3438C135.254 45.2085 135.002 44.9919 134.824 44.7193C133.865 43.4864 133.51 40.8294 133.769 37.427C134.01 34.1846 134.754 30.9992 135.974 27.9842C136.44 26.8202 137.087 25.7365 137.891 24.7729C138.436 24.0363 139.241 23.534 140.144 23.3679H140.307C140.532 23.3744 140.753 23.4351 140.95 23.5449C141.147 23.6548 141.314 23.8104 141.438 23.9987C141.993 24.9048 142.322 25.9309 142.396 26.9902C142.538 28.4969 142.541 30.0132 142.406 31.5204V31.5587ZM141.649 23.8267C141.487 23.5695 141.255 23.3636 140.98 23.2332C140.705 23.1029 140.398 23.0535 140.096 23.0908C139.128 23.2652 138.261 23.7977 137.671 24.5817C136.864 25.5753 136.217 26.6876 135.753 27.879C134.518 30.9303 133.768 34.1548 133.529 37.4365C133.4 38.9067 133.422 40.3864 133.597 41.852C133.687 42.9446 134.046 43.9982 134.641 44.92C134.823 45.1929 135.069 45.4168 135.359 45.5719C135.648 45.7269 135.971 45.8083 136.3 45.8088H136.568C137.987 45.6368 139.329 44.1745 140.45 41.5558C141.717 38.3861 142.48 35.0391 142.713 31.6351C142.962 27.8695 142.607 25.0309 141.649 23.8267ZM142.406 31.5587C142.175 34.9362 141.418 38.2574 140.163 41.4029C139.743 42.4648 139.153 43.4523 138.418 44.3274C137.944 44.936 137.261 45.3479 136.501 45.4839C136.178 45.5277 135.848 45.4792 135.551 45.3438C135.254 45.2085 135.002 44.9919 134.824 44.7193C133.865 43.4864 133.51 40.8294 133.769 37.427C134.01 34.1846 134.754 30.9992 135.974 27.9842C136.44 26.8202 137.087 25.7365 137.891 24.7729C138.436 24.0363 139.241 23.534 140.144 23.3679H140.307C140.532 23.3744 140.753 23.4351 140.95 23.5449C141.147 23.6548 141.314 23.8104 141.438 23.9987C141.993 24.9048 142.322 25.9309 142.396 26.9902C142.538 28.4969 142.541 30.0132 142.406 31.5204V31.5587ZM141.649 23.8267C141.487 23.5695 141.255 23.3636 140.98 23.2332C140.705 23.1029 140.398 23.0535 140.096 23.0908C139.128 23.2652 138.261 23.7977 137.671 24.5817C136.864 25.5753 136.217 26.6876 135.753 27.879C134.518 30.9303 133.768 34.1548 133.529 37.4365C133.4 38.9067 133.422 40.3864 133.597 41.852C133.687 42.9446 134.046 43.9982 134.641 44.92C134.823 45.1929 135.069 45.4168 135.359 45.5719C135.648 45.7269 135.971 45.8083 136.3 45.8088H136.568C137.987 45.6368 139.329 44.1745 140.45 41.5558C141.717 38.3861 142.48 35.0391 142.713 31.6351C142.962 27.8695 142.607 25.0309 141.649 23.8267ZM142.406 31.5587C142.175 34.9362 141.418 38.2574 140.163 41.4029C139.743 42.4648 139.153 43.4523 138.418 44.3274C137.944 44.936 137.261 45.3479 136.501 45.4839C136.178 45.5277 135.848 45.4792 135.551 45.3438C135.254 45.2085 135.002 44.9919 134.824 44.7193C133.865 43.4864 133.51 40.8294 133.769 37.427C134.01 34.1846 134.754 30.9992 135.974 27.9842C136.44 26.8202 137.087 25.7365 137.891 24.7729C138.436 24.0363 139.241 23.534 140.144 23.3679H140.307C140.532 23.3744 140.753 23.4351 140.95 23.5449C141.147 23.6548 141.314 23.8104 141.438 23.9987C141.993 24.9048 142.322 25.9309 142.396 26.9902C142.538 28.4969 142.541 30.0132 142.406 31.5204V31.5587ZM138.15 21.7814C135.852 21.6848 133.588 22.3486 131.708 23.6693C129.829 24.9901 128.44 26.8936 127.759 29.0833C127.174 30.8031 126.888 32.6101 126.915 34.4259C126.915 38.6885 128.363 42.3873 131.085 44.6428C133.095 46.2789 135.633 47.1313 138.226 47.0418C145.531 47.0418 149.557 41.4793 149.528 34.3495C149.499 27.2196 145.483 21.7145 138.15 21.7432V21.7814ZM138.226 46.8984C135.559 46.977 132.957 46.0602 130.932 44.3274C128.478 42.1675 127.097 38.7268 127.097 34.4259C127.072 32.7153 127.321 31.0117 127.836 29.3796C128.479 27.1627 129.848 25.224 131.724 23.8715C133.6 22.5191 135.875 21.8305 138.188 21.9152C144.984 21.9152 149.403 26.78 149.423 34.3399C149.442 41.8998 145.023 46.841 138.226 46.8602V46.8984ZM140.096 23.0908C139.128 23.2652 138.261 23.7977 137.671 24.5817C136.864 25.5753 136.217 26.6876 135.753 27.879C134.518 30.9303 133.768 34.1548 133.529 37.4365C133.4 38.9067 133.422 40.3864 133.597 41.852C133.687 42.9446 134.046 43.9982 134.641 44.92C134.823 45.1929 135.069 45.4168 135.359 45.5719C135.648 45.7269 135.971 45.8083 136.3 45.8088H136.568C137.987 45.6368 139.329 44.1745 140.45 41.5558C141.717 38.3861 142.48 35.0391 142.713 31.6351C142.991 27.9555 142.617 25.1169 141.677 23.8745C141.525 23.5965 141.294 23.3699 141.012 23.2236C140.73 23.0772 140.411 23.0177 140.096 23.0525V23.0908ZM142.406 31.5587C142.175 34.9362 141.418 38.2574 140.163 41.4029C139.743 42.4648 139.153 43.4523 138.418 44.3274C137.944 44.936 137.261 45.3479 136.501 45.4839C136.178 45.5277 135.848 45.4792 135.551 45.3438C135.254 45.2085 135.002 44.9919 134.824 44.7193C133.865 43.4864 133.51 40.8294 133.769 37.427C134.01 34.1846 134.754 30.9992 135.974 27.9842C136.44 26.8202 137.087 25.7365 137.891 24.7729C138.436 24.0363 139.241 23.534 140.144 23.3679H140.307C140.532 23.3744 140.753 23.4351 140.95 23.5449C141.147 23.6548 141.314 23.8104 141.438 23.9987C141.993 24.9048 142.322 25.9309 142.396 26.9902C142.538 28.4969 142.541 30.0132 142.406 31.5204V31.5587ZM141.649 23.8267C141.487 23.5695 141.255 23.3636 140.98 23.2332C140.705 23.1029 140.398 23.0535 140.096 23.0908C139.128 23.2652 138.261 23.7977 137.671 24.5817C136.864 25.5753 136.217 26.6876 135.753 27.879C134.518 30.9303 133.768 34.1548 133.529 37.4365C133.4 38.9067 133.422 40.3864 133.597 41.852C133.687 42.9446 134.046 43.9982 134.641 44.92C134.823 45.1929 135.069 45.4168 135.359 45.5719C135.648 45.7269 135.971 45.8083 136.3 45.8088H136.568C137.987 45.6368 139.329 44.1745 140.45 41.5558C141.717 38.3861 142.48 35.0391 142.713 31.6351C142.962 27.8695 142.607 25.0309 141.649 23.8267ZM142.406 31.5587C142.175 34.9362 141.418 38.2574 140.163 41.4029C139.743 42.4648 139.153 43.4523 138.418 44.3274C137.944 44.936 137.261 45.3479 136.501 45.4839C136.178 45.5277 135.848 45.4792 135.551 45.3438C135.254 45.2085 135.002 44.9919 134.824 44.7193C133.865 43.4864 133.51 40.8294 133.769 37.427C134.01 34.1846 134.754 30.9992 135.974 27.9842C136.44 26.8202 137.087 25.7365 137.891 24.7729C138.436 24.0363 139.241 23.534 140.144 23.3679H140.307C140.532 23.3744 140.753 23.4351 140.95 23.5449C141.147 23.6548 141.314 23.8104 141.438 23.9987C141.993 24.9048 142.322 25.9309 142.396 26.9902C142.538 28.4969 142.541 30.0132 142.406 31.5204V31.5587ZM141.649 23.8267C141.487 23.5695 141.255 23.3636 140.98 23.2332C140.705 23.1029 140.398 23.0535 140.096 23.0908C139.128 23.2652 138.261 23.7977 137.671 24.5817C136.864 25.5753 136.217 26.6876 135.753 27.879C134.518 30.9303 133.768 34.1548 133.529 37.4365C133.4 38.9067 133.422 40.3864 133.597 41.852C133.687 42.9446 134.046 43.9982 134.641 44.92C134.823 45.1929 135.069 45.4168 135.359 45.5719C135.648 45.7269 135.971 45.8083 136.3 45.8088H136.568C137.987 45.6368 139.329 44.1745 140.45 41.5558C141.717 38.3861 142.48 35.0391 142.713 31.6351C142.962 27.8695 142.607 25.0309 141.649 23.8267ZM142.406 31.5587C142.175 34.9362 141.418 38.2574 140.163 41.4029C139.743 42.4648 139.153 43.4523 138.418 44.3274C137.944 44.936 137.261 45.3479 136.501 45.4839C136.178 45.5277 135.848 45.4792 135.551 45.3438C135.254 45.2085 135.002 44.9919 134.824 44.7193C133.865 43.4864 133.51 40.8294 133.769 37.427C134.01 34.1846 134.754 30.9992 135.974 27.9842C136.44 26.8202 137.087 25.7365 137.891 24.7729C138.436 24.0363 139.241 23.534 140.144 23.3679H140.307C140.532 23.3744 140.753 23.4351 140.95 23.5449C141.147 23.6548 141.314 23.8104 141.438 23.9987C141.993 24.9048 142.322 25.9309 142.396 26.9902C142.538 28.4969 142.541 30.0132 142.406 31.5204V31.5587ZM141.649 23.8267C141.487 23.5695 141.255 23.3636 140.98 23.2332C140.705 23.1029 140.398 23.0535 140.096 23.0908C139.128 23.2652 138.261 23.7977 137.671 24.5817C136.864 25.5753 136.217 26.6876 135.753 27.879C134.518 30.9303 133.768 34.1548 133.529 37.4365C133.4 38.9067 133.422 40.3864 133.597 41.852C133.687 42.9446 134.046 43.9982 134.641 44.92C134.823 45.1929 135.069 45.4168 135.359 45.5719C135.648 45.7269 135.971 45.8083 136.3 45.8088H136.568C137.987 45.6368 139.329 44.1745 140.45 41.5558C141.717 38.3861 142.48 35.0391 142.713 31.6351C142.962 27.8695 142.607 25.0309 141.649 23.8267ZM142.406 31.5587C142.175 34.9362 141.418 38.2574 140.163 41.4029C139.743 42.4648 139.153 43.4523 138.418 44.3274C137.944 44.936 137.261 45.3479 136.501 45.4839C136.178 45.5277 135.848 45.4792 135.551 45.3438C135.254 45.2085 135.002 44.9919 134.824 44.7193C133.865 43.4864 133.51 40.8294 133.769 37.427C134.01 34.1846 134.754 30.9992 135.974 27.9842C136.44 26.8202 137.087 25.7365 137.891 24.7729C138.436 24.0363 139.241 23.534 140.144 23.3679H140.307C140.532 23.3744 140.753 23.4351 140.95 23.5449C141.147 23.6548 141.314 23.8104 141.438 23.9987C141.993 24.9048 142.322 25.9309 142.396 26.9902C142.538 28.4969 142.541 30.0132 142.406 31.5204V31.5587ZM141.649 23.8267C141.487 23.5695 141.255 23.3636 140.98 23.2332C140.705 23.1029 140.398 23.0535 140.096 23.0908C139.128 23.2652 138.261 23.7977 137.671 24.5817C136.864 25.5753 136.217 26.6876 135.753 27.879C134.518 30.9303 133.768 34.1548 133.529 37.4365C133.4 38.9067 133.422 40.3864 133.597 41.852C133.687 42.9446 134.046 43.9982 134.641 44.92C134.823 45.1929 135.069 45.4168 135.359 45.5719C135.648 45.7269 135.971 45.8083 136.3 45.8088H136.568C137.987 45.6368 139.329 44.1745 140.45 41.5558C141.717 38.3861 142.48 35.0391 142.713 31.6351C142.962 27.8695 142.607 25.0309 141.649 23.8267ZM142.406 31.5587C142.175 34.9362 141.418 38.2574 140.163 41.4029C139.743 42.4648 139.153 43.4523 138.418 44.3274C137.944 44.936 137.261 45.3479 136.501 45.4839C136.178 45.5277 135.848 45.4792 135.551 45.3438C135.254 45.2085 135.002 44.9919 134.824 44.7193C133.865 43.4864 133.51 40.8294 133.769 37.427C134.01 34.1846 134.754 30.9992 135.974 27.9842C136.44 26.8202 137.087 25.7365 137.891 24.7729C138.436 24.0363 139.241 23.534 140.144 23.3679H140.307C140.532 23.3744 140.753 23.4351 140.95 23.5449C141.147 23.6548 141.314 23.8104 141.438 23.9987C141.993 24.9048 142.322 25.9309 142.396 26.9902C142.538 28.4969 142.541 30.0132 142.406 31.5204V31.5587ZM141.649 23.8267C141.487 23.5695 141.255 23.3636 140.98 23.2332C140.705 23.1029 140.398 23.0535 140.096 23.0908C139.128 23.2652 138.261 23.7977 137.671 24.5817C136.864 25.5753 136.217 26.6876 135.753 27.879C134.518 30.9303 133.768 34.1548 133.529 37.4365C133.4 38.9067 133.422 40.3864 133.597 41.852C133.687 42.9446 134.046 43.9982 134.641 44.92C134.823 45.1929 135.069 45.4168 135.359 45.5719C135.648 45.7269 135.971 45.8083 136.3 45.8088H136.568C137.987 45.6368 139.329 44.1745 140.45 41.5558C141.717 38.3861 142.48 35.0391 142.713 31.6351C142.962 27.8695 142.607 25.0309 141.649 23.8267ZM142.406 31.5587C142.175 34.9362 141.418 38.2574 140.163 41.4029C139.743 42.4648 139.153 43.4523 138.418 44.3274C137.944 44.936 137.261 45.3479 136.501 45.4839C136.178 45.5277 135.848 45.4792 135.551 45.3438C135.254 45.2085 135.002 44.9919 134.824 44.7193C133.865 43.4864 133.51 40.8294 133.769 37.427C134.01 34.1846 134.754 30.9992 135.974 27.9842C136.44 26.8202 137.087 25.7365 137.891 24.7729C138.436 24.0363 139.241 23.534 140.144 23.3679H140.307C140.532 23.3744 140.753 23.4351 140.95 23.5449C141.147 23.6548 141.314 23.8104 141.438 23.9987C141.993 24.9048 142.322 25.9309 142.396 26.9902C142.538 28.4969 142.541 30.0132 142.406 31.5204V31.5587ZM141.649 23.8267C141.487 23.5695 141.255 23.3636 140.98 23.2332C140.705 23.1029 140.398 23.0535 140.096 23.0908C139.128 23.2652 138.261 23.7977 137.671 24.5817C136.864 25.5753 136.217 26.6876 135.753 27.879C134.518 30.9303 133.768 34.1548 133.529 37.4365C133.4 38.9067 133.422 40.3864 133.597 41.852C133.687 42.9446 134.046 43.9982 134.641 44.92C134.823 45.1929 135.069 45.4168 135.359 45.5719C135.648 45.7269 135.971 45.8083 136.3 45.8088H136.568C137.987 45.6368 139.329 44.1745 140.45 41.5558C141.717 38.3861 142.48 35.0391 142.713 31.6351C142.962 27.8695 142.607 25.0309 141.649 23.8267ZM142.406 31.5587C142.175 34.9362 141.418 38.2574 140.163 41.4029C139.743 42.4648 139.153 43.4523 138.418 44.3274C137.944 44.936 137.261 45.3479 136.501 45.4839C136.178 45.5277 135.848 45.4792 135.551 45.3438C135.254 45.2085 135.002 44.9919 134.824 44.7193C133.865 43.4864 133.51 40.8294 133.769 37.427C134.01 34.1846 134.754 30.9992 135.974 27.9842C136.44 26.8202 137.087 25.7365 137.891 24.7729C138.436 24.0363 139.241 23.534 140.144 23.3679H140.307C140.532 23.3744 140.753 23.4351 140.95 23.5449C141.147 23.6548 141.314 23.8104 141.438 23.9987C141.993 24.9048 142.322 25.9309 142.396 26.9902C142.538 28.4969 142.541 30.0132 142.406 31.5204V31.5587ZM141.649 23.8267C141.487 23.5695 141.255 23.3636 140.98 23.2332C140.705 23.1029 140.398 23.0535 140.096 23.0908C139.128 23.2652 138.261 23.7977 137.671 24.5817C136.864 25.5753 136.217 26.6876 135.753 27.879C134.518 30.9303 133.768 34.1548 133.529 37.4365C133.4 38.9067 133.422 40.3864 133.597 41.852C133.687 42.9446 134.046 43.9982 134.641 44.92C134.823 45.1929 135.069 45.4168 135.359 45.5719C135.648 45.7269 135.971 45.8083 136.3 45.8088H136.568C137.987 45.6368 139.329 44.1745 140.45 41.5558C141.717 38.3861 142.48 35.0391 142.713 31.6351C142.962 27.8695 142.607 25.0309 141.649 23.8267ZM142.406 31.5587C142.175 34.9362 141.418 38.2574 140.163 41.4029C139.743 42.4648 139.153 43.4523 138.418 44.3274C137.944 44.936 137.261 45.3479 136.501 45.4839C136.178 45.5277 135.848 45.4792 135.551 45.3438C135.254 45.2085 135.002 44.9919 134.824 44.7193C133.865 43.4864 133.51 40.8294 133.769 37.427C134.01 34.1846 134.754 30.9992 135.974 27.9842C136.44 26.8202 137.087 25.7365 137.891 24.7729C138.436 24.0363 139.241 23.534 140.144 23.3679H140.307C140.532 23.3744 140.753 23.4351 140.95 23.5449C141.147 23.6548 141.314 23.8104 141.438 23.9987C141.993 24.9048 142.322 25.9309 142.396 26.9902C142.538 28.4969 142.541 30.0132 142.406 31.5204V31.5587ZM141.649 23.8267C141.487 23.5695 141.255 23.3636 140.98 23.2332C140.705 23.1029 140.398 23.0535 140.096 23.0908C139.128 23.2652 138.261 23.7977 137.671 24.5817C136.864 25.5753 136.217 26.6876 135.753 27.879C134.518 30.9303 133.768 34.1548 133.529 37.4365C133.4 38.9067 133.422 40.3864 133.597 41.852C133.687 42.9446 134.046 43.9982 134.641 44.92C134.823 45.1929 135.069 45.4168 135.359 45.5719C135.648 45.7269 135.971 45.8083 136.3 45.8088H136.568C137.987 45.6368 139.329 44.1745 140.45 41.5558C141.717 38.3861 142.48 35.0391 142.713 31.6351C142.962 27.8695 142.607 25.0309 141.649 23.8267ZM142.406 31.5587C142.175 34.9362 141.418 38.2574 140.163 41.4029C139.743 42.4648 139.153 43.4523 138.418 44.3274C137.944 44.936 137.261 45.3479 136.501 45.4839C136.178 45.5277 135.848 45.4792 135.551 45.3438C135.254 45.2085 135.002 44.9919 134.824 44.7193C133.865 43.4864 133.51 40.8294 133.769 37.427C134.01 34.1846 134.754 30.9992 135.974 27.9842C136.44 26.8202 137.087 25.7365 137.891 24.7729C138.436 24.0363 139.241 23.534 140.144 23.3679H140.307C140.532 23.3744 140.753 23.4351 140.95 23.5449C141.147 23.6548 141.314 23.8104 141.438 23.9987C141.993 24.9048 142.322 25.9309 142.396 26.9902C142.538 28.4969 142.541 30.0132 142.406 31.5204V31.5587ZM141.649 23.8267C141.487 23.5695 141.255 23.3636 140.98 23.2332C140.705 23.1029 140.398 23.0535 140.096 23.0908C139.128 23.2652 138.261 23.7977 137.671 24.5817C136.864 25.5753 136.217 26.6876 135.753 27.879C134.518 30.9303 133.768 34.1548 133.529 37.4365C133.4 38.9067 133.422 40.3864 133.597 41.852C133.687 42.9446 134.046 43.9982 134.641 44.92C134.823 45.1929 135.069 45.4168 135.359 45.5719C135.648 45.7269 135.971 45.8083 136.3 45.8088H136.568C137.987 45.6368 139.329 44.1745 140.45 41.5558C141.717 38.3861 142.48 35.0391 142.713 31.6351C142.962 27.8695 142.607 25.0309 141.649 23.8267ZM142.406 31.5587C142.175 34.9362 141.418 38.2574 140.163 41.4029C139.743 42.4648 139.153 43.4523 138.418 44.3274C137.944 44.936 137.261 45.3479 136.501 45.4839C136.178 45.5277 135.848 45.4792 135.551 45.3438C135.254 45.2085 135.002 44.9919 134.824 44.7193C133.865 43.4864 133.51 40.8294 133.769 37.427C134.01 34.1846 134.754 30.9992 135.974 27.9842C136.44 26.8202 137.087 25.7365 137.891 24.7729C138.436 24.0363 139.241 23.534 140.144 23.3679H140.307C140.532 23.3744 140.753 23.4351 140.95 23.5449C141.147 23.6548 141.314 23.8104 141.438 23.9987C141.993 24.9048 142.322 25.9309 142.396 26.9902C142.538 28.4969 142.541 30.0132 142.406 31.5204V31.5587ZM141.649 23.8267C141.487 23.5695 141.255 23.3636 140.98 23.2332C140.705 23.1029 140.398 23.0535 140.096 23.0908C139.128 23.2652 138.261 23.7977 137.671 24.5817C136.864 25.5753 136.217 26.6876 135.753 27.879C134.518 30.9303 133.768 34.1548 133.529 37.4365C133.4 38.9067 133.422 40.3864 133.597 41.852C133.687 42.9446 134.046 43.9982 134.641 44.92C134.823 45.1929 135.069 45.4168 135.359 45.5719C135.648 45.7269 135.971 45.8083 136.3 45.8088H136.568C137.987 45.6368 139.329 44.1745 140.45 41.5558C141.717 38.3861 142.48 35.0391 142.713 31.6351C142.962 27.8695 142.607 25.0309 141.649 23.8267ZM142.406 31.5587C142.175 34.9362 141.418 38.2574 140.163 41.4029C139.743 42.4648 139.153 43.4523 138.418 44.3274C137.944 44.936 137.261 45.3479 136.501 45.4839C136.178 45.5277 135.848 45.4792 135.551 45.3438C135.254 45.2085 135.002 44.9919 134.824 44.7193C133.865 43.4864 133.51 40.8294 133.769 37.427C134.01 34.1846 134.754 30.9992 135.974 27.9842C136.44 26.8202 137.087 25.7365 137.891 24.7729C138.436 24.0363 139.241 23.534 140.144 23.3679H140.307C140.532 23.3744 140.753 23.4351 140.95 23.5449C141.147 23.6548 141.314 23.8104 141.438 23.9987C141.993 24.9048 142.322 25.9309 142.396 26.9902C142.538 28.4969 142.541 30.0132 142.406 31.5204V31.5587ZM141.649 23.8267C141.487 23.5695 141.255 23.3636 140.98 23.2332C140.705 23.1029 140.398 23.0535 140.096 23.0908C139.128 23.2652 138.261 23.7977 137.671 24.5817C136.864 25.5753 136.217 26.6876 135.753 27.879C134.518 30.9303 133.768 34.1548 133.529 37.4365C133.4 38.9067 133.422 40.3864 133.597 41.852C133.687 42.9446 134.046 43.9982 134.641 44.92C134.823 45.1929 135.069 45.4168 135.359 45.5719C135.648 45.7269 135.971 45.8083 136.3 45.8088H136.568C137.987 45.6368 139.329 44.1745 140.45 41.5558C141.717 38.3861 142.48 35.0391 142.713 31.6351C142.962 27.8695 142.607 25.0309 141.649 23.8267ZM142.406 31.5587C142.175 34.9362 141.418 38.2574 140.163 41.4029C139.743 42.4648 139.153 43.4523 138.418 44.3274C137.944 44.936 137.261 45.3479 136.501 45.4839C136.178 45.5277 135.848 45.4792 135.551 45.3438C135.254 45.2085 135.002 44.9919 134.824 44.7193C133.865 43.4864 133.51 40.8294 133.769 37.427C134.01 34.1846 134.754 30.9992 135.974 27.9842C136.44 26.8202 137.087 25.7365 137.891 24.7729C138.436 24.0363 139.241 23.534 140.144 23.3679H140.307C140.532 23.3744 140.753 23.4351 140.95 23.5449C141.147 23.6548 141.314 23.8104 141.438 23.9987C141.993 24.9048 142.322 25.9309 142.396 26.9902C142.538 28.4969 142.541 30.0132 142.406 31.5204V31.5587ZM141.649 23.8267C141.487 23.5695 141.255 23.3636 140.98 23.2332C140.705 23.1029 140.398 23.0535 140.096 23.0908C139.128 23.2652 138.261 23.7977 137.671 24.5817C136.864 25.5753 136.217 26.6876 135.753 27.879C134.518 30.9303 133.768 34.1548 133.529 37.4365C133.4 38.9067 133.422 40.3864 133.597 41.852C133.687 42.9446 134.046 43.9982 134.641 44.92C134.823 45.1929 135.069 45.4168 135.359 45.5719C135.648 45.7269 135.971 45.8083 136.3 45.8088H136.568C137.987 45.6368 139.329 44.1745 140.45 41.5558C141.717 38.3861 142.48 35.0391 142.713 31.6351C142.962 27.8695 142.607 25.0309 141.649 23.8267ZM142.406 31.5587C142.175 34.9362 141.418 38.2574 140.163 41.4029C139.743 42.4648 139.153 43.4523 138.418 44.3274C137.944 44.936 137.261 45.3479 136.501 45.4839C136.178 45.5277 135.848 45.4792 135.551 45.3438C135.254 45.2085 135.002 44.9919 134.824 44.7193C133.865 43.4864 133.51 40.8294 133.769 37.427C134.01 34.1846 134.754 30.9992 135.974 27.9842C136.44 26.8202 137.087 25.7365 137.891 24.7729C138.436 24.0363 139.241 23.534 140.144 23.3679H140.307C140.532 23.3744 140.753 23.4351 140.95 23.5449C141.147 23.6548 141.314 23.8104 141.438 23.9987C141.993 24.9048 142.322 25.9309 142.396 26.9902C142.538 28.4969 142.541 30.0132 142.406 31.5204V31.5587ZM138.265 49.4311C137.992 49.4283 137.722 49.4802 137.47 49.5836C137.218 49.6871 136.99 49.84 136.798 50.0332C136.605 50.2316 136.454 50.4666 136.353 50.7243C136.253 50.9821 136.205 51.2573 136.213 51.5337C136.212 51.8043 136.265 52.0724 136.369 52.3224C136.473 52.5724 136.625 52.7992 136.818 52.9897C137.011 53.1801 137.24 53.3303 137.492 53.4315C137.743 53.5327 138.013 53.5829 138.284 53.579C138.842 53.5777 139.377 53.362 139.779 52.9769C139.971 52.7846 140.122 52.5562 140.224 52.3052C140.326 52.0542 140.377 51.7855 140.374 51.5146C140.386 51.2344 140.34 50.9548 140.238 50.6932C140.137 50.4316 139.982 50.1937 139.784 49.9945C139.586 49.7953 139.349 49.639 139.087 49.5355C138.826 49.4319 138.546 49.3834 138.265 49.3929V49.4311ZM138.265 53.3019C138.03 53.3044 137.796 53.2603 137.578 53.1719C137.36 53.0836 137.162 52.9529 136.995 52.7875C136.828 52.622 136.696 52.4251 136.606 52.2082C136.517 51.9913 136.471 51.7588 136.472 51.5242C136.467 51.2884 136.509 51.0539 136.596 50.8344C136.683 50.6149 136.812 50.4148 136.977 50.2458C137.142 50.0768 137.34 49.9422 137.557 49.8499C137.775 49.7576 138.009 49.7095 138.246 49.7083C138.486 49.7018 138.726 49.7439 138.949 49.8322C139.173 49.9204 139.377 50.0529 139.548 50.2217C139.719 50.3905 139.854 50.592 139.945 50.8142C140.036 51.0364 140.08 51.2747 140.077 51.5146C140.066 51.982 139.873 52.4268 139.538 52.7538C139.203 53.0807 138.753 53.2637 138.284 53.2636L138.265 53.3019Z" fill="#044332"/>
<path d="M10.7552 22.4313C10.7552 22.4313 11.0811 16.9836 14.4457 13.4378C17.8103 9.89197 17.724 5.84917 15.9986 3.88034C14.4745 2.16 8.44504 7.47394 10.621 7.43571C11.9055 7.34013 14.7141 6.69978 11.9055 13.1702C10.6942 16.138 9.99414 19.2885 9.83496 22.4887L10.7552 22.4313Z" fill="#044332"/>
<path d="M61.646 87.1257C60.758 86.5387 60.0852 85.6801 59.7289 84.679C59.5252 84.108 59.3932 83.5142 59.3358 82.9109C55.2811 76.2207 57.9076 58.5298 58.9237 53.8084C58.9337 53.7652 58.9339 53.7202 58.9242 53.6768C58.9144 53.6334 58.895 53.5928 58.8674 53.558C58.8398 53.5231 58.8046 53.4948 58.7646 53.4753C58.7246 53.4558 58.6806 53.4455 58.6361 53.4453H49.3571C49.3125 53.4455 49.2686 53.4558 49.2285 53.4753C49.1885 53.4948 49.1534 53.5231 49.1257 53.558C49.0981 53.5928 49.0788 53.6334 49.069 53.6768C49.0593 53.7202 49.0595 53.7652 49.0695 53.8084C49.8128 57.0751 50.2937 60.3957 50.5074 63.7386C50.5118 63.7991 50.4974 63.8594 50.4664 63.9115C50.4353 63.9636 50.3889 64.005 50.3336 64.03C50.2782 64.055 50.2165 64.0624 50.1567 64.0514C50.0969 64.0403 50.042 64.0112 49.9993 63.968C49.597 63.591 49.1216 63.2999 48.6023 63.1125C48.0831 62.9252 47.531 62.8455 46.9798 62.8785C40.7682 62.8785 36.7422 68.9188 35.3906 74.7393C34.3362 79.518 34.9689 88.1197 41.5351 88.0623C44.4108 88.0623 47.4591 85.9979 49.4625 81.9456C49.4919 81.882 49.543 81.8309 49.6066 81.8013C49.6702 81.7717 49.7423 81.7655 49.8101 81.7838C49.8779 81.8021 49.9369 81.8438 49.9768 81.9014C50.0167 81.959 50.0349 82.0288 50.0281 82.0985C49.6926 86.8772 51.3509 90.5473 55.9521 90.5377C58.4738 90.2905 60.8622 89.2913 62.8059 87.6705C62.3976 87.5387 62.0079 87.3556 61.646 87.1257ZM50.5265 74.3378C49.7501 80.6458 46.9702 84.2298 44.8326 84.2394C44.584 84.248 44.3371 84.1955 44.1137 84.0864C39.9535 82.3183 43.2509 66.4147 47.5166 64.8091C47.7595 64.7079 48.0202 64.6559 48.2835 64.6561C48.7812 64.6899 49.2553 64.8802 49.6377 65.1997C50.0201 65.5191 50.291 65.9512 50.4115 66.4338C50.4147 66.456 50.4147 66.4785 50.4115 66.5007C50.7728 69.0985 50.8114 71.7307 50.5265 74.3378Z" fill="#044332"/>
<path d="M83.9711 87.0301C81.6514 77.7212 81.6322 72.7418 83.8944 63.4328H73.8678C76.6285 79.7665 72.4107 85.6634 69.4391 85.673C68.2218 85.673 67.1865 84.7172 66.9564 83.0542C66.1416 78.0079 70.647 68.8328 68.9886 63.4424H58.9619C63.9273 72.6271 58.9619 78.0461 59.6329 83.1785C59.6949 83.651 59.8074 84.1156 59.9684 84.5643C60.2192 85.2529 60.6254 85.8747 61.1556 86.3818C61.6858 86.8889 62.3259 87.2677 63.0263 87.4889C63.6026 87.6885 64.2088 87.7887 64.8188 87.7852C68.2122 87.7852 73.5993 86.8294 75.2577 80.3782C74.9605 82.3948 74.5483 84.5643 73.9444 87.0015L83.9711 87.0301Z" fill="#044332"/>
<path d="M99.7779 85.52C98.8193 84.3923 97.7361 82.3565 98.225 78.9732C98.3844 77.7197 98.8092 76.5143 99.4712 75.4369C99.567 75.2745 99.6724 75.1215 99.7875 74.9591C99.3191 67.816 99.7799 60.6425 101.158 53.6173C101.175 53.5333 101.173 53.4467 101.153 53.3635C101.132 53.2803 101.094 53.2027 101.04 53.1361C100.986 53.0695 100.918 53.0155 100.84 52.9781C100.763 52.9407 100.679 52.9207 100.593 52.9196H92.023C91.9372 52.9207 91.8526 52.9407 91.7753 52.9781C91.698 53.0155 91.63 53.0695 91.576 53.1361C91.522 53.2027 91.4834 53.2803 91.4629 53.3635C91.4424 53.4467 91.4406 53.5333 91.4575 53.6173C93.3746 61.8749 93.5663 74.2996 92.071 83.3505C91.4383 87.0779 93.3938 90.5759 97.6594 90.5568C98.7463 90.5371 99.8098 90.2393 100.748 89.6921C101.686 89.1448 102.468 88.3664 103.018 87.4315C101.772 87.1276 100.645 86.4624 99.7779 85.52Z" fill="#044332"/>
<path d="M121.835 86.2082C118.806 80.3399 119.534 76.364 120.071 72.7417C121.154 65.5545 116.467 62.2955 111.281 62.3146C108.149 62.3265 105.124 63.4516 102.75 65.4876C100.267 67.6285 101.887 70.5531 105.347 70.1612C107.217 69.9223 109.508 68.9665 109.795 65.1722C109.872 64.0636 110.514 63.5284 111.319 63.5284C112.422 63.5284 113.831 64.5892 114.415 66.4816C114.941 68.2816 114.836 70.2062 114.118 71.9389C114.099 71.9869 114.069 72.0298 114.03 72.0646C113.992 72.0994 113.946 72.125 113.896 72.1397C113.847 72.1544 113.794 72.1578 113.743 72.1495C113.692 72.1412 113.643 72.1215 113.601 72.0918C112.171 71.1167 110.473 70.609 108.741 70.6391C107.02 70.658 105.329 71.0868 103.808 71.8899C102.287 72.6929 100.981 73.8468 99.9985 75.2553C99.2378 76.3744 98.7458 77.6531 98.5607 78.9923C97.8609 83.771 100.277 86.6383 103.296 87.3551C103.86 87.4973 104.44 87.5679 105.021 87.5653C106.212 87.5546 107.382 87.2612 108.435 86.7094C109.489 86.1575 110.395 85.3632 111.08 84.3923C111.12 84.3312 111.179 84.2847 111.248 84.2594C111.317 84.2341 111.392 84.2314 111.463 84.2517C111.533 84.2719 111.596 84.3141 111.64 84.372C111.685 84.43 111.711 84.5007 111.712 84.5739C111.739 85.2195 111.835 85.8603 112 86.4853C112.021 86.5586 112.064 86.6233 112.125 86.6698C112.185 86.7163 112.259 86.7421 112.335 86.7434H121.528C121.592 86.7472 121.656 86.733 121.713 86.7024C121.769 86.6719 121.816 86.6263 121.848 86.5706C121.88 86.515 121.895 86.4516 121.893 86.3876C121.891 86.3235 121.871 86.2614 121.835 86.2082ZM112.891 74.9399C112.259 81.6302 110.016 84.3923 108.3 84.4018C106.584 84.4114 105.319 81.8691 106.296 77.9028C107.169 74.3761 109.412 72.3881 111.089 72.3786C112.115 72.3786 112.911 73.1718 112.93 74.9017L112.891 74.9399Z" fill="#044332"/>
<path d="M163.178 71.614C162.695 71.574 162.209 71.6351 161.751 71.7933C161.293 71.9514 160.874 72.2033 160.519 72.5326C160.164 72.8619 159.882 73.2614 159.692 73.7056C159.501 74.1498 159.405 74.6288 159.411 75.112C159.411 76.8801 160.475 80.9325 163.245 82.9873C163.279 83.0122 163.318 83.0288 163.359 83.0359C163.4 83.0431 163.443 83.0405 163.483 83.0284C163.523 83.0164 163.559 82.9951 163.59 82.9664C163.62 82.9377 163.643 82.9023 163.657 82.8631C164.376 81.0376 165.508 77.4153 167.137 77.1286C170.492 76.5456 168.786 85.004 163.523 87.2117C159.689 88.7983 155.414 87.6514 153.382 84.765C151.215 81.6684 151.253 79.1644 152.318 75.3796C153.583 70.8589 155.701 68.1064 154.637 64.8664C153.918 62.7447 151.263 61.9992 149.605 62.2094C147.256 62.4579 144.486 64.4172 142.818 69.0335C142.812 69.0526 142.8 69.0692 142.783 69.081C142.767 69.0928 142.747 69.0992 142.727 69.0992C142.707 69.0992 142.687 69.0928 142.671 69.081C142.654 69.0692 142.642 69.0526 142.636 69.0335C142.695 67.8361 142.536 66.6379 142.166 65.4972C141.457 63.3755 140.009 62.2763 138.332 62.2763C135.034 62.2763 130.855 66.7397 130.174 76.1729C130.18 76.1955 130.181 76.2191 130.176 76.2419C130.171 76.2647 130.161 76.2862 130.147 76.3046C130.133 76.323 130.114 76.3379 130.093 76.3481C130.072 76.3584 130.049 76.3637 130.026 76.3637C130.002 76.3637 129.979 76.3584 129.958 76.3481C129.937 76.3379 129.919 76.323 129.905 76.3046C129.89 76.2862 129.88 76.2647 129.876 76.2419C129.871 76.2191 129.871 76.1955 129.877 76.1729C129.797 71.8838 130.287 67.6031 131.334 63.4424C131.344 63.3993 131.344 63.3547 131.335 63.3115C131.326 63.2683 131.308 63.2276 131.281 63.1922C131.255 63.1568 131.221 63.1275 131.182 63.1064C131.143 63.0852 131.101 63.0727 131.056 63.0696H122.477C122.434 63.0739 122.392 63.0874 122.354 63.1091C122.317 63.1308 122.284 63.1603 122.258 63.1956C122.233 63.2308 122.216 63.2711 122.207 63.3136C122.198 63.3562 122.199 63.4 122.209 63.4424C124.212 72.3786 124.222 77.3389 122.276 86.2942C122.266 86.3372 122.266 86.3819 122.275 86.4251C122.284 86.4682 122.302 86.5089 122.329 86.5443C122.355 86.5797 122.389 86.609 122.428 86.6302C122.467 86.6514 122.51 86.6639 122.554 86.667H131.181C131.221 86.6648 131.261 86.6542 131.297 86.6357C131.333 86.6172 131.365 86.5913 131.39 86.5597C131.416 86.5281 131.434 86.4916 131.444 86.4524C131.454 86.4132 131.456 86.3723 131.449 86.3324C129.992 72.952 133.491 65.2296 135.456 65.22C136.022 65.22 136.415 65.8222 136.616 67.0455C137.335 72.0249 133.319 81.0089 134.699 86.4376C134.714 86.4984 134.748 86.5528 134.796 86.5924C134.845 86.6321 134.905 86.6549 134.967 86.6574H142.387C142.428 86.6551 142.467 86.6445 142.504 86.6261C142.54 86.6077 142.573 86.582 142.599 86.5506C142.625 86.5192 142.644 86.4828 142.656 86.4436C142.667 86.4044 142.67 86.3633 142.665 86.3229C141.198 72.9425 144.697 65.2296 146.662 65.22C147.227 65.22 147.621 65.8222 147.831 67.036C148.483 71.4419 145.607 78.9828 145.627 84.4114C145.627 91.3692 151.378 92.3632 156.622 91.914C164.453 91.2641 168.824 86.9632 170.396 82.3566C172.831 75.2363 167.53 71.614 163.178 71.614Z" fill="#044332"/>
<path d="M110.294 56.7617C111.365 56.9992 112.321 57.6005 112.997 58.4629L113.093 58.5585C113.831 59.3995 114.463 60.1641 115.096 60.1641C116.15 60.1641 116.956 59.0746 117.416 58.2526C117.439 58.2128 117.475 58.1822 117.519 58.1659C117.562 58.1497 117.61 58.1488 117.653 58.1633C117.697 58.1779 117.735 58.2071 117.76 58.246C117.784 58.2849 117.795 58.3311 117.79 58.3769C117.787 58.8015 117.69 59.2202 117.506 59.6029C117.321 59.9855 117.054 60.3226 116.722 60.5896C116.391 60.8566 116.005 61.047 115.591 61.147C115.177 61.2469 114.746 61.254 114.329 61.1677C113.79 61.1373 113.265 60.9825 112.796 60.7155C112.327 60.4485 111.926 60.0765 111.626 59.6289L111.53 59.5333C110.989 59.1051 110.3 58.9061 109.613 58.979C108.051 59.5142 108.319 59.9825 107.447 60.5751C107.078 60.8145 106.64 60.9256 106.201 60.891C105.763 60.8565 105.348 60.6782 105.021 60.3839C103.804 59.0077 105.951 55.9302 110.294 56.7617Z" fill="#044332"/>
<path d="M11.7138 44.2892H11.3687C10.7025 44.2592 10.035 44.2912 9.37483 44.3848H9.28856H9.18311C10.0112 44.1808 10.8725 44.1483 11.7138 44.2892Z" fill="#187B5C"/>
<path d="M2.54969 47.9402C1.76446 48.4306 1.11799 49.113 0.671714 49.9226C0.225442 50.7323 -0.00581415 51.6422 -0.000118753 52.566C-0.0576332 55.8633 6.62363 50.3295 2.54969 47.9402Z" fill="#044332"/>
<path d="M21.2995 52.1454C21.2515 50.9794 20.0917 50.8838 19.0756 50.903C18.0595 50.9221 14.2827 53.4739 13.8513 53.7702C13.1205 54.1249 12.3373 54.3605 11.5316 54.4679C10.3851 54.5128 9.23773 54.4068 8.11908 54.1525H7.98486C9.10788 54.9177 9.90429 56.0729 10.2184 57.3925C10.2184 57.3925 10.3142 60.7758 10.3334 62.1712C10.3264 63.5015 10.5939 64.8191 11.1194 66.042C11.1825 66.1915 11.2764 66.326 11.3951 66.437C11.5138 66.5479 11.6545 66.6327 11.8082 66.6859C11.9619 66.7391 12.125 66.7595 12.2871 66.7457C12.4492 66.7319 12.6066 66.6842 12.749 66.6058C12.9372 66.5325 13.1171 66.4396 13.2858 66.3287C13.2858 66.3287 18.7209 63.1269 19.1714 62.8498C19.7814 62.4363 20.2926 61.894 20.6687 61.2614C21.0448 60.6288 21.2765 59.9213 21.3474 59.1893C21.3474 59.1893 21.3378 53.3114 21.2995 52.1454ZM14.9729 58.0137C14.599 58.654 13.9568 58.9694 13.5638 58.7592C13.1708 58.5489 13.142 57.8034 13.5638 57.1631C13.9855 56.5227 14.5798 56.2074 14.9824 56.4176C15.385 56.6279 15.3563 57.3733 14.9729 58.0137ZM19.0564 60.2693C18.673 60.9192 18.0403 61.225 17.6377 61.0147C17.2351 60.8045 17.2255 60.059 17.6377 59.4282C18.0499 58.7974 18.6538 58.4725 19.0468 58.6827C19.4398 58.893 19.4398 59.6289 19.0564 60.2693Z" fill="#044332"/>
<path d="M11.3783 65.8795C10.5539 65.3347 10.6881 64.1305 10.6881 63.7386C10.6881 63.3468 10.6882 59.476 10.5731 57.6123C10.4993 56.9665 10.2776 56.3463 9.92528 55.7994C9.57293 55.2526 9.09931 54.7938 8.54095 54.4583L8.11917 54.1907C6.84427 53.4261 3.24962 51.3904 2.87577 51.1706C2.54577 51.0217 2.18135 50.9654 1.82163 51.0075C1.46191 51.0495 1.12047 51.1885 0.834007 51.4095C0.61558 51.5552 0.430783 51.7457 0.291943 51.9681C0.153102 52.1906 0.0634092 52.44 0.0288086 52.6998C0.0288086 52.6998 0.0288086 57.7556 0.0288086 59.3326C0.232011 60.7434 0.96526 62.0246 2.08014 62.9167C2.59777 63.2607 7.36188 65.9368 8.33963 66.4912C9.20926 66.9908 10.2216 67.186 11.2153 67.0455C11.7457 67.0146 12.2628 66.8677 12.7299 66.6154C12.8438 66.5501 12.9527 66.4766 13.0558 66.3956C12.7553 66.4422 12.448 66.4199 12.1573 66.3305C11.8667 66.2411 11.6003 66.0868 11.3783 65.8795ZM2.33898 54.1238C2.75116 53.8849 3.40299 54.2289 3.80559 54.9075C4.20819 55.5861 4.17944 56.3316 3.80559 56.5705C3.43175 56.8095 2.74156 56.4558 2.34854 55.7773C1.95553 55.0987 1.92679 54.3341 2.33898 54.0952V54.1238ZM4.10275 61.3015C3.70015 61.5404 3.05788 61.1963 2.67445 60.5273C2.29102 59.8583 2.30061 59.1415 2.67445 58.9121C3.0483 58.6827 3.7193 59.0172 4.11231 59.6863C4.50533 60.3553 4.50535 61.0434 4.10275 61.2728V61.3015ZM8.19585 63.5666C7.79325 63.8055 7.15101 63.4614 6.76758 62.802C6.38415 62.1425 6.39374 61.4066 6.76758 61.1772C7.14143 60.9478 7.81242 61.2823 8.19585 61.9514C8.57928 62.6204 8.59845 63.3085 8.19585 63.5379V63.5666ZM8.26295 58.893C7.86035 59.1319 7.21809 58.7879 6.83466 58.1188C6.45123 57.4498 6.46082 56.733 6.83466 56.4941C7.2085 56.2551 7.87951 56.6087 8.27252 57.2682C8.66554 57.9277 8.66556 58.6349 8.26295 58.8643V58.893Z" fill="#053524"/>
<path d="M21.2323 51.419C21.2323 51.3426 21.2323 51.2757 21.2323 51.1992V51.0845V50.9603C21.2323 50.8839 21.2323 50.7978 21.1652 50.7118C21.0981 50.6258 21.1652 50.578 21.0885 50.5015C20.9949 50.2299 20.8761 49.9676 20.7338 49.7178C20.561 49.4325 20.362 49.1637 20.1395 48.915C18.7208 47.3189 12.3559 44.3083 12.3559 44.3083L11.8574 44.2032H11.6466C11.4934 44.1931 11.3396 44.1931 11.1864 44.2032H10.8797H10.3237H10.0841L9.72941 44.251C9.48701 44.2854 9.24915 44.3463 9.02008 44.4326L8.88586 44.4899L8.72289 44.5664L8.55036 44.6428L8.19569 44.8244H8.14777L7.74516 45.0347L6.96871 45.4552L6.66196 45.6177L6.39356 45.7706C6.21144 45.8757 6.02932 45.9809 5.8376 46.0764L5.29121 46.3918L5.04197 46.5256C4.95687 46.5642 4.87647 46.6123 4.80233 46.669L4.57228 46.7646L4.09299 47.0418L3.97797 47.1086L3.86294 47.1755L3.67122 47.2807L3.46993 47.3858L3.31655 47.4814L3.13442 47.5865L3.03856 47.6439L2.95229 47.6917L2.8181 47.7681C2.78085 47.7976 2.73866 47.8202 2.69348 47.835V47.8828C2.4588 48.2134 2.30155 48.5922 2.23336 48.9914C2.19764 49.2697 2.21737 49.5522 2.2914 49.8228C2.36542 50.0934 2.49229 50.3468 2.66473 50.5685C2.71392 50.6334 2.76841 50.6941 2.82767 50.75C2.94737 50.8881 3.09005 51.0044 3.24944 51.0941L3.6233 51.3044L3.97797 51.5051L4.06424 51.5529L4.1505 51.6006L4.27512 51.6676L4.53393 51.8205L4.93654 52.0498L6.79618 53.1203L6.94955 53.2063L7.9848 53.8084L8.07107 53.8562H8.14777C8.19462 53.8815 8.23947 53.9102 8.28196 53.9422L8.71333 54.2098C9.25632 54.4229 9.83618 54.5268 10.4196 54.5157H11.3782H11.7712C12.1737 54.4821 12.5684 54.3853 12.9406 54.2289C14.2826 53.6077 18.625 50.9221 18.625 50.9221C18.814 50.8133 19.0223 50.7419 19.2384 50.7118H19.3247C19.3657 50.7017 19.4084 50.7017 19.4493 50.7118H19.6986C19.8671 50.743 20.0336 50.7845 20.197 50.8361L20.3792 50.9125C20.6348 51.0179 20.8664 51.174 21.0598 51.3713L21.1556 51.486C21.1928 51.5231 21.225 51.5649 21.2515 51.6102C21.3389 51.7581 21.4096 51.9151 21.4623 52.0785C21.4097 51.8511 21.3326 51.63 21.2323 51.419ZM12.8831 49.0775C12.1354 49.0775 11.5411 48.7047 11.5411 48.246C11.5411 47.7872 12.1354 47.4145 12.8735 47.4145C13.6116 47.4145 14.2155 47.7872 14.2155 48.246C14.2155 48.7047 13.6212 49.0775 12.8831 49.0775ZM15.5575 50.6067C14.8194 50.6067 14.2155 50.2435 14.2155 49.7847C14.2155 49.326 14.8194 48.9532 15.5575 48.9437C16.2956 48.9341 16.8899 49.3164 16.8995 49.7752C16.9091 50.2339 16.2956 50.5876 15.5575 50.5876V50.6067ZM10.247 45.8757C10.9947 45.8757 11.589 46.2389 11.589 46.6977C11.589 47.1564 10.9947 47.5292 10.2566 47.5292C9.51851 47.5292 8.91462 47.166 8.91462 46.7072C8.91462 46.2485 9.50895 45.8757 10.247 45.8757ZM8.8667 49.7465C9.6048 49.7465 10.2087 50.1192 10.2087 50.578C10.2087 51.0367 9.61439 51.4095 8.8667 51.4095C8.11901 51.4095 7.53426 51.0367 7.52467 50.578C7.51509 50.1192 8.1286 49.7465 8.8667 49.7465ZM6.24019 48.2078C6.97829 48.2078 7.58222 48.5709 7.58222 49.0297C7.58222 49.4884 6.98788 49.8612 6.24019 49.8612C5.4925 49.8612 4.90779 49.498 4.90779 49.0393C4.90779 48.5805 5.53084 48.2078 6.24019 48.2078ZM11.5507 52.9387C10.8126 52.9387 10.2087 52.5755 10.2087 52.1168C10.2087 51.658 10.803 51.2757 11.5507 51.2757C12.2984 51.2757 12.8831 51.6484 12.8831 52.1072C12.8831 52.5659 12.2888 52.9387 11.5507 52.9387Z" fill="#056C52"/>
<path d="M19.5261 50.9029C19.346 50.8645 19.1598 50.8645 18.9797 50.9029H19.1523C19.1932 50.8928 19.236 50.8928 19.2769 50.9029H19.5261ZM3.44124 51.4669L3.79591 51.6676L3.88218 51.7153L3.96845 51.7631L4.09307 51.83L4.35187 51.9829L4.75448 52.2123L6.61412 53.2828L6.76749 53.3688L7.80274 53.9709L7.88901 54.0187H7.96571C8.01256 54.0439 8.05741 54.0727 8.0999 54.1047C7.10298 53.5504 4.45733 52.0403 3.44124 51.4669ZM19.5261 50.9029C19.346 50.8645 19.1598 50.8645 18.9797 50.9029H19.1523C19.1932 50.8928 19.236 50.8928 19.2769 50.9029H19.5261ZM3.44124 51.4669L3.79591 51.6676L3.88218 51.7153L3.96845 51.7631L4.09307 51.83L4.35187 51.9829L4.75448 52.2123L6.61412 53.2828L6.76749 53.3688L7.80274 53.9709L7.88901 54.0187H7.96571C8.01256 54.0439 8.05741 54.0727 8.0999 54.1047C7.10298 53.5504 4.45733 52.0403 3.44124 51.4669ZM19.5261 50.9029C19.346 50.8645 19.1598 50.8645 18.9797 50.9029H19.1523C19.1932 50.8928 19.236 50.8928 19.2769 50.9029H19.5261ZM3.44124 51.4669L3.79591 51.6676L3.88218 51.7153L3.96845 51.7631L4.09307 51.83L4.35187 51.9829L4.75448 52.2123L6.61412 53.2828L6.76749 53.3688L7.80274 53.9709L7.88901 54.0187H7.96571C8.01256 54.0439 8.05741 54.0727 8.0999 54.1047C7.10298 53.5504 4.45733 52.0403 3.44124 51.4669ZM19.5261 50.9029C19.346 50.8645 19.1598 50.8645 18.9797 50.9029H19.1523C19.1932 50.8928 19.236 50.8928 19.2769 50.9029H19.5261ZM3.44124 51.4669L3.79591 51.6676L3.88218 51.7153L3.96845 51.7631L4.09307 51.83L4.35187 51.9829L4.75448 52.2123L6.61412 53.2828L6.76749 53.3688L7.80274 53.9709L7.88901 54.0187H7.96571C8.01256 54.0439 8.05741 54.0727 8.0999 54.1047C7.10298 53.5504 4.45733 52.0403 3.44124 51.4669ZM21.2132 51.1897C21.1001 50.672 20.9061 50.1753 20.6381 49.7178C20.4732 49.4268 20.2771 49.1544 20.0533 48.9054C18.7168 47.7646 17.2379 46.8009 15.6535 46.0382C13.8897 45.0825 12.2984 44.3274 12.2601 44.3083H12.1259L11.8863 44.2605H11.5508C10.7615 44.1376 9.9551 44.1799 9.18309 44.3848H9.13517L9.00096 44.4326C8.33954 44.7002 6.73874 45.5795 5.30088 46.4014L5.03248 46.5543C4.85993 46.6403 4.69696 46.7359 4.534 46.8315L4.74489 46.7168C4.90785 46.6117 5.08039 46.5161 5.25293 46.4205L5.79933 46.1051C5.99104 46.0095 6.17316 45.9044 6.35529 45.7993L6.62371 45.6464L6.93044 45.4839L7.70688 45.0634L8.10949 44.8531H8.15741L8.51208 44.6715L8.68464 44.5951L8.84758 44.5186L8.9818 44.4708H9.09682L9.33647 44.4039L9.67197 44.337L10.0266 44.2892H10.2663H10.7456H11.0523H11.3303C11.5749 44.3109 11.8181 44.346 12.0588 44.3943H12.1834C12.2985 44.4421 18.5579 47.4336 19.967 49.001C20.38 49.4643 20.7048 49.9987 20.9256 50.578C20.9256 50.6545 20.9736 50.7214 21.0023 50.7883C21.0311 50.8552 21.0502 50.9603 21.0694 51.0368V51.161V51.2757C21.0694 51.3522 21.0694 51.4191 21.0694 51.4955C21.0694 51.572 21.0694 51.8778 21.1173 52.0116C21.1223 52.0976 21.1223 52.1837 21.1173 52.2697C20.9938 51.865 20.7193 51.523 20.3505 51.3139C20.2554 51.2498 20.1523 51.1984 20.0437 51.161L19.8616 51.0845C19.7111 51.0334 19.5574 50.9919 19.4015 50.9603C19.2214 50.9218 19.0352 50.9218 18.8551 50.9603H18.7401H18.6059C18.5047 50.9965 18.4081 51.0447 18.3183 51.1037C18.3183 51.1037 13.9664 53.7798 12.634 54.3914C12.2643 54.5491 11.8736 54.6521 11.4741 54.6973H11.0811H10.1225C9.53898 54.6994 8.96023 54.5924 8.41624 54.3819L8.02322 54.1334C6.99755 53.5217 4.35187 52.0116 3.33578 51.4382L3.00028 51.247C2.64984 51.0243 2.36838 50.7088 2.18727 50.3358C2.00616 49.9629 1.93255 49.5471 1.97462 49.1348C2.04271 48.7022 2.22091 48.2941 2.49223 47.9497L3.45081 47.3571L3.64253 47.252L3.75756 47.1851L3.23035 47.4814L3.07698 47.577L2.89485 47.6821L2.79898 47.7394L2.71272 47.7872L2.57853 47.8637C2.54128 47.8931 2.49909 47.9158 2.45391 47.9306V47.9784C2.20879 48.3051 2.04457 48.685 1.97462 49.087C1.91751 49.5036 1.99118 49.9277 2.18551 50.3009C2.2552 50.4283 2.33535 50.5498 2.42516 50.664C2.47435 50.7289 2.52884 50.7897 2.5881 50.8456C2.66468 50.9379 2.75153 51.0213 2.84693 51.0941L2.9236 51.1419H2.99071L3.13449 51.2184L3.32622 51.3426C4.28479 51.9161 6.87292 53.3688 7.94652 54.0187L8.39705 54.2959L8.48332 54.3436C9.01462 54.5082 9.56632 54.5982 10.1225 54.6112H10.6018C11.2885 54.6358 11.9732 54.5221 12.6148 54.2767C13.9376 53.665 18.2608 50.9985 18.2991 50.9794C18.5261 50.8439 18.7827 50.7652 19.0468 50.7501H19.3727C19.9461 50.8405 20.4725 51.1197 20.8681 51.5433L20.964 51.658C21.0011 51.6951 21.0334 51.7369 21.0598 51.7822C21.1458 51.933 21.2133 52.0934 21.2611 52.2601C21.2894 51.9027 21.2733 51.5432 21.2132 51.1897ZM3.44124 51.4669L3.79591 51.6676L3.88218 51.7153L3.96845 51.7631L4.09307 51.83L4.35187 51.9829L4.75448 52.2123L6.61412 53.2828L6.76749 53.3688L7.80274 53.9709L7.88901 54.0187H7.96571C8.01256 54.0439 8.05741 54.0727 8.0999 54.1047C7.10298 53.5504 4.45733 52.0403 3.44124 51.4669ZM19.5261 50.9029C19.346 50.8645 19.1598 50.8645 18.9797 50.9029H19.1523C19.1932 50.8928 19.236 50.8928 19.2769 50.9029H19.5261ZM3.44124 51.4669L3.79591 51.6676L3.88218 51.7153L3.96845 51.7631L4.09307 51.83L4.35187 51.9829L4.75448 52.2123L6.61412 53.2828L6.76749 53.3688L7.80274 53.9709L7.88901 54.0187H7.96571C8.01256 54.0439 8.05741 54.0727 8.0999 54.1047C7.10298 53.5504 4.45733 52.0403 3.44124 51.4669ZM19.5261 50.9029C19.346 50.8645 19.1598 50.8645 18.9797 50.9029H19.1523C19.1932 50.8928 19.236 50.8928 19.2769 50.9029H19.5261ZM3.44124 51.4669L3.79591 51.6676L3.88218 51.7153L3.96845 51.7631L4.09307 51.83L4.35187 51.9829L4.75448 52.2123L6.61412 53.2828L6.76749 53.3688L7.80274 53.9709L7.88901 54.0187H7.96571C8.01256 54.0439 8.05741 54.0727 8.0999 54.1047C7.10298 53.5504 4.45733 52.0403 3.44124 51.4669ZM19.5261 50.9029C19.346 50.8645 19.1598 50.8645 18.9797 50.9029H19.1523C19.1932 50.8928 19.236 50.8928 19.2769 50.9029H19.5261ZM3.44124 51.4669L3.79591 51.6676L3.88218 51.7153L3.96845 51.7631L4.09307 51.83L4.35187 51.9829L4.75448 52.2123L6.61412 53.2828L6.76749 53.3688L7.80274 53.9709L7.88901 54.0187H7.96571C8.01256 54.0439 8.05741 54.0727 8.0999 54.1047C7.10298 53.5504 4.45733 52.0403 3.44124 51.4669ZM19.5261 50.9029C19.346 50.8645 19.1598 50.8645 18.9797 50.9029H19.1523C19.1932 50.8928 19.236 50.8928 19.2769 50.9029H19.5261Z" fill="#056C52"/>
</g>
<defs>
<clipPath id="clip0_28_39">
<rect width="171" height="92" fill="white"/>
</clipPath>
</defs>
</svg>
