<svg width="20" height="20" viewBox="0 0 20 20" fill="none" xmlns="http://www.w3.org/2000/svg">
<g clip-path="url(#clip0_20_99)">
<path d="M9.99697 19.7401C7.41449 19.7373 4.93856 18.7103 3.11237 16.8843C1.28619 15.0583 0.258887 12.5825 0.255859 9.99999C0.258887 7.41751 1.28619 4.94169 3.11237 3.11569C4.93856 1.2897 7.41449 0.26267 9.99697 0.259918C12.5793 0.262945 15.0549 1.2901 16.8809 3.11606C18.7069 4.94203 19.734 7.41769 19.737 9.99999C19.734 12.5823 18.7069 15.058 16.8809 16.8839C15.0549 18.7099 12.5793 19.737 9.99697 19.7401ZM9.99697 0.467862C7.46964 0.470613 5.0466 1.47574 3.25941 3.26273C1.47222 5.04973 0.46683 7.47266 0.463803 9.99999C0.46683 12.5273 1.47222 14.9503 3.25941 16.7372C5.0466 18.5242 7.46964 19.5294 9.99697 19.5321C12.5241 19.5291 14.9469 18.5238 16.7339 16.7369C18.5208 14.9499 19.5261 12.5271 19.5291 9.99999C19.5261 7.47284 18.5208 5.05007 16.7339 3.2631C14.9469 1.47614 12.5241 0.470888 9.99697 0.467862Z" fill="#BD2B2B"/>
<path d="M9.99609 20.0009C7.34486 19.9979 4.80308 18.9433 2.92837 17.0686C1.05366 15.1939 -0.000879251 12.6521 -0.00390625 10.0009C0.000220986 7.35036 1.05525 4.80965 2.92983 2.93584C4.80442 1.06203 7.34558 0.00806009 9.99609 0.0050354C12.6473 0.0080624 15.1891 1.0626 17.0638 2.93731C18.9385 4.81202 19.9931 7.3538 19.9961 10.005C19.992 12.6555 18.9369 15.1963 17.0623 17.0701C15.1878 18.9439 12.6466 19.9979 9.99609 20.0009ZM9.99609 0.732837C7.5378 0.735589 5.18098 1.71336 3.4427 3.45164C1.70442 5.18992 0.726648 7.54674 0.723896 10.005C0.727748 12.4626 1.70601 14.8184 3.44417 16.5557C5.18233 18.2931 7.53852 19.2703 9.99609 19.2731C12.4543 19.27 14.811 18.2922 16.5492 16.554C18.2874 14.8157 19.2653 12.4591 19.2683 10.0009C19.2642 7.54339 18.2858 5.18779 16.5477 3.45047C14.8096 1.71315 12.4536 0.735861 9.99609 0.732837Z" fill="#E86F26"/>
<path d="M9.95302 2.14804C7.87055 2.14804 5.87338 2.9753 4.40086 4.44782C2.92833 5.92035 2.10107 7.91752 2.10107 9.99999C2.10107 12.0825 2.92833 14.0796 4.40086 15.5521C5.87338 17.0247 7.87055 17.8519 9.95302 17.8519C12.0355 17.8519 14.0327 17.0247 15.5052 15.5521C16.9777 14.0796 17.805 12.0825 17.805 9.99999C17.805 7.91752 16.9777 5.92035 15.5052 4.44782C14.0327 2.9753 12.0355 2.14804 9.95302 2.14804ZM9.89999 4.60697C10.0472 4.60697 10.1885 4.66547 10.2926 4.76959C10.3967 4.87371 10.4552 5.01493 10.4552 5.16218C10.4552 5.30943 10.3967 5.45065 10.2926 5.55477C10.1885 5.6589 10.0472 5.71739 9.89999 5.71739C9.75274 5.71739 9.61152 5.6589 9.5074 5.55477C9.40328 5.45065 9.34479 5.30943 9.34479 5.16218C9.34479 5.01493 9.40328 4.87371 9.5074 4.76959C9.61152 4.66547 9.75274 4.60697 9.89999 4.60697ZM5.11002 10.5053C5.03715 10.5054 4.96498 10.4912 4.89763 10.4634C4.83027 10.4356 4.76906 10.3948 4.71749 10.3433C4.66592 10.2919 4.62501 10.2307 4.59709 10.1634C4.56918 10.0961 4.55481 10.024 4.55481 9.95112C4.55481 9.80387 4.6133 9.66265 4.71742 9.55853C4.82155 9.4544 4.96277 9.39591 5.11002 9.39591C5.25727 9.39591 5.39849 9.4544 5.50261 9.55853C5.60673 9.66265 5.66522 9.80387 5.66522 9.95112C5.66522 10.024 5.65086 10.0961 5.62294 10.1634C5.59503 10.2307 5.55411 10.2919 5.50255 10.3433C5.45098 10.3948 5.38976 10.4356 5.32241 10.4634C5.25505 10.4912 5.18288 10.5054 5.11002 10.5053ZM9.90415 15.4335C9.83097 15.4331 9.7586 15.4183 9.69119 15.3898C9.62378 15.3613 9.56267 15.3198 9.51136 15.2676C9.46005 15.2154 9.41957 15.1536 9.39223 15.0858C9.36489 15.0179 9.35124 14.9453 9.35206 14.8721C9.35206 14.7248 9.41056 14.5836 9.51468 14.4795C9.6188 14.3754 9.76002 14.3169 9.90727 14.3169C10.0545 14.3169 10.1957 14.3754 10.2999 14.4795C10.404 14.5836 10.4625 14.7248 10.4625 14.8721C10.463 14.9454 10.4491 15.018 10.4214 15.0858C10.3938 15.1537 10.353 15.2154 10.3013 15.2674C10.2497 15.3194 10.1883 15.3607 10.1207 15.3888C10.0531 15.417 9.98054 15.4315 9.90727 15.4315L9.90415 15.4335ZM14.0932 10.131C13.2215 10.4468 12.4229 10.9359 11.7455 11.5689C10.9762 12.2927 10.3839 13.1839 10.0144 14.1734C10.0063 14.1932 9.99225 14.21 9.97424 14.2216C9.95622 14.2331 9.93509 14.2388 9.91371 14.2379C9.89233 14.237 9.87175 14.2295 9.85478 14.2165C9.83781 14.2035 9.82528 14.1855 9.8189 14.1651C9.53798 13.2119 9.02416 12.3436 8.32378 11.6386C7.62403 10.9387 6.76168 10.4232 5.81391 10.1383C5.7931 10.1314 5.77499 10.1182 5.76215 10.1005C5.74931 10.0827 5.7424 10.0614 5.7424 10.0395C5.7424 10.0176 5.74931 9.99626 5.76215 9.97853C5.77499 9.96079 5.7931 9.94756 5.81391 9.94072C6.70059 9.65896 7.51181 9.17976 8.18654 8.53918C8.95163 7.80836 9.51621 6.89329 9.82617 5.88167C9.83273 5.8618 9.84513 5.84438 9.86175 5.83168C9.87837 5.81897 9.89843 5.81157 9.91932 5.81045C9.94021 5.80933 9.96095 5.81453 9.97883 5.82538C9.99671 5.83623 10.0109 5.85222 10.0196 5.87127C10.3896 6.73218 10.9127 7.51882 11.5635 8.19296C12.2838 8.93836 13.146 9.53193 14.0994 9.93864C14.1171 9.94733 14.132 9.96089 14.1423 9.97773C14.1526 9.99456 14.1579 10.014 14.1576 10.0337C14.1573 10.0535 14.1513 10.0727 14.1405 10.0892C14.1296 10.1057 14.1143 10.1187 14.0963 10.1268L14.0932 10.131ZM14.7877 10.5074C14.7148 10.5075 14.6427 10.4933 14.5753 10.4655C14.508 10.4377 14.4467 10.3969 14.3952 10.3454C14.3436 10.294 14.3027 10.2328 14.2748 10.1655C14.2469 10.0982 14.2325 10.0261 14.2325 9.9532C14.2325 9.80595 14.291 9.66473 14.3951 9.56061C14.4992 9.45649 14.6405 9.39799 14.7877 9.39799C14.9348 9.39827 15.0757 9.45688 15.1796 9.56097C15.2835 9.66506 15.3419 9.80613 15.3419 9.9532C15.3413 10.0993 15.2831 10.2392 15.1799 10.3426C15.0767 10.446 14.9369 10.5045 14.7908 10.5053L14.7877 10.5074Z" fill="#E86F26"/>
</g>
<defs>
<clipPath id="clip0_20_99">
<rect width="20" height="20" fill="white"/>
</clipPath>
</defs>
</svg>
