<svg width="121" height="31" viewBox="0 0 121 31" fill="none" xmlns="http://www.w3.org/2000/svg">
<path d="M14.9917 30.5778C13.0188 30.5817 11.0653 30.1807 9.2484 29.3989C7.49524 28.646 5.90251 27.5542 4.55856 26.1843C3.21114 24.818 2.13735 23.1989 1.39676 21.4167C0.627785 19.5695 0.233354 17.5836 0.237087 15.5778C0.233331 13.5721 0.627762 11.5861 1.39676 9.739C2.13741 7.95709 3.2112 6.33825 4.55856 4.97228C5.90236 3.60176 7.49511 2.5095 9.2484 1.75613C11.0653 0.974347 13.0188 0.573356 14.9917 0.577175C16.9647 0.573381 18.9181 0.97437 20.7351 1.75613C22.4883 2.50951 24.081 3.60176 25.4247 4.97228C26.7722 6.33857 27.8461 7.95779 28.5867 9.7401C29.3557 11.5872 29.7501 13.5732 29.7464 15.5789C29.7501 17.5847 29.3557 19.5706 28.5867 21.4178C27.846 23.2 26.7722 24.8191 25.4247 26.1854C24.0807 27.5549 22.4881 28.6463 20.7351 29.3989C18.9181 30.1806 16.9647 30.5816 14.9917 30.5778ZM14.9917 1.45897C7.33381 1.45897 1.10381 7.79257 1.10381 15.5778C1.10381 23.3631 7.33381 29.6967 14.9917 29.6967C22.6497 29.6967 28.8797 23.3629 28.8797 15.5778C28.8797 7.79279 22.6494 1.45897 14.9917 1.45897Z" fill="white"/>
<path d="M17.4349 7.28418C18.4629 7.28418 19.491 7.34013 20.519 7.44279V11.0821H18.3987C16.7372 11.0821 16.4252 11.8846 16.4252 13.0605V15.6547H20.3818L19.8681 19.7139H16.4259V30.1375H12.2953V19.7139H8.84399V15.6547H12.2953V12.6589C12.2953 9.1784 14.3882 7.28418 17.4349 7.28418Z" fill="white"/>
<path d="M60.501 30.5778C58.528 30.5817 56.5746 30.1807 54.7577 29.3989C53.0045 28.646 51.4118 27.5542 50.0678 26.1843C48.7204 24.818 47.6466 23.1989 46.906 21.4167C46.1371 19.5695 45.7426 17.5836 45.7464 15.5778C45.7426 13.5721 46.137 11.5861 46.906 9.739C47.6467 7.95709 48.7205 6.33825 50.0678 4.97228C51.4116 3.60176 53.0044 2.5095 54.7577 1.75613C56.5746 0.974347 58.528 0.573356 60.501 0.577175C62.4735 0.573528 64.4265 0.974515 66.243 1.75613C67.9967 2.50938 69.5898 3.60164 70.934 4.97228C72.2811 6.33827 73.3546 7.95712 74.0949 9.739C74.864 11.5861 75.2584 13.5721 75.2546 15.5778C75.2584 17.5836 74.864 19.5696 74.0949 21.4167C73.3544 23.1989 72.2806 24.8181 70.9331 26.1843C69.5892 27.5542 67.9964 28.646 66.2433 29.3989C64.4267 30.1805 62.4736 30.5815 60.501 30.5778ZM60.501 1.45897C52.8431 1.45897 46.6131 7.79257 46.6131 15.5778C46.6131 23.3631 52.8431 29.6967 60.501 29.6967C68.1589 29.6967 74.3887 23.3629 74.3887 15.5778C74.3887 7.79279 68.1579 1.45897 60.501 1.45897Z" fill="white"/>
<path d="M64.0059 7.14941H56.996C54.3525 7.14941 52.2102 9.3278 52.2102 12.015V19.141C52.2102 21.8285 54.353 24.0068 56.996 24.0068H64.0059C66.6494 24.0068 68.7919 21.8285 68.7919 19.141V12.015C68.7919 9.32758 66.6489 7.14941 64.0059 7.14941ZM67.2647 19.2663C67.2647 19.6905 67.1826 20.1105 67.0229 20.5024C66.8632 20.8943 66.6292 21.2503 66.3341 21.5502C66.0391 21.8502 65.6889 22.0881 65.3034 22.2504C64.9179 22.4127 64.5048 22.4962 64.0875 22.4961H56.9141C56.0715 22.4961 55.2635 22.1559 54.6677 21.5502C54.0719 20.9445 53.7372 20.1229 53.7372 19.2663V11.9736C53.7371 11.5495 53.8193 11.1295 53.9789 10.7376C54.1386 10.3457 54.3726 9.98967 54.6676 9.68975C54.9626 9.38983 55.3129 9.15193 55.6983 8.98962C56.0838 8.82732 56.4969 8.7438 56.9141 8.74383H64.0875C64.5048 8.74377 64.9179 8.82727 65.3034 8.98956C65.6889 9.15185 66.0392 9.38975 66.3342 9.68967C66.6292 9.9896 66.8633 10.3457 67.0229 10.7376C67.1826 11.1294 67.2648 11.5495 67.2647 11.9736V19.2663Z" fill="white"/>
<path d="M60.5007 11.2461C58.1245 11.2461 56.1982 13.2042 56.1982 15.62C56.1982 18.0359 58.1245 19.994 60.5007 19.994C62.8768 19.994 64.8033 18.0357 64.8033 15.62C64.8033 13.2044 62.8768 11.2461 60.5007 11.2461ZM60.5007 18.4555C59.761 18.4555 59.0516 18.1567 58.5286 17.625C58.0056 17.0932 57.7118 16.372 57.7118 15.62C57.7118 15.2477 57.7839 14.879 57.9241 14.5351C58.0642 14.1911 58.2696 13.8785 58.5286 13.6153C58.7876 13.352 59.095 13.1432 59.4334 13.0007C59.7718 12.8583 60.1344 12.785 60.5007 12.785C60.8669 12.7849 61.2296 12.8582 61.568 13.0007C61.9064 13.1431 62.2138 13.3519 62.4728 13.6152C62.7318 13.8785 62.9373 14.191 63.0774 14.535C63.2176 14.879 63.2898 15.2477 63.2898 15.62C63.2898 16.3721 62.9959 17.0933 62.4728 17.625C61.9498 18.1568 61.2404 18.4555 60.5007 18.4555Z" fill="white"/>
<path d="M65.5033 11.3876C65.7995 11.0864 65.7995 10.5981 65.5033 10.297C65.207 9.99578 64.7267 9.99578 64.4305 10.297C64.1342 10.5981 64.1342 11.0864 64.4305 11.3876C64.7267 11.6888 65.207 11.6888 65.5033 11.3876Z" fill="white"/>
<path d="M106.009 30.5778C104.036 30.5817 102.083 30.1807 100.266 29.3989C98.5128 28.646 96.9201 27.5542 95.5761 26.1843C94.2287 24.818 93.1549 23.1989 92.4143 21.4167C91.6454 19.5695 91.2509 17.5836 91.2547 15.5778C91.2509 13.5721 91.6453 11.5861 92.4143 9.739C93.155 7.95709 94.2288 6.33825 95.5761 4.97228C96.9199 3.60176 98.5127 2.5095 100.266 1.75613C102.083 0.974347 104.036 0.573356 106.009 0.577175C107.982 0.573528 109.935 0.974515 111.751 1.75613C113.505 2.50938 115.098 3.60164 116.442 4.97228C117.789 6.33827 118.863 7.95712 119.603 9.739C120.372 11.5861 120.767 13.5721 120.763 15.5778C120.767 17.5836 120.372 19.5696 119.603 21.4167C118.863 23.1989 117.789 24.8181 116.441 26.1843C115.097 27.5542 113.505 28.646 111.752 29.3989C109.935 30.1805 107.982 30.5815 106.009 30.5778ZM106.009 1.45897C98.3514 1.45897 92.1214 7.79257 92.1214 15.5778C92.1214 23.3631 98.3514 29.6967 106.009 29.6967C113.667 29.6967 119.897 23.3629 119.897 15.5778C119.897 7.79279 113.666 1.45897 106.009 1.45897Z" fill="white"/>
<g clip-path="url(#clip0_147_380)">
<path d="M103.024 24.5774C101.637 24.5764 100.263 24.318 98.9674 23.8147C98.5245 23.6414 98.0914 23.443 97.6703 23.2204C97.2938 23.0244 97.217 22.6805 97.2702 22.4243C97.3368 22.097 97.5936 21.8771 97.94 21.8506C97.9833 21.8473 98.0228 21.8466 98.0576 21.8461C99.2531 21.8314 100.427 21.5194 101.478 20.9372C101.519 20.9132 101.56 20.8916 101.599 20.8687C100.571 20.5467 99.7423 19.8808 99.1267 18.8802C98.7972 18.3466 98.9949 17.9422 99.1411 17.7487C99.1857 17.6891 99.2373 17.6353 99.2947 17.5885C99.1514 17.4977 99.0133 17.3987 98.881 17.2919C98.0809 16.6472 97.5493 15.8312 97.3008 14.8666C97.2048 14.4934 97.2933 14.1116 97.5378 13.8448C97.7014 13.6674 97.92 13.553 98.1567 13.5209C97.8627 13.0877 97.6465 12.6046 97.518 12.0943C97.2959 11.2367 97.2996 10.3876 97.5291 9.57095C97.6333 9.19994 97.8974 8.92066 98.2351 8.82365C98.5727 8.72664 98.9457 8.82485 99.2267 9.0878C99.2973 9.15383 99.3597 9.22011 99.4201 9.28422C99.4599 9.32625 99.4973 9.36587 99.5343 9.40261C101.321 11.1767 103.466 12.2167 105.916 12.4982C105.833 11.6138 105.995 10.7771 106.4 10.0058C106.773 9.29671 107.258 8.73312 107.842 8.32826C108.435 7.91811 109.132 7.67245 109.913 7.59777C110.578 7.53413 111.215 7.61458 111.804 7.83646C112.347 8.04105 112.855 8.36716 113.313 8.80708C113.813 8.68669 114.299 8.51433 114.764 8.29271C114.867 8.24469 114.978 8.19474 115.115 8.18081C115.222 8.16979 115.33 8.1843 115.43 8.22319C115.531 8.26208 115.621 8.32428 115.693 8.40486C115.77 8.48397 115.826 8.58059 115.859 8.68665C115.891 8.79272 115.898 8.90515 115.879 9.01455C115.854 9.16512 115.785 9.28639 115.74 9.36659C115.661 9.50729 115.575 9.64356 115.481 9.77482H115.492C115.835 9.77482 116.037 9.9895 116.126 10.1151C116.308 10.3528 116.3 10.6544 116.104 10.8914C115.657 11.4437 115.199 11.9 114.707 12.2808C114.728 12.8913 114.697 13.5025 114.615 14.1075C114.362 15.9715 113.749 17.6783 112.792 19.1801C110.672 22.5067 107.62 24.3154 103.719 24.5557C103.486 24.5703 103.254 24.5775 103.024 24.5774ZM98.9034 22.7523C99.0382 22.8112 99.1702 22.8654 99.3004 22.9156C100.69 23.4561 102.176 23.6882 103.659 23.5967C107.246 23.3757 110.053 21.7135 112 18.6564C112.881 17.2737 113.446 15.6987 113.68 13.9755C113.758 13.399 113.785 12.8166 113.761 12.2352C113.749 11.955 113.855 11.7278 114.078 11.5597C114.333 11.3662 114.574 11.1543 114.799 10.9258C114.582 10.9738 114.364 11.0141 114.142 11.0437C114.031 11.0585 113.919 11.0353 113.823 10.9778C113.727 10.9203 113.653 10.8318 113.612 10.7262C113.571 10.6207 113.565 10.5042 113.596 10.3952C113.627 10.2861 113.693 10.1907 113.783 10.1242C113.991 9.97052 114.191 9.81828 114.356 9.64611C114.427 9.57287 114.493 9.49866 114.555 9.42278C114.179 9.5663 113.794 9.68273 113.402 9.77121C113.146 9.82909 112.922 9.76449 112.738 9.57911C111.962 8.79988 111.04 8.45505 109.997 8.55494C108.761 8.67309 107.829 9.314 107.227 10.4604C106.857 11.1635 106.748 11.9415 106.902 12.7724C106.917 12.8552 106.964 13.1071 106.781 13.3149C106.66 13.4532 106.489 13.5149 106.271 13.4978C104.845 13.3871 103.499 13.044 102.271 12.4782C101.043 11.9125 99.9 11.1095 98.8749 10.0918C98.8278 10.0438 98.7827 9.99574 98.7396 9.95131C98.6864 9.89512 98.6363 9.84205 98.5871 9.79571C98.544 9.75561 98.5059 9.74312 98.4871 9.74768C98.4683 9.75224 98.4459 9.78154 98.4308 9.83509C98.2489 10.4835 98.2468 11.1606 98.425 11.8484C98.632 12.6478 99.0352 13.2628 99.6574 13.7284C99.6845 13.7487 99.7099 13.7713 99.7334 13.7959H99.7319L99.7381 13.8019C99.8131 13.877 99.8631 13.9744 99.8808 14.0802C99.8985 14.186 99.883 14.2948 99.8367 14.3911C99.7902 14.4891 99.7142 14.5693 99.6198 14.62C99.5254 14.6707 99.4176 14.6893 99.3121 14.6731C99.1676 14.6512 99.0629 14.6339 98.9728 14.6171C98.8648 14.5967 98.761 14.5727 98.6601 14.5491L98.5772 14.5299C98.5414 14.5218 98.5066 14.5129 98.4706 14.5038C98.428 14.493 98.3875 14.4826 98.353 14.4757C98.2958 14.4646 98.2485 14.4737 98.2233 14.5011C98.1925 14.535 98.2012 14.5921 98.2092 14.6231C98.4071 15.3915 98.817 16.0188 99.4623 16.5387C99.8567 16.8563 100.3 17.0773 100.818 17.2141C100.925 17.2426 101.02 17.3063 101.089 17.3954C101.157 17.4846 101.195 17.5942 101.197 17.7074C101.198 17.8206 101.162 17.9311 101.096 18.0219C101.03 18.1127 100.936 18.1787 100.829 18.2097C100.556 18.2892 100.278 18.3298 99.9277 18.3401L99.9042 18.3413C99.9084 18.3497 99.9139 18.3591 99.9204 18.3699C100.584 19.4486 101.515 20.0208 102.768 20.1193C102.87 20.1267 102.967 20.1654 103.047 20.2304C103.127 20.2953 103.185 20.3834 103.215 20.4831C103.246 20.5831 103.246 20.6903 103.216 20.7905C103.185 20.8906 103.125 20.9789 103.045 21.0436C102.732 21.2957 102.354 21.5445 101.921 21.7829C100.985 22.3011 99.9602 22.6305 98.9024 22.7528L98.9034 22.7523Z" fill="white"/>
</g>
<defs>
<clipPath id="clip0_147_380">
<rect width="19" height="17" fill="white" transform="translate(97.2546 7.57715)"/>
</clipPath>
</defs>
</svg>
