<svg width="447" height="628" viewBox="0 0 447 628" fill="none" xmlns="http://www.w3.org/2000/svg">
<rect x="2.58887" y="3.49158" width="441.822" height="621.624" stroke="#FFFBE2" stroke-width="5"/>
<rect x="18.874" y="21.1187" width="409.251" height="587.712" fill="#FFFBE2"/>
<g clip-path="url(#clip0_33_69)">
<path d="M226.56 312.307C232.865 318.267 240.615 322.484 249.048 324.541C257.48 326.597 266.304 326.424 274.649 324.037C304.751 316.3 238.488 269.005 226.56 312.307Z" fill="#FFF7CE"/>
<path d="M322.05 122.376C325.672 125.87 367.703 167.612 367.703 167.612C367.703 167.612 381.442 179.717 370.388 188.452C360.604 196.326 349.291 202.084 337.164 205.361C324.673 209.043 294.009 218.402 294.009 218.402C282.735 224.678 274.157 234.869 269.902 247.042C269.902 247.042 268.528 221.647 264.531 213.535C261.653 206.463 257.668 199.892 252.728 194.068C248.793 190.761 216.63 162.87 214.069 153.324C211.508 143.777 209.51 133.233 220.314 129.926C231.119 126.619 283.891 111.644 283.891 111.644C290.65 110.493 297.581 110.858 304.181 112.715C310.781 114.571 316.884 117.871 322.05 122.376Z" fill="#F4EBC9"/>
<path d="M275.335 323.663C272.898 324.001 270.417 323.802 268.065 323.079C265.713 322.357 263.547 321.13 261.72 319.482C259.001 317.387 256.911 314.585 255.677 311.383C254.444 308.181 254.114 304.702 254.726 301.325C255.975 296.646 269.465 245.17 271.027 241.114C272.588 237.058 278.083 220.024 294.821 214.596C311.558 209.168 346.531 199.122 350.153 198.124C353.776 197.125 365.017 195.316 368.015 186.456C371.012 177.596 370.701 173.977 368.577 169.422C373.475 173.455 377.079 178.835 378.944 184.896C382.603 193.693 383.283 203.443 380.88 212.662C378.008 223.019 365.142 273.372 363.268 278.988C361.395 284.604 349.779 302.449 335.54 306.816C321.301 311.184 275.335 323.663 275.335 323.663Z" fill="#E5DDBD"/>
<path d="M226.56 312.307C230.336 313.924 234.465 314.547 238.551 314.117C242.469 313.442 246.123 311.698 249.11 309.077C252.097 306.456 254.3 303.061 255.475 299.266C257.349 291.966 269.715 244.983 271.213 241.114C271.995 227.468 268.431 213.926 261.034 202.429C252.228 191.634 217.317 158.752 217.317 158.752C214.815 156.253 213.25 152.971 212.883 149.455C212.279 145.746 212.732 141.941 214.19 138.477C215.647 135.012 218.051 132.027 221.126 129.863C209.682 132.578 199.767 139.683 193.523 149.642C182.406 166.676 170.166 232.628 170.166 232.628C170.474 243.081 173.393 253.291 178.659 262.328C186.903 273.123 226.56 312.307 226.56 312.307Z" fill="#FFF7CE"/>
<path d="M269.09 219.962C269.528 221.584 269.903 223.082 270.152 224.392C271.597 229.863 272.02 235.553 271.401 241.176C270.027 244.608 259.91 283.044 256.537 295.71C256.163 297.27 255.85 298.518 255.6 299.266C254.513 303.12 252.346 306.584 249.355 309.25C246.476 311.983 242.802 313.731 238.864 314.241C234.752 314.646 230.604 314.002 226.81 312.37C226.435 311.995 187.09 273.061 179.159 262.453C173.849 253.408 170.906 243.172 170.603 232.691C170.603 232.067 183.093 166.614 194.022 149.705C198.47 142.782 204.677 137.162 212.009 133.42C215.036 131.799 218.273 130.603 221.627 129.863H222.188L221.752 130.175C218.676 132.321 216.273 135.297 214.825 138.754C213.376 142.212 212.941 146.01 213.57 149.705C213.976 153.178 215.512 156.422 217.942 158.939C218.317 158.939 252.791 192.134 261.659 202.616C265.273 207.843 267.8 213.742 269.09 219.962ZM226.685 312.182C230.441 313.794 234.548 314.417 238.614 313.992C242.507 313.315 246.136 311.575 249.101 308.965C252.066 306.355 254.251 302.977 255.414 299.204C255.414 298.455 255.913 297.207 256.35 295.647C259.722 283.168 269.84 244.546 271.151 241.114C271.804 235.511 271.38 229.836 269.902 224.392C268.547 216.542 265.523 209.074 261.034 202.491C252.29 191.884 217.817 158.815 217.317 158.815C214.785 156.311 213.216 152.998 212.883 149.455C212.599 146.102 212.895 142.725 213.758 139.472C214.811 135.595 217.256 132.241 220.627 130.05C217.484 130.834 214.444 131.986 211.572 133.482C204.299 137.257 198.125 142.845 193.648 149.705C182.781 166.489 170.54 231.443 170.353 232.628C170.642 243.064 173.564 253.259 178.847 262.266C186.841 272.873 225.748 311.309 226.622 312.182H226.685Z" fill="#FFF7CE"/>
<path d="M200.006 256.938C204.186 255.883 206.186 249.53 204.472 242.748C202.758 235.965 197.979 231.322 193.799 232.376C189.619 233.43 187.619 239.784 189.334 246.566C191.048 253.349 195.826 257.992 200.006 256.938Z" fill="#187B5C"/>
<path d="M207.801 229.062C211.981 228.008 213.98 221.655 212.266 214.872C210.552 208.09 205.774 203.446 201.593 204.501C197.413 205.555 195.414 211.908 197.128 218.691C198.842 225.473 203.62 230.117 207.801 229.062Z" fill="#187B5C"/>
<path d="M215.278 200.641C219.458 199.587 221.457 193.233 219.743 186.451C218.029 179.668 213.251 175.025 209.071 176.079C204.89 177.134 202.891 183.487 204.605 190.269C206.319 197.052 211.097 201.696 215.278 200.641Z" fill="#187B5C"/>
<path d="M230.761 287.915C234.942 286.86 236.941 280.507 235.227 273.725C233.513 266.942 228.735 262.299 224.554 263.353C220.374 264.408 218.375 270.761 220.089 277.543C221.803 284.326 226.581 288.969 230.761 287.915Z" fill="#187B5C"/>
<path d="M238.54 259.979C242.721 258.924 244.72 252.571 243.006 245.789C241.292 239.006 236.513 234.363 232.333 235.417C228.153 236.472 226.154 242.825 227.868 249.607C229.582 256.39 234.36 261.033 238.54 259.979Z" fill="#187B5C"/>
<path d="M246.077 231.48C250.258 230.426 252.257 224.073 250.543 217.29C248.829 210.508 244.051 205.864 239.87 206.919C235.69 207.973 233.691 214.326 235.405 221.109C237.119 227.891 241.897 232.535 246.077 231.48Z" fill="#187B5C"/>
<path d="M309.162 248.207C314.205 242.964 315.712 236.237 312.529 233.18C309.346 230.124 302.677 231.896 297.635 237.139C292.592 242.382 291.084 249.109 294.268 252.166C297.451 255.222 304.12 253.45 309.162 248.207Z" fill="#187B5C"/>
<path d="M298.637 295.533C303.799 290.166 305.363 283.299 302.13 280.195C298.897 277.091 292.091 278.925 286.929 284.292C281.766 289.659 280.203 296.526 283.436 299.63C286.669 302.734 293.474 300.9 298.637 295.533Z" fill="#187B5C"/>
<path d="M351.874 237.051C356.916 231.808 358.424 225.08 355.24 222.024C352.057 218.968 345.389 220.74 340.346 225.983C335.303 231.225 333.796 237.953 336.979 241.009C340.163 244.066 346.831 242.293 351.874 237.051Z" fill="#187B5C"/>
<path d="M340.969 280.287C346.012 275.044 347.519 268.317 344.336 265.261C341.152 262.204 334.484 263.977 329.441 269.219C324.398 274.462 322.891 281.19 326.074 284.246C329.258 287.302 335.926 285.53 340.969 280.287Z" fill="#187B5C"/>
<path d="M283.257 164.191C284.433 159.94 279.89 154.974 273.108 153.1C266.327 151.226 259.875 153.153 258.698 157.405C257.521 161.656 262.065 166.622 268.846 168.496C275.628 170.369 282.08 168.442 283.257 164.191Z" fill="#187B5C"/>
<path d="M326.079 174.466C327.271 170.232 322.761 165.26 316.006 163.362C309.252 161.464 302.809 163.358 301.617 167.593C300.425 171.827 304.935 176.799 311.69 178.697C318.444 180.595 324.887 178.701 326.079 174.466Z" fill="#187B5C"/>
<path d="M64.8087 448.017C64.0193 454.569 64.9518 461.214 67.5143 467.297C70.0768 473.38 74.1807 478.692 79.4223 482.708C97.721 497.621 96.7219 435.725 64.8087 448.017Z" fill="#FFF7CE"/>
<path d="M224.249 420.5C223.749 424.244 217.254 468.794 217.254 468.794C217.254 468.794 216.005 482.646 205.638 479.838C196.412 477.48 187.777 473.23 180.283 467.359C172.289 461.12 152.803 446.894 152.803 446.894C143.87 442.835 133.751 442.213 124.387 445.147C131.138 439.658 137.199 433.373 142.436 426.428C145.379 421.459 147.488 416.042 148.681 410.392C148.681 406.524 151.617 374.141 156.114 368.4C160.61 362.66 166.418 356.483 173.163 361.474C179.908 366.466 213.133 392.048 213.133 392.048C217.006 395.652 220.017 400.081 221.941 405.006C223.866 409.932 224.654 415.228 224.249 420.5Z" fill="#F4EBC9"/>
<path d="M80.046 483.083C78.7282 481.747 77.7209 480.138 77.0949 478.369C76.4689 476.601 76.2399 474.717 76.424 472.85C76.5149 470.253 77.2978 467.727 78.6921 465.534C80.0863 463.34 82.0417 461.558 84.3556 460.371C87.7905 459.061 125.449 444.023 128.572 443.15C132.968 441.515 137.676 440.89 142.347 441.322C147.018 441.754 151.53 443.232 155.551 445.646C166.48 453.445 188.401 470.23 190.649 472.039C192.898 473.848 199.081 479.838 205.951 477.655C212.82 475.471 214.694 473.661 216.567 470.229C216.309 475.045 214.661 479.683 211.821 483.582C208.058 489.801 202.385 494.638 195.646 497.371C188.027 500.304 151.429 515.216 147.183 516.589C137.116 518.883 126.554 517.325 117.58 512.222C108.462 505.545 80.046 483.083 80.046 483.083Z" fill="#E5DDBD"/>
<path d="M64.8081 448.017C65.5591 451.077 67.0859 453.892 69.242 456.191C71.425 458.28 74.1445 459.723 77.0989 460.362C80.0533 461.001 83.1274 460.81 85.9796 459.809C91.2881 457.688 125.699 443.961 128.697 443.15C137.393 437.411 144.075 429.099 147.807 419.377C150.368 409.145 154.927 372.955 154.927 372.955C155.322 370.31 156.625 367.884 158.612 366.092C160.61 364.039 163.144 362.589 165.926 361.905C168.708 361.221 171.627 361.331 174.349 362.223C167.503 356.463 158.668 353.618 149.743 354.299C134.318 355.235 88.4146 377.572 88.4146 377.572C82.1422 382.521 77.2055 388.955 74.051 396.291C70.8659 406.274 64.8081 448.017 64.8081 448.017Z" fill="#FFF7CE"/>
<path d="M140.563 432.231L138.315 434.851C135.62 438.223 132.315 441.06 128.572 443.213C125.886 443.961 97.7826 455.13 88.5396 458.811L85.9171 459.872C83.0072 460.885 79.874 461.08 76.861 460.433C73.9467 459.831 71.2877 458.35 69.242 456.191C67.1354 453.851 65.6537 451.018 64.9331 447.954C64.9331 447.518 71.1781 405.9 74.0509 396.104C77.2191 388.776 82.1535 382.345 88.4146 377.385C88.9142 377.385 134.505 355.048 149.806 354.112C156.057 353.699 162.306 354.948 167.917 357.731C170.169 358.903 172.266 360.349 174.163 362.036V362.348H173.725C171.024 361.436 168.119 361.316 165.352 362.001C162.585 362.687 160.073 364.149 158.112 366.217C156.133 368.015 154.833 370.438 154.427 373.08C154.427 373.392 149.868 409.332 147.308 419.502C145.895 424.137 143.606 428.458 140.563 432.231ZM64.9331 448.017C65.6241 451.042 67.0867 453.836 69.1795 456.128C71.3594 458.201 74.0711 459.631 77.0142 460.258C79.9574 460.886 83.0174 460.688 85.8546 459.685L88.4771 458.686C97.7201 455.005 125.949 443.774 128.572 443.025C132.272 440.888 135.535 438.073 138.19 434.727C142.391 430.351 145.588 425.113 147.558 419.377C150.118 409.269 154.677 373.33 154.739 372.955C155.167 370.289 156.489 367.847 158.487 366.029C160.321 364.347 162.435 362.996 164.732 362.036C167.589 360.952 170.743 360.952 173.6 362.036C171.683 360.464 169.586 359.124 167.355 358.043C161.747 355.32 155.529 354.095 149.306 354.486C134.13 355.36 88.8521 377.323 88.0403 377.697C81.7657 382.629 76.845 389.069 73.7384 396.416C70.9905 406.274 65.058 447.081 64.9331 448.017Z" fill="#FFF7CE"/>
<path d="M97.929 403.979C101.318 399.848 102.011 394.816 99.4771 392.741C96.9429 390.666 92.1409 392.332 88.7519 396.463C85.3628 400.594 84.6697 405.626 87.2039 407.701C89.7381 409.776 94.5399 408.11 97.929 403.979Z" fill="#187B5C"/>
<path d="M118.537 396.071C121.926 391.94 122.619 386.909 120.085 384.834C117.55 382.759 112.749 384.425 109.36 388.556C105.971 392.687 105.278 397.718 107.812 399.794C110.346 401.869 115.148 400.202 118.537 396.071Z" fill="#187B5C"/>
<path d="M139.286 387.782C142.675 383.651 143.367 378.62 140.833 376.545C138.299 374.47 133.497 376.136 130.108 380.267C126.719 384.398 126.026 389.429 128.56 391.504C131.094 393.58 135.897 391.913 139.286 387.782Z" fill="#187B5C"/>
<path d="M92.9041 436.739C96.2931 432.608 96.9863 427.577 94.4521 425.502C91.9179 423.427 87.116 425.093 83.727 429.224C80.3379 433.355 79.6451 438.386 82.1793 440.461C84.7135 442.536 89.515 440.87 92.9041 436.739Z" fill="#187B5C"/>
<path d="M113.498 428.809C116.887 424.678 117.58 419.647 115.046 417.571C112.512 415.496 107.71 417.163 104.321 421.294C100.932 425.425 100.239 430.456 102.773 432.531C105.307 434.607 110.109 432.94 113.498 428.809Z" fill="#187B5C"/>
<path d="M134.309 420.52C137.698 416.389 138.391 411.357 135.857 409.282C133.323 407.207 128.521 408.874 125.132 413.004C121.743 417.135 121.05 422.166 123.584 424.242C126.118 426.317 130.92 424.651 134.309 420.52Z" fill="#187B5C"/>
<path d="M152.213 464.11C152.641 460.795 148.524 457.532 143.017 456.821C137.509 456.11 132.697 458.221 132.269 461.537C131.84 464.852 135.957 468.115 141.465 468.826C146.972 469.536 151.784 467.425 152.213 464.11Z" fill="#187B5C"/>
<path d="M118.727 479.057C119.165 475.674 114.972 472.344 109.362 471.62C103.752 470.896 98.8491 473.052 98.4117 476.436C97.9742 479.819 102.167 483.149 107.777 483.873C113.387 484.597 118.29 482.441 118.727 479.057Z" fill="#187B5C"/>
<path d="M178.366 485.176C178.795 481.861 174.678 478.597 169.17 477.886C163.663 477.176 158.851 479.287 158.422 482.602C157.993 485.917 162.111 489.18 167.618 489.891C173.126 490.602 177.937 488.491 178.366 485.176Z" fill="#187B5C"/>
<path d="M147.014 498.053C147.443 494.738 143.325 491.474 137.818 490.764C132.311 490.053 127.499 492.164 127.07 495.479C126.641 498.794 130.759 502.058 136.266 502.768C141.773 503.479 146.585 501.368 147.014 498.053Z" fill="#187B5C"/>
<path d="M175.862 434.87C178.985 433.671 179.961 428.657 178.043 423.671C176.124 418.686 172.037 415.616 168.914 416.816C165.792 418.015 164.816 423.029 166.734 428.015C168.653 433 172.739 436.07 175.862 434.87Z" fill="#187B5C"/>
<path d="M207.132 422.012C210.255 420.813 211.231 415.799 209.313 410.814C207.394 405.828 203.307 402.759 200.185 403.958C197.062 405.158 196.086 410.172 198.004 415.157C199.923 420.143 204.009 423.212 207.132 422.012Z" fill="#187B5C"/>
</g>
<defs>
<clipPath id="clip0_33_69">
<rect width="318.008" height="406.568" fill="white" transform="translate(64.4956 111.02)"/>
</clipPath>
</defs>
</svg>
