<svg width="333" height="467" viewBox="0 0 333 467" fill="none" xmlns="http://www.w3.org/2000/svg">
<rect x="2.5" y="2.5" width="328" height="462" stroke="#FFFBE2" stroke-width="5"/>
<rect x="14" y="15" width="305" height="438" fill="#FFFBE2"/>
<g clip-path="url(#clip0_199_107)">
<path d="M57 51.9086L57 416.091C57 421.564 61.4479 426 66.9348 426H267.065C272.552 426 277 421.564 277 416.091V51.9086C277 46.4362 272.552 42 267.065 42H66.9348C61.4479 42 57 46.4362 57 51.9086Z" fill="#F2E39E"/>
<path d="M265.949 62.0293V405.971C265.949 407.98 265.149 409.908 263.724 411.329C262.299 412.75 260.367 413.548 258.352 413.548H75.5944C73.5887 413.534 71.6699 412.73 70.2567 411.31C68.8434 409.891 68.0502 407.971 68.0503 405.971V62.0293C68.0502 60.0289 68.8434 58.1095 70.2567 56.69C71.6699 55.2705 73.5887 54.4661 75.5944 54.4521H258.352C260.367 54.4521 262.299 55.2504 263.724 56.6714C265.149 58.0924 265.949 60.0197 265.949 62.0293ZM69.9629 405.971C69.9629 407.461 70.5562 408.889 71.6123 409.942C72.6684 410.996 74.1008 411.588 75.5944 411.588H258.352C259.094 411.595 259.829 411.454 260.516 411.174C261.202 410.894 261.826 410.481 262.35 409.958C262.874 409.435 263.289 408.813 263.57 408.129C263.85 407.444 263.991 406.71 263.984 405.971V62.0293C263.991 61.2873 263.85 60.5512 263.57 59.8636C263.29 59.176 262.877 58.5506 262.353 58.0234C261.83 57.4962 261.206 57.0778 260.52 56.7922C259.833 56.5066 259.096 56.3596 258.352 56.3596H75.5944C74.0959 56.3736 72.6637 56.9772 71.6091 58.0389C70.5545 59.1007 69.9628 60.5348 69.9629 62.0293V405.971Z" fill="#159662"/>
<path d="M145.191 184.536C145.185 184.975 145.091 185.407 144.916 185.81C144.742 186.212 144.489 186.576 144.174 186.881C143.858 187.186 143.485 187.426 143.076 187.588C142.667 187.749 142.231 187.828 141.791 187.821C141.32 187.881 140.841 187.84 140.387 187.701C139.933 187.561 139.514 187.327 139.158 187.014C138.801 186.701 138.516 186.315 138.32 185.884C138.125 185.452 138.023 184.983 138.023 184.51C138.023 184.036 138.125 183.567 138.32 183.136C138.516 182.704 138.801 182.318 139.158 182.005C139.514 181.692 139.933 181.458 140.387 181.319C140.841 181.179 141.32 181.138 141.791 181.198C142.684 181.198 143.541 181.548 144.177 182.172C144.813 182.797 145.177 183.646 145.191 184.536ZM139.347 184.536C139.354 184.849 139.423 185.158 139.55 185.445C139.676 185.731 139.858 185.99 140.085 186.207C140.312 186.423 140.579 186.593 140.872 186.707C141.165 186.82 141.477 186.875 141.791 186.868C142.264 186.857 142.723 186.707 143.11 186.436C143.497 186.165 143.795 185.786 143.966 185.347C144.137 184.907 144.174 184.427 144.071 183.967C143.969 183.506 143.732 183.087 143.39 182.761C143.048 182.435 142.618 182.217 142.152 182.135C141.686 182.054 141.207 182.111 140.774 182.302C140.341 182.492 139.975 182.805 139.721 183.203C139.467 183.601 139.337 184.065 139.347 184.536Z" fill="#159662"/>
<path d="M97.3766 208.857C97.5863 220.527 102.422 231.639 110.825 239.762C119.228 247.884 130.515 252.357 142.216 252.201C143.992 252.194 145.765 252.088 147.529 251.883C147.676 251.575 147.8 251.256 147.901 250.929C145.943 251.162 143.975 251.286 142.003 251.3C133.662 251.03 125.584 248.316 118.779 243.496C111.974 238.677 106.742 231.966 103.735 224.2C100.729 216.435 100.082 207.958 101.875 199.828C103.668 191.698 107.82 184.275 113.816 178.483C119.811 172.692 127.383 168.789 135.588 167.262C143.793 165.735 152.267 166.651 159.953 169.896C167.639 173.141 174.197 178.571 178.809 185.509C183.421 192.447 185.882 200.586 185.887 208.91C185.875 211.652 185.59 214.385 185.037 217.07C185.405 217.021 185.764 216.914 186.099 216.752C186.591 214.167 186.84 211.542 186.843 208.91C186.843 197.05 182.119 185.674 173.71 177.288C165.301 168.901 153.896 164.189 142.003 164.189C130.111 164.189 118.706 168.901 110.297 177.288C101.888 185.674 97.1641 197.05 97.1641 208.91" fill="#159662"/>
<path d="M100.936 208.858C101.019 214.195 102.156 219.464 104.281 224.363C106.406 229.262 109.477 233.696 113.32 237.411C117.164 241.126 121.703 244.049 126.679 246.014C131.655 247.979 136.971 248.947 142.322 248.863C144.474 248.867 146.623 248.707 148.751 248.386C148.776 248.051 148.776 247.715 148.751 247.38C146.553 247.718 144.333 247.895 142.11 247.909C134.002 247.69 126.16 244.975 119.66 240.137C113.159 235.298 108.319 228.573 105.801 220.883C103.284 213.193 103.213 204.914 105.598 197.182C107.983 189.45 112.708 182.643 119.124 177.694C125.541 172.746 133.335 169.898 141.438 169.54C149.541 169.183 157.557 171.335 164.386 175.699C171.215 180.064 176.523 186.429 179.583 193.921C182.643 201.413 183.304 209.666 181.477 217.548H182.486C183.146 214.715 183.484 211.818 183.496 208.911C183.496 197.963 179.136 187.464 171.374 179.723C163.613 171.982 153.086 167.633 142.11 167.633C131.134 167.633 120.607 171.982 112.845 179.723C105.084 187.464 100.724 197.963 100.724 208.911" fill="#159662"/>
<path d="M165.061 209.016C165.054 209.228 164.978 209.431 164.843 209.594C164.708 209.757 164.523 209.87 164.317 209.917C159.391 211.315 154.884 213.898 151.195 217.441C147.558 220.935 144.87 225.293 143.385 230.106C143.306 230.298 143.174 230.465 143.005 230.586C142.836 230.708 142.637 230.78 142.429 230.794C142.21 230.797 141.995 230.733 141.814 230.609C141.634 230.486 141.496 230.31 141.419 230.106C139.941 225.612 137.451 221.516 134.141 218.13C130.301 214.252 125.526 211.424 120.274 209.917C120.078 209.861 119.905 209.742 119.78 209.58C119.656 209.418 119.587 209.221 119.584 209.016C119.559 208.815 119.604 208.611 119.71 208.438C119.816 208.265 119.977 208.133 120.168 208.063C124.649 206.203 128.754 203.546 132.281 200.221C136.181 196.641 139.293 192.293 141.419 187.451C141.501 187.264 141.634 187.105 141.804 186.993C141.973 186.88 142.172 186.818 142.375 186.815C142.583 186.829 142.783 186.901 142.952 187.023C143.121 187.145 143.253 187.311 143.332 187.504C144.998 191.909 147.547 195.93 150.823 199.32C154.641 203.215 159.289 206.203 164.423 208.063C164.61 208.129 164.772 208.25 164.886 208.412C165 208.573 165.061 208.766 165.061 208.963M120.54 208.963C125.924 210.554 130.82 213.469 134.778 217.441C138.191 220.93 140.754 225.154 142.269 229.788C143.811 224.859 146.57 220.395 150.291 216.806C154.118 213.167 158.764 210.496 163.839 209.016C158.583 207.113 153.825 204.052 149.92 200.062C146.544 196.587 143.921 192.457 142.216 187.927C140 192.865 136.821 197.314 132.866 201.015C129.229 204.396 125.02 207.105 120.434 209.016" fill="#159662"/>
<path d="M120.54 209.122C120.561 209.808 120.377 210.484 120.011 211.064C119.644 211.644 119.112 212.102 118.484 212.379C117.855 212.656 117.157 212.739 116.481 212.619C115.804 212.498 115.179 212.179 114.685 211.701C114.192 211.224 113.852 210.611 113.71 209.94C113.568 209.269 113.63 208.571 113.888 207.936C114.146 207.3 114.588 206.756 115.158 206.373C115.728 205.989 116.399 205.784 117.087 205.784C117.533 205.777 117.977 205.858 118.392 206.022C118.807 206.186 119.186 206.43 119.507 206.74C119.827 207.05 120.084 207.42 120.261 207.829C120.438 208.237 120.533 208.677 120.54 209.122ZM114.643 209.122C114.622 209.621 114.751 210.115 115.015 210.539C115.279 210.963 115.664 211.299 116.121 211.502C116.578 211.706 117.086 211.767 117.579 211.679C118.071 211.591 118.526 211.357 118.884 211.008C119.242 210.659 119.486 210.211 119.585 209.721C119.684 209.232 119.634 208.724 119.44 208.264C119.246 207.804 118.918 207.412 118.499 207.14C118.079 206.868 117.587 206.728 117.087 206.738C116.768 206.731 116.452 206.787 116.156 206.904C115.859 207.021 115.59 207.195 115.362 207.417C115.134 207.639 114.953 207.905 114.83 208.197C114.707 208.49 114.643 208.805 114.643 209.122Z" fill="#159662"/>
<path d="M145.191 233.232C145.185 233.67 145.091 234.103 144.916 234.505C144.742 234.907 144.489 235.272 144.174 235.577C143.858 235.882 143.485 236.122 143.076 236.283C142.667 236.445 142.231 236.524 141.791 236.517C141.32 236.576 140.841 236.535 140.387 236.396C139.933 236.257 139.514 236.023 139.158 235.71C138.801 235.396 138.516 235.011 138.32 234.579C138.125 234.147 138.023 233.679 138.023 233.205C138.023 232.731 138.125 232.263 138.32 231.831C138.516 231.399 138.801 231.014 139.158 230.701C139.514 230.387 139.933 230.153 140.387 230.014C140.841 229.875 141.32 229.834 141.791 229.893C142.684 229.893 143.541 230.243 144.177 230.868C144.813 231.492 145.177 232.341 145.191 233.232ZM139.347 233.232C139.354 233.545 139.423 233.853 139.55 234.14C139.676 234.427 139.858 234.686 140.085 234.902C140.312 235.119 140.579 235.289 140.872 235.402C141.165 235.515 141.477 235.57 141.791 235.563C142.264 235.553 142.723 235.402 143.11 235.132C143.497 234.861 143.795 234.482 143.966 234.042C144.137 233.603 144.174 233.122 144.071 232.662C143.969 232.202 143.732 231.782 143.39 231.456C143.048 231.13 142.618 230.913 142.152 230.831C141.686 230.749 141.207 230.807 140.774 230.997C140.341 231.187 139.975 231.501 139.721 231.899C139.467 232.296 139.337 232.76 139.347 233.232Z" fill="#159662"/>
<path d="M170.958 209.122C170.979 209.808 170.795 210.484 170.429 211.064C170.062 211.644 169.531 212.102 168.902 212.379C168.273 212.656 167.575 212.739 166.899 212.619C166.222 212.498 165.597 212.179 165.103 211.701C164.61 211.224 164.27 210.611 164.128 209.94C163.986 209.269 164.048 208.571 164.306 207.936C164.564 207.3 165.006 206.756 165.576 206.373C166.146 205.989 166.818 205.784 167.505 205.784C167.951 205.777 168.395 205.858 168.81 206.022C169.225 206.186 169.604 206.43 169.925 206.74C170.245 207.05 170.502 207.42 170.679 207.829C170.856 208.237 170.951 208.677 170.958 209.122ZM165.061 209.122C165.04 209.621 165.169 210.115 165.433 210.539C165.696 210.963 166.082 211.299 166.539 211.502C166.996 211.706 167.504 211.767 167.997 211.679C168.489 211.591 168.944 211.357 169.302 211.008C169.66 210.659 169.904 210.211 170.003 209.721C170.102 209.232 170.052 208.724 169.858 208.264C169.664 207.804 169.337 207.412 168.917 207.14C168.497 206.868 168.005 206.728 167.505 206.738C167.187 206.731 166.87 206.787 166.574 206.904C166.277 207.021 166.008 207.195 165.78 207.417C165.552 207.639 165.371 207.905 165.248 208.197C165.124 208.49 165.061 208.805 165.061 209.122Z" fill="#159662"/>
<path d="M236.517 259.143C236.781 268.039 234.378 276.813 229.614 284.339C224.851 291.866 217.944 297.803 209.777 301.392C201.611 304.981 192.556 306.058 183.773 304.485C174.989 302.912 166.876 298.76 160.471 292.562C154.067 286.363 149.662 278.4 147.822 269.691C145.981 260.982 146.788 251.923 150.14 243.673C153.491 235.424 159.234 228.36 166.634 223.385C174.034 218.41 182.754 215.75 191.678 215.746C203.388 215.59 214.683 220.07 223.087 228.204C231.492 236.339 236.321 247.464 236.517 259.143ZM147.795 259.143C147.52 267.852 149.858 276.446 154.509 283.822C159.161 291.199 165.915 297.023 173.905 300.547C181.896 304.072 190.759 305.138 199.361 303.608C207.962 302.078 215.91 298.022 222.186 291.96C228.462 285.897 232.781 278.104 234.589 269.578C236.397 261.053 235.613 252.183 232.336 244.105C229.059 236.027 223.439 229.108 216.195 224.236C208.952 219.363 200.415 216.757 191.678 216.753C180.226 216.583 169.174 220.95 160.947 228.897C152.721 236.844 147.99 247.721 147.795 259.143Z" fill="#159662"/>
<path d="M150.079 259.143C149.836 267.375 152.061 275.493 156.47 282.457C160.879 289.42 167.271 294.914 174.828 298.233C182.385 301.553 190.763 302.549 198.891 301.092C207.019 299.636 214.526 295.794 220.451 290.058C226.377 284.322 230.452 276.953 232.154 268.894C233.857 260.835 233.11 252.452 230.008 244.819C226.907 237.186 221.593 230.65 214.745 226.046C207.898 221.443 199.829 218.982 191.571 218.978C186.202 218.894 180.868 219.867 175.875 221.84C170.883 223.814 166.33 226.75 162.476 230.48C158.622 234.211 155.544 238.662 153.416 243.581C151.289 248.499 150.155 253.787 150.079 259.143ZM163.042 259.407C163.01 258.813 163.158 258.222 163.468 257.712C163.777 257.203 164.233 256.798 164.776 256.55C165.319 256.303 165.925 256.224 166.514 256.324C167.102 256.424 167.647 256.699 168.077 257.112C168.507 257.526 168.803 258.059 168.925 258.642C169.047 259.225 168.991 259.831 168.763 260.382C168.535 260.932 168.146 261.402 167.647 261.729C167.147 262.056 166.561 262.226 165.964 262.216C165.207 262.216 164.48 261.924 163.934 261.4C163.389 260.876 163.069 260.162 163.042 259.407ZM194.228 283.835C194.26 284.428 194.113 285.016 193.806 285.524C193.499 286.033 193.046 286.438 192.506 286.687C191.966 286.936 191.363 287.018 190.776 286.922C190.189 286.826 189.644 286.557 189.212 286.149C188.78 285.741 188.48 285.213 188.352 284.634C188.223 284.054 188.272 283.45 188.492 282.898C188.712 282.346 189.092 281.873 189.584 281.54C190.076 281.206 190.658 281.027 191.253 281.026C192.019 281.012 192.76 281.298 193.316 281.824C193.873 282.349 194.2 283.071 194.228 283.835ZM220.26 259.355C220.281 259.948 220.124 260.534 219.807 261.036C219.491 261.539 219.031 261.936 218.487 262.176C217.942 262.415 217.338 262.486 216.753 262.379C216.167 262.273 215.627 261.993 215.202 261.578C214.778 261.162 214.488 260.628 214.37 260.047C214.253 259.465 214.313 258.861 214.543 258.314C214.773 257.766 215.162 257.3 215.66 256.975C216.159 256.651 216.743 256.483 217.338 256.493C218.104 256.493 218.839 256.793 219.386 257.328C219.932 257.863 220.246 258.591 220.26 259.355ZM192.209 238.16C194.029 242.958 196.872 247.304 200.541 250.9C204.21 254.495 208.618 257.253 213.46 258.984C213.566 259.019 213.659 259.086 213.724 259.176C213.79 259.267 213.825 259.375 213.825 259.487C213.825 259.599 213.79 259.707 213.724 259.798C213.659 259.888 213.566 259.956 213.46 259.991C208.465 261.428 203.891 264.046 200.125 267.621C196.441 271.179 193.718 275.608 192.209 280.497C192.162 280.598 192.087 280.684 191.993 280.744C191.899 280.805 191.79 280.837 191.678 280.837C191.566 280.837 191.456 280.805 191.362 280.744C191.268 280.684 191.193 280.598 191.146 280.497C189.647 275.942 187.121 271.791 183.762 268.362C179.876 264.428 175.049 261.547 169.736 259.991C169.63 259.956 169.537 259.888 169.472 259.798C169.406 259.707 169.371 259.599 169.371 259.487C169.371 259.375 169.406 259.267 169.472 259.176C169.537 259.086 169.63 259.019 169.736 258.984C174.243 257.089 178.379 254.416 181.955 251.089C185.89 247.454 189.036 243.054 191.199 238.16C191.234 238.054 191.302 237.961 191.393 237.896C191.483 237.83 191.592 237.795 191.704 237.795C191.816 237.795 191.925 237.83 192.016 237.896C192.106 237.961 192.174 238.054 192.209 238.16ZM194.228 234.61C194.26 235.202 194.113 235.791 193.806 236.299C193.499 236.807 193.046 237.212 192.506 237.462C191.966 237.711 191.363 237.793 190.776 237.697C190.189 237.601 189.644 237.331 189.212 236.924C188.78 236.516 188.48 235.988 188.352 235.408C188.223 234.829 188.272 234.224 188.492 233.673C188.712 233.121 189.092 232.648 189.584 232.314C190.076 231.981 190.658 231.802 191.253 231.801C192.019 231.787 192.76 232.073 193.316 232.598C193.873 233.124 194.2 233.846 194.228 234.61Z" fill="#159662"/>
<path d="M115.758 249.605C116.665 249.636 117.543 249.933 118.282 250.458C119.02 250.983 119.588 251.713 119.913 252.558C120.239 253.402 120.308 254.324 120.112 255.208C119.916 256.091 119.464 256.897 118.812 257.526C118.159 258.155 117.336 258.579 116.444 258.744C115.552 258.91 114.631 258.81 113.796 258.457C112.96 258.103 112.248 257.513 111.746 256.759C111.245 256.004 110.978 255.12 110.977 254.215C111.005 252.973 111.523 251.793 112.418 250.93C113.313 250.067 114.513 249.591 115.758 249.605Z" fill="#159662"/>
<path d="M133.769 254.533C134.675 254.564 135.553 254.861 136.292 255.386C137.03 255.911 137.598 256.641 137.924 257.486C138.249 258.33 138.318 259.252 138.122 260.135C137.926 261.019 137.474 261.825 136.822 262.454C136.17 263.083 135.346 263.507 134.454 263.672C133.562 263.837 132.641 263.737 131.806 263.384C130.97 263.031 130.258 262.441 129.756 261.686C129.255 260.932 128.988 260.047 128.987 259.142C129.015 257.901 129.533 256.721 130.428 255.858C131.323 254.994 132.524 254.518 133.769 254.533Z" fill="#159662"/>
<path d="M201.24 204.513C202.149 204.544 203.029 204.842 203.769 205.37C204.509 205.897 205.076 206.631 205.4 207.478C205.724 208.326 205.789 209.25 205.589 210.135C205.389 211.02 204.931 211.826 204.274 212.453C203.616 213.079 202.788 213.499 201.893 213.658C200.997 213.817 200.075 213.71 199.24 213.348C198.406 212.987 197.697 212.389 197.202 211.628C196.708 210.866 196.449 209.977 196.459 209.07C196.465 208.455 196.595 207.848 196.841 207.284C197.086 206.721 197.442 206.211 197.887 205.787C198.333 205.362 198.859 205.031 199.435 204.812C200.011 204.593 200.624 204.491 201.24 204.513Z" fill="#159662"/>
<path d="M219.57 210.447C220.476 210.478 221.354 210.775 222.093 211.3C222.831 211.825 223.399 212.556 223.724 213.4C224.05 214.245 224.119 215.166 223.923 216.05C223.727 216.933 223.275 217.74 222.623 218.369C221.97 218.998 221.147 219.421 220.255 219.587C219.363 219.752 218.442 219.652 217.606 219.299C216.771 218.946 216.058 218.355 215.557 217.601C215.056 216.847 214.789 215.962 214.788 215.057C214.795 214.44 214.924 213.831 215.169 213.264C215.414 212.697 215.769 212.185 216.214 211.756C216.658 211.327 217.184 210.991 217.76 210.766C218.336 210.541 218.951 210.433 219.57 210.447Z" fill="#159662"/>
</g>
<defs>
<clipPath id="clip0_199_107">
<rect width="220" height="384" fill="white" transform="translate(57 42)"/>
</clipPath>
</defs>
</svg>
