<svg width="183" height="99" viewBox="0 0 183 99" fill="none" xmlns="http://www.w3.org/2000/svg">
<g clip-path="url(#clip0_147_356)">
<path d="M13.4053 47.8551H13.1511H12.9749C12.0767 47.7132 11.1591 47.7531 10.2766 47.9721H10.2181C10.0812 48.7526 9.91501 49.2209 9.71948 49.2697C11.1087 48.8508 12.5864 48.8204 13.9917 49.1819C13.6783 48.8015 13.4755 48.3426 13.4053 47.8551ZM11.9483 24.4404L10.9707 24.5185C10.8142 29.9722 10.9707 42.938 10.2668 47.5332C11.282 47.3693 12.3152 47.3463 13.3368 47.4649C12.32 43.0356 11.8994 30.9185 11.9483 24.4795V24.4404Z" fill="#FFF7CE"/>
<path d="M97.747 14.5579C99.9859 12.2749 100.817 12.392 101.198 12.7725C101.579 13.153 101.286 14.5383 99.6145 16.1091C97.5614 18.0603 94.296 20.0896 94.1689 19.953C94.0418 19.8164 95.5375 16.8018 97.747 14.5579Z" fill="#FFF7CE"/>
<path d="M39.567 29.0162L39.1858 28.5967C39.1498 28.5578 39.1051 28.5279 39.0552 28.5098C39.0054 28.4916 38.952 28.4856 38.8994 28.4923C38.8467 28.499 38.7963 28.5182 38.7526 28.5482C38.7089 28.5783 38.673 28.6183 38.648 28.665C37.2609 31.5332 36.4347 34.6391 36.2137 37.8162C36.2137 37.8447 36.2023 37.872 36.1822 37.8921C36.162 37.9122 36.1348 37.9235 36.1063 37.9235C36.0777 37.9235 36.0503 37.9122 36.0301 37.8921C36.01 37.872 35.9986 37.8447 35.9986 37.8162C35.9844 33.4508 36.5565 29.1032 37.6997 24.8894C37.7116 24.8407 37.7121 24.7899 37.7014 24.7408C37.6907 24.6918 37.6692 24.6459 37.6381 24.6064C37.6071 24.567 37.5673 24.5351 37.5221 24.5131C37.477 24.4912 37.4273 24.4797 37.377 24.4796H27.4637C27.4128 24.4777 27.3622 24.4878 27.316 24.5092C27.2697 24.5305 27.2293 24.5625 27.1978 24.6025C27.1664 24.6424 27.1447 24.6893 27.1348 24.7391C27.125 24.789 27.1271 24.8405 27.141 24.8894C29.4483 34.4894 29.4581 39.8065 27.2095 49.4163C27.1975 49.4658 27.1971 49.5175 27.2083 49.5672C27.2195 49.617 27.2421 49.6635 27.2742 49.7032C27.3064 49.7428 27.3474 49.7745 27.3938 49.7958C27.4402 49.8171 27.4909 49.8274 27.542 49.826H37.4553C37.5058 49.8248 37.5553 49.8122 37.6002 49.789C37.6451 49.7659 37.6841 49.7329 37.7143 49.6924C37.7444 49.652 37.7651 49.6052 37.7744 49.5557C37.7838 49.5061 37.7816 49.4551 37.7682 49.4065L37.5042 48.3723C36.2431 41.5431 37.5042 33.2601 39.6257 29.4358C39.6705 29.3713 39.6895 29.2923 39.6787 29.2145C39.6678 29.1368 39.6278 29.066 39.567 29.0162ZM53.1271 13.6211H59.384C58.5553 11.4875 57.2477 9.57183 55.5615 8.02111C52.4944 5.03394 48.3794 3.36055 44.0936 3.3577C29.3115 3.44551 23.0349 21.4065 13.0042 20.5089C12.8107 21.0738 12.6539 21.6507 12.5349 22.2358C13.379 22.3675 14.2323 22.4327 15.0867 22.4309C24.8633 22.4309 33.32 13.3479 44.4163 13.3187C47.4293 13.2448 50.3796 14.1828 52.7946 15.9821C52.6969 15.465 52.5895 15.0065 52.482 14.4796C52.4559 14.3812 52.4528 14.278 52.4731 14.1782C52.4935 14.0784 52.5366 13.9846 52.5992 13.904C52.6622 13.8224 52.7419 13.7551 52.8328 13.7063C52.9238 13.6576 53.0241 13.6285 53.1271 13.6211ZM17.7459 4.98698C16.6942 3.09523 14.938 1.69316 12.8576 1.08454C11.8043 0.789333 10.7156 0.638336 9.62154 0.635742C-1.37706 0.635742 -1.25983 18.6845 11 21.9626C11.0879 21.3187 11.2346 20.5187 11.2835 20.2162C9.9893 19.8427 8.85841 19.0463 8.072 17.9547C7.2856 16.8631 6.88935 15.5396 6.94684 14.1964C7.00433 12.8532 7.51216 11.5682 8.38898 10.5475C9.26579 9.52675 10.4607 8.82946 11.7821 8.56745C13.011 8.31645 14.2782 8.31645 15.507 8.56745C16.3674 8.71379 17.2864 8.72357 18.2543 8.91869C18.3017 8.92867 18.3506 8.92818 18.3978 8.91729C18.4449 8.9064 18.4892 8.88537 18.5274 8.85563C18.5655 8.82589 18.5967 8.78817 18.6188 8.74514C18.6408 8.70211 18.6532 8.65479 18.6551 8.60649C18.6947 7.33787 18.3764 6.08368 17.7361 4.98698H17.7459ZM12.6719 20.4601C12.2819 20.4072 11.8961 20.3257 11.5181 20.2162C11.4399 20.6455 11.3226 21.3967 11.2346 21.9626C11.5853 22.0547 11.9412 22.1264 12.3003 22.1772C12.4128 21.5948 12.5663 21.021 12.7598 20.4601H12.6719ZM54.1244 29.065C53.0857 29.7006 51.8916 30.0381 50.6732 30.0406C49.0228 30.0184 47.436 29.4016 46.2053 28.304C45.5035 27.6872 45.0269 26.8553 44.85 25.939C44.6731 25.0226 44.8058 24.0735 45.2276 23.2406C45.5146 22.5663 45.9821 21.9839 46.5788 21.5571C47.1755 21.1303 47.8782 20.8757 48.6103 20.8211C49.1497 20.8471 49.6728 21.0152 50.1261 21.3082C50.5795 21.6012 50.947 22.0088 51.1914 22.4894C52.3841 24.5187 51.0448 26.0016 49.9791 26.0016C49.4414 26.0016 49.0015 25.6016 49.0015 24.6552C49.0066 24.3575 49.085 24.0656 49.2299 23.8053C49.3748 23.545 49.5817 23.3242 49.8323 23.1626C49.8787 23.1324 49.9169 23.0913 49.9433 23.0427C49.9697 22.9941 49.9837 22.9398 49.9837 22.8845C49.9837 22.8293 49.9697 22.7749 49.9433 22.7264C49.9169 22.6778 49.8787 22.6366 49.8323 22.6065C49.494 22.4216 49.1134 22.3274 48.7277 22.3333C48.1904 22.3623 47.6762 22.56 47.2583 22.8981C46.8405 23.2363 46.5404 23.6977 46.401 24.2162C46.304 24.658 46.3043 25.1155 46.4019 25.5571C46.4996 25.9987 46.6922 26.4139 46.9664 26.7739C47.2407 27.1339 47.5901 27.4301 47.9904 27.6421C48.3907 27.8541 48.8325 27.9768 49.285 28.0016C51.866 28.0016 53.2836 24.4406 51.9246 22.148C51.4219 21.324 50.6967 20.6582 49.8321 20.2268C48.9675 19.7954 47.9985 19.6159 47.0364 19.7089C38.3548 19.8553 36.8686 31.5821 47.398 31.6309C49.7737 31.6863 52.1259 31.1499 54.2416 30.0699L54.1244 29.065ZM59.5014 13.904H53.1271C53.0703 13.9044 53.0142 13.9178 52.9634 13.9432C52.9125 13.9685 52.8682 14.0052 52.8338 14.0504C52.7973 14.0947 52.7714 14.1467 52.7579 14.2024C52.7443 14.2582 52.7436 14.3163 52.7557 14.3723C52.8926 14.9707 53.0196 15.5853 53.1369 16.2162C53.9323 16.8827 54.6474 17.639 55.2681 18.4699C56.0092 19.4268 56.5307 20.5343 56.796 21.7144C57.0612 22.8944 57.0636 24.1181 56.8031 25.2992C56.4797 26.7384 55.6289 28.005 54.4177 28.8504C54.4177 29.2114 54.4177 29.5626 54.4177 29.9138C59.9708 26.7821 61.6914 19.8748 59.4917 13.904H59.5014Z" fill="#FFF7CE"/>
<path d="M76.9428 41.1721C77.0912 38.9711 77.5181 36.7977 78.2136 34.7038C78.6835 33.2861 79.011 31.8252 79.1912 30.3428C78.6699 28.556 77.861 26.8657 76.796 25.3379C76.7503 25.263 76.7261 25.1769 76.7261 25.0891C76.7261 25.0014 76.7503 24.9153 76.796 24.8404C75.4739 24.0826 73.9326 23.797 72.426 24.0306C68.3785 24.616 63.5488 28.1282 62.1215 36.2355C62.1092 36.3252 62.0629 36.4068 61.9918 36.4631C61.9208 36.5195 61.8306 36.5463 61.7403 36.5379C61.651 36.5332 61.5667 36.4958 61.5035 36.4327C61.4403 36.3697 61.4027 36.2855 61.398 36.1964C61.2249 32.3564 61.2675 28.5098 61.5252 24.6745C61.7264 21.198 62.1871 17.7412 62.9036 14.333C62.917 14.2793 62.9179 14.2231 62.906 14.169C62.8941 14.1148 62.8698 14.0642 62.8351 14.0208C62.7984 13.979 62.7534 13.9452 62.7029 13.9217C62.6524 13.8982 62.5975 13.8854 62.5418 13.8843H59.4818H53.1075C53.0507 13.8846 52.9946 13.898 52.9438 13.9234C52.8929 13.9488 52.8486 13.9855 52.8142 14.0306C52.7777 14.0749 52.7518 14.1269 52.7383 14.1826C52.7247 14.2384 52.724 14.2965 52.7361 14.3526C52.873 14.9509 53 15.5656 53.1173 16.1965C53.8663 20.3658 54.2945 24.5863 54.3981 28.8209C54.3981 29.1818 54.3981 29.5331 54.3981 29.8843C54.6155 36.4499 54.0841 43.0189 52.8142 49.4648C52.8021 49.5193 52.803 49.5758 52.8166 49.63C52.8301 49.6842 52.8561 49.7345 52.8925 49.777C52.9258 49.8233 52.9698 49.8608 53.0209 49.8863C53.072 49.9118 53.1287 49.9245 53.1858 49.9233H62.669C62.7225 49.9232 62.7755 49.9118 62.8244 49.89C62.8732 49.8681 62.9169 49.8363 62.9526 49.7964C62.9898 49.7563 63.017 49.7081 63.0323 49.6556C63.0476 49.6031 63.0503 49.5478 63.0404 49.494C62.6596 46.9823 62.4832 44.4439 62.5127 41.9038C62.5267 39.8639 62.7262 37.8296 63.1089 35.8258C63.5431 33.0862 64.6479 30.4958 66.3254 28.2843C66.6312 27.8575 67.0216 27.4979 67.4723 27.2277C67.923 26.9575 68.4243 26.7825 68.9455 26.7135C69.9818 26.7135 70.6955 27.533 70.9008 28.9574C71.282 31.4355 70.5195 34.7428 69.7178 38.2648C68.7402 42.3136 67.8213 46.5086 68.5936 49.6208C68.6137 49.7033 68.6616 49.7764 68.7292 49.8279C68.7968 49.8794 68.88 49.9062 68.965 49.9038H78.458C78.5223 49.904 78.5856 49.888 78.642 49.8573C78.6984 49.8266 78.7461 49.7822 78.7807 49.7282C78.8115 49.6713 78.8277 49.6076 78.8277 49.5428C78.8277 49.4781 78.8115 49.4144 78.7807 49.3575C77.4782 46.8302 76.8456 44.0123 76.9428 41.1721Z" fill="#FFF7CE"/>
<path d="M103.281 49.4552C101.081 39.9235 101.061 34.6064 103.212 25.065C103.225 25.0093 103.226 24.9515 103.214 24.8956C103.202 24.8397 103.178 24.7871 103.143 24.7415C103.109 24.6959 103.065 24.6584 103.014 24.6317C102.963 24.605 102.908 24.5897 102.851 24.5869H93.5727C93.5179 24.5888 93.4641 24.6025 93.4151 24.6269C93.3662 24.6514 93.3232 24.6861 93.2889 24.7287C93.2546 24.7713 93.2298 24.8207 93.2163 24.8737C93.2029 24.9267 93.201 24.9819 93.2108 25.0357C95.87 42.2357 91.7736 47.8747 88.7722 47.8845C87.5404 47.8845 85.7417 46.3039 85.4972 44.5479C84.6858 39.2113 88.43 30.7235 86.9831 24.8894C86.9622 24.8083 86.916 24.7361 86.8508 24.6834C86.7857 24.6307 86.7052 24.6003 86.6215 24.5966H77.324C77.2789 24.5866 77.2323 24.5866 77.1872 24.5966C77.1368 24.6172 77.0928 24.6509 77.06 24.6942C77.0248 24.7224 76.9978 24.7595 76.9817 24.8015C76.9534 24.8523 76.9387 24.9093 76.9387 24.9674C76.9387 25.0254 76.9534 25.0825 76.9817 25.1333C77.96 26.5588 78.7303 28.1158 79.2695 29.7576C79.2695 29.9137 79.3576 30.0503 79.3967 30.1967C79.4358 30.343 79.4748 30.4698 79.5139 30.5967C81.2834 37.6016 77.06 42.6552 79.2891 47.4844C80.0223 49.6503 82.7793 50.4698 84.9497 50.4113C88.0782 50.3137 90.708 49.6601 93.856 44.8991C93.9733 44.7138 94.2178 44.7918 94.1885 44.9967C93.9538 46.382 93.6606 47.8455 93.3087 49.4064C93.2957 49.4621 93.2951 49.5199 93.307 49.5758C93.3189 49.6317 93.3429 49.6842 93.3774 49.7298C93.4119 49.7754 93.4559 49.8129 93.5066 49.8396C93.5572 49.8663 93.6131 49.8817 93.6703 49.8845H102.909C102.963 49.8835 103.016 49.8713 103.064 49.8486C103.113 49.8259 103.156 49.7933 103.191 49.7528C103.226 49.7122 103.252 49.6647 103.268 49.6135C103.283 49.5622 103.288 49.5083 103.281 49.4552Z" fill="#FFF7CE"/>
<path d="M145.212 17.5333C145.212 17.5333 142.279 19.7675 143.159 20.9382C143.893 21.9138 145.31 21.2114 146.092 20.187C146.38 19.6721 146.781 19.229 147.266 18.891C147.75 18.5531 148.305 18.329 148.888 18.2358C149.749 18.2358 150.785 18.5187 152.418 20.5968C152.429 20.6149 152.447 20.628 152.468 20.6337C152.489 20.6394 152.511 20.6372 152.531 20.6275C152.55 20.6179 152.565 20.6014 152.573 20.5814C152.581 20.5613 152.581 20.539 152.574 20.5187C152.212 19.4748 151.205 17.0748 149.504 16.6163C148.764 16.4642 148.001 16.4672 147.262 16.6251C146.523 16.7829 145.825 17.0922 145.212 17.5333Z" fill="#FFF7CE"/>
<path d="M140.138 48.7919L139.962 48.4113C139.385 47.9541 138.854 47.4411 138.378 46.8796C137.326 45.6076 136.532 44.1428 136.042 42.5675C135.499 40.8338 135.225 39.0276 135.23 37.2114C135.217 35.4007 135.477 33.5982 136.003 31.865C136.081 31.6243 136.159 31.3902 136.237 31.1626C136.1 29.8021 135.801 28.4627 135.348 27.1723C135.018 26.145 134.363 25.2521 133.482 24.6276C132.6 24.0031 131.54 23.6807 130.459 23.7089C126.549 23.7089 121.66 27.5333 120.126 35.5431C120.114 35.6054 120.08 35.6617 120.031 35.7022C119.982 35.7427 119.92 35.7649 119.857 35.7649C119.793 35.7649 119.731 35.7427 119.682 35.7022C119.633 35.6617 119.6 35.6054 119.588 35.5431C119.239 28.4935 119.744 21.4277 121.093 14.4992C121.117 14.3918 121.116 14.2804 121.09 14.1735C121.065 14.0665 121.015 13.9667 120.946 13.8814C120.876 13.7961 120.789 13.7275 120.689 13.6808C120.589 13.634 120.48 13.6103 120.37 13.6114H111.463C111.354 13.6118 111.246 13.6365 111.148 13.6839C111.049 13.7313 110.963 13.8001 110.894 13.8852C110.826 13.9703 110.777 14.0696 110.752 14.1759C110.727 14.2821 110.726 14.3926 110.75 14.4992C112.92 24.2553 112.969 39.2991 110.857 49.065C110.834 49.1716 110.835 49.2821 110.86 49.3883C110.885 49.4946 110.933 49.5939 111.002 49.679C111.07 49.7641 111.157 49.8329 111.255 49.8802C111.354 49.9276 111.462 49.9524 111.571 49.9528H120.565C120.671 49.9526 120.775 49.9297 120.87 49.8858C120.966 49.8419 121.051 49.778 121.119 49.6984C121.188 49.6188 121.239 49.5253 121.268 49.4245C121.297 49.3236 121.304 49.2177 121.289 49.1138C119.177 34.3236 124.222 26.7626 127.067 26.7431C127.976 26.7431 128.67 27.4357 128.885 28.8699C129.687 34.1187 125.219 43.5041 126.539 49.3577C126.578 49.5194 126.671 49.663 126.802 49.7657C126.934 49.8683 127.096 49.9239 127.262 49.9235H139.473C139.608 49.9296 139.743 49.8988 139.861 49.8343C139.98 49.7699 140.079 49.6743 140.148 49.5578C140.216 49.4413 140.251 49.3085 140.25 49.1735C140.248 49.0385 140.209 48.9065 140.138 48.7919Z" fill="#FFF7CE"/>
<path d="M147.656 53.3578C147.248 53.3617 146.85 53.486 146.511 53.7152C146.173 53.9443 145.911 54.2681 145.757 54.6458C145.602 55.0235 145.564 55.4382 145.645 55.8379C145.726 56.2375 145.924 56.6043 146.214 56.892C146.503 57.1797 146.872 57.3755 147.273 57.4548C147.674 57.5341 148.089 57.4935 148.467 57.3379C148.845 57.1822 149.168 56.9187 149.396 56.5802C149.624 56.2418 149.747 55.8437 149.749 55.4359C149.757 55.1599 149.708 54.8852 149.606 54.6288C149.503 54.3723 149.35 54.1395 149.153 53.9448C148.957 53.75 148.723 53.5975 148.466 53.4965C148.208 53.3956 147.933 53.3484 147.656 53.3578ZM147.529 23.7578C145.082 23.6582 142.669 24.3697 140.669 25.7816C138.669 27.1934 137.193 29.2261 136.472 31.5627C135.847 33.3964 135.543 35.3237 135.573 37.2603C135.573 41.8066 137.117 45.7383 140.002 48.148C142.148 49.8807 144.848 50.7846 147.608 50.6944C155.429 50.6944 159.662 44.7724 159.642 37.1822C159.623 29.592 155.302 23.7188 147.529 23.7383V23.7578ZM149.622 25.309C154.852 24.6749 151.812 48.4505 145.799 49.1627C139.786 49.8749 143.237 26.0408 149.622 25.2895V25.309Z" fill="#FFF7CE"/>
<path d="M151.254 25.9138C151.08 25.642 150.833 25.4246 150.541 25.2865C150.248 25.1485 149.923 25.0954 149.602 25.1333C148.57 25.3233 147.649 25.8947 147.021 26.7333C146.149 27.7841 145.449 28.9663 144.948 30.2357C143.634 33.4745 142.833 36.8975 142.573 40.3821C142.443 41.9516 142.469 43.53 142.651 45.0943C142.75 46.2581 143.133 47.38 143.765 48.3626C143.956 48.6593 144.217 48.9039 144.526 49.0742C144.835 49.2446 145.182 49.3353 145.535 49.3382H145.819C147.324 49.1528 148.752 47.5918 149.954 44.8016C151.302 41.426 152.113 37.8612 152.359 34.2358C152.652 30.2651 152.252 27.2504 151.254 25.9138ZM152.056 34.1577C151.809 37.7548 151.008 41.2923 149.68 44.6455C149.229 45.7738 148.602 46.8241 147.823 47.7577C147.314 48.4031 146.588 48.8432 145.779 48.9968C145.436 49.0404 145.087 48.9867 144.772 48.8418C144.457 48.6969 144.19 48.4666 144 48.1772C143.022 46.8699 142.602 44.0309 142.876 40.3724C143.132 36.9154 143.923 33.519 145.222 30.304C145.715 29.0679 146.398 27.9159 147.246 26.8894C147.83 26.1115 148.684 25.5792 149.641 25.3967H149.817C150.058 25.4002 150.294 25.4637 150.504 25.5812C150.714 25.6988 150.891 25.8667 151.02 26.0699C151.6 27.0349 151.935 28.1267 151.997 29.2504C152.172 30.8806 152.192 32.5238 152.056 34.1577ZM151.254 25.9138C151.08 25.642 150.833 25.4246 150.541 25.2865C150.248 25.1485 149.923 25.0954 149.602 25.1333C148.57 25.3233 147.649 25.8947 147.021 26.7333C146.149 27.7841 145.449 28.9663 144.948 30.2357C143.634 33.4745 142.833 36.8975 142.573 40.3821C142.443 41.9516 142.469 43.53 142.651 45.0943C142.75 46.2581 143.133 47.38 143.765 48.3626C143.956 48.6593 144.217 48.9039 144.526 49.0742C144.835 49.2446 145.182 49.3353 145.535 49.3382H145.819C147.324 49.1528 148.752 47.5918 149.954 44.8016C151.302 41.426 152.113 37.8612 152.359 34.2358C152.652 30.2651 152.252 27.2504 151.254 25.9138ZM152.056 34.1577C151.809 37.7548 151.008 41.2923 149.68 44.6455C149.229 45.7738 148.602 46.8241 147.823 47.7577C147.314 48.4031 146.588 48.8432 145.779 48.9968C145.436 49.0404 145.087 48.9867 144.772 48.8418C144.457 48.6969 144.19 48.4666 144 48.1772C143.022 46.8699 142.602 44.0309 142.876 40.3724C143.132 36.9154 143.923 33.519 145.222 30.304C145.715 29.0679 146.398 27.9159 147.246 26.8894C147.83 26.1115 148.684 25.5792 149.641 25.3967H149.817C150.058 25.4002 150.294 25.4637 150.504 25.5812C150.714 25.6988 150.891 25.8667 151.02 26.0699C151.6 27.0349 151.935 28.1267 151.997 29.2504C152.172 30.8806 152.192 32.5238 152.056 34.1577ZM151.254 25.9138C151.08 25.642 150.833 25.4246 150.541 25.2865C150.248 25.1485 149.923 25.0954 149.602 25.1333C148.57 25.3233 147.649 25.8947 147.021 26.7333C146.149 27.7841 145.449 28.9663 144.948 30.2357C143.634 33.4745 142.833 36.8975 142.573 40.3821C142.443 41.9516 142.469 43.53 142.651 45.0943C142.75 46.2581 143.133 47.38 143.765 48.3626C143.956 48.6593 144.217 48.9039 144.526 49.0742C144.835 49.2446 145.182 49.3353 145.535 49.3382H145.819C147.324 49.1528 148.752 47.5918 149.954 44.8016C151.302 41.426 152.113 37.8612 152.359 34.2358C152.652 30.2651 152.252 27.2504 151.254 25.9138ZM152.056 34.1577C151.809 37.7548 151.008 41.2923 149.68 44.6455C149.229 45.7738 148.602 46.8241 147.823 47.7577C147.314 48.4031 146.588 48.8432 145.779 48.9968C145.436 49.0404 145.087 48.9867 144.772 48.8418C144.457 48.6969 144.19 48.4666 144 48.1772C143.022 46.8699 142.602 44.0309 142.876 40.3724C143.132 36.9154 143.923 33.519 145.222 30.304C145.715 29.0679 146.398 27.9159 147.246 26.8894C147.83 26.1115 148.684 25.5792 149.641 25.3967H149.817C150.058 25.4002 150.294 25.4637 150.504 25.5812C150.714 25.6988 150.891 25.8667 151.02 26.0699C151.6 27.0349 151.935 28.1267 151.997 29.2504C152.172 30.8806 152.192 32.5238 152.056 34.1577ZM151.254 25.9138C151.08 25.642 150.833 25.4246 150.541 25.2865C150.248 25.1485 149.923 25.0954 149.602 25.1333C148.57 25.3233 147.649 25.8947 147.021 26.7333C146.149 27.7841 145.449 28.9663 144.948 30.2357C143.634 33.4745 142.833 36.8975 142.573 40.3821C142.443 41.9516 142.469 43.53 142.651 45.0943C142.75 46.2581 143.133 47.38 143.765 48.3626C143.956 48.6593 144.217 48.9039 144.526 49.0742C144.835 49.2446 145.182 49.3353 145.535 49.3382H145.819C147.324 49.1528 148.752 47.5918 149.954 44.8016C151.302 41.426 152.113 37.8612 152.359 34.2358C152.652 30.2651 152.252 27.2504 151.254 25.9138ZM152.056 34.1577C151.809 37.7548 151.008 41.2923 149.68 44.6455C149.229 45.7738 148.602 46.8241 147.823 47.7577C147.314 48.4031 146.588 48.8432 145.779 48.9968C145.436 49.0404 145.087 48.9867 144.772 48.8418C144.457 48.6969 144.19 48.4666 144 48.1772C143.022 46.8699 142.602 44.0309 142.876 40.3724C143.132 36.9154 143.923 33.519 145.222 30.304C145.715 29.0679 146.398 27.9159 147.246 26.8894C147.83 26.1115 148.684 25.5792 149.641 25.3967H149.817C150.058 25.4002 150.294 25.4637 150.504 25.5812C150.714 25.6988 150.891 25.8667 151.02 26.0699C151.6 27.0349 151.935 28.1267 151.997 29.2504C152.172 30.8806 152.192 32.5238 152.056 34.1577ZM151.254 25.9138C151.08 25.642 150.833 25.4246 150.541 25.2865C150.248 25.1485 149.923 25.0954 149.602 25.1333C148.57 25.3233 147.649 25.8947 147.021 26.7333C146.149 27.7841 145.449 28.9663 144.948 30.2357C143.634 33.4745 142.833 36.8975 142.573 40.3821C142.443 41.9516 142.469 43.53 142.651 45.0943C142.75 46.2581 143.133 47.38 143.765 48.3626C143.956 48.6593 144.217 48.9039 144.526 49.0742C144.835 49.2446 145.182 49.3353 145.535 49.3382H145.819C147.324 49.1528 148.752 47.5918 149.954 44.8016C151.302 41.426 152.113 37.8612 152.359 34.2358C152.652 30.2651 152.252 27.2504 151.254 25.9138ZM152.056 34.1577C151.809 37.7548 151.008 41.2923 149.68 44.6455C149.229 45.7738 148.602 46.8241 147.823 47.7577C147.314 48.4031 146.588 48.8432 145.779 48.9968C145.436 49.0404 145.087 48.9867 144.772 48.8418C144.457 48.6969 144.19 48.4666 144 48.1772C143.022 46.8699 142.602 44.0309 142.876 40.3724C143.132 36.9154 143.923 33.519 145.222 30.304C145.715 29.0679 146.398 27.9159 147.246 26.8894C147.83 26.1115 148.684 25.5792 149.641 25.3967H149.817C150.058 25.4002 150.294 25.4637 150.504 25.5812C150.714 25.6988 150.891 25.8667 151.02 26.0699C151.6 27.0349 151.935 28.1267 151.997 29.2504C152.172 30.8806 152.192 32.5238 152.056 34.1577ZM151.254 25.9138C151.08 25.642 150.833 25.4246 150.541 25.2865C150.248 25.1485 149.923 25.0954 149.602 25.1333C148.57 25.3233 147.649 25.8947 147.021 26.7333C146.149 27.7841 145.449 28.9663 144.948 30.2357C143.634 33.4745 142.833 36.8975 142.573 40.3821C142.443 41.9516 142.469 43.53 142.651 45.0943C142.75 46.2581 143.133 47.38 143.765 48.3626C143.956 48.6593 144.217 48.9039 144.526 49.0742C144.835 49.2446 145.182 49.3353 145.535 49.3382H145.819C147.324 49.1528 148.752 47.5918 149.954 44.8016C151.302 41.426 152.113 37.8612 152.359 34.2358C152.652 30.2651 152.252 27.2504 151.254 25.9138ZM152.056 34.1577C151.809 37.7548 151.008 41.2923 149.68 44.6455C149.229 45.7738 148.602 46.8241 147.823 47.7577C147.314 48.4031 146.588 48.8432 145.779 48.9968C145.436 49.0404 145.087 48.9867 144.772 48.8418C144.457 48.6969 144.19 48.4666 144 48.1772C143.022 46.8699 142.602 44.0309 142.876 40.3724C143.132 36.9154 143.923 33.519 145.222 30.304C145.715 29.0679 146.398 27.9159 147.246 26.8894C147.83 26.1115 148.684 25.5792 149.641 25.3967H149.817C150.058 25.4002 150.294 25.4637 150.504 25.5812C150.714 25.6988 150.891 25.8667 151.02 26.0699C151.6 27.0349 151.935 28.1267 151.997 29.2504C152.172 30.8806 152.192 32.5238 152.056 34.1577ZM151.254 25.9138C151.08 25.642 150.833 25.4246 150.541 25.2865C150.248 25.1485 149.923 25.0954 149.602 25.1333C148.57 25.3233 147.649 25.8947 147.021 26.7333C146.149 27.7841 145.449 28.9663 144.948 30.2357C143.634 33.4745 142.833 36.8975 142.573 40.3821C142.443 41.9516 142.469 43.53 142.651 45.0943C142.75 46.2581 143.133 47.38 143.765 48.3626C143.956 48.6593 144.217 48.9039 144.526 49.0742C144.835 49.2446 145.182 49.3353 145.535 49.3382H145.819C147.324 49.1528 148.752 47.5918 149.954 44.8016C151.302 41.426 152.113 37.8612 152.359 34.2358C152.652 30.2651 152.252 27.2504 151.254 25.9138ZM152.056 34.1577C151.809 37.7548 151.008 41.2923 149.68 44.6455C149.229 45.7738 148.602 46.8241 147.823 47.7577C147.314 48.4031 146.588 48.8432 145.779 48.9968C145.436 49.0404 145.087 48.9867 144.772 48.8418C144.457 48.6969 144.19 48.4666 144 48.1772C143.022 46.8699 142.602 44.0309 142.876 40.3724C143.132 36.9154 143.923 33.519 145.222 30.304C145.715 29.0679 146.398 27.9159 147.246 26.8894C147.83 26.1115 148.684 25.5792 149.641 25.3967H149.817C150.058 25.4002 150.294 25.4637 150.504 25.5812C150.714 25.6988 150.891 25.8667 151.02 26.0699C151.6 27.0349 151.935 28.1267 151.997 29.2504C152.172 30.8806 152.192 32.5238 152.056 34.1577ZM151.254 25.9138C151.08 25.642 150.833 25.4246 150.541 25.2865C150.248 25.1485 149.923 25.0954 149.602 25.1333C148.57 25.3233 147.649 25.8947 147.021 26.7333C146.149 27.7841 145.449 28.9663 144.948 30.2357C143.634 33.4745 142.833 36.8975 142.573 40.3821C142.443 41.9516 142.469 43.53 142.651 45.0943C142.75 46.2581 143.133 47.38 143.765 48.3626C143.956 48.6593 144.217 48.9039 144.526 49.0742C144.835 49.2446 145.182 49.3353 145.535 49.3382H145.819C147.324 49.1528 148.752 47.5918 149.954 44.8016C151.302 41.426 152.113 37.8612 152.359 34.2358C152.652 30.2651 152.252 27.2504 151.254 25.9138ZM152.056 34.1577C151.809 37.7548 151.008 41.2923 149.68 44.6455C149.229 45.7738 148.602 46.8241 147.823 47.7577C147.314 48.4031 146.588 48.8432 145.779 48.9968C145.436 49.0404 145.087 48.9867 144.772 48.8418C144.457 48.6969 144.19 48.4666 144 48.1772C143.022 46.8699 142.602 44.0309 142.876 40.3724C143.132 36.9154 143.923 33.519 145.222 30.304C145.715 29.0679 146.398 27.9159 147.246 26.8894C147.83 26.1115 148.684 25.5792 149.641 25.3967H149.817C150.058 25.4002 150.294 25.4637 150.504 25.5812C150.714 25.6988 150.891 25.8667 151.02 26.0699C151.6 27.0349 151.935 28.1267 151.997 29.2504C152.172 30.8806 152.192 32.5238 152.056 34.1577ZM151.254 25.9138C151.08 25.642 150.833 25.4246 150.541 25.2865C150.248 25.1485 149.923 25.0954 149.602 25.1333C148.57 25.3233 147.649 25.8947 147.021 26.7333C146.149 27.7841 145.449 28.9663 144.948 30.2357C143.634 33.4745 142.833 36.8975 142.573 40.3821C142.443 41.9516 142.469 43.53 142.651 45.0943C142.75 46.2581 143.133 47.38 143.765 48.3626C143.956 48.6593 144.217 48.9039 144.526 49.0742C144.835 49.2446 145.182 49.3353 145.535 49.3382H145.819C147.324 49.1528 148.752 47.5918 149.954 44.8016C151.302 41.426 152.113 37.8612 152.359 34.2358C152.652 30.2651 152.252 27.2504 151.254 25.9138ZM152.056 34.1577C151.809 37.7548 151.008 41.2923 149.68 44.6455C149.229 45.7738 148.602 46.8241 147.823 47.7577C147.314 48.4031 146.588 48.8432 145.779 48.9968C145.436 49.0404 145.087 48.9867 144.772 48.8418C144.457 48.6969 144.19 48.4666 144 48.1772C143.022 46.8699 142.602 44.0309 142.876 40.3724C143.132 36.9154 143.923 33.519 145.222 30.304C145.715 29.0679 146.398 27.9159 147.246 26.8894C147.83 26.1115 148.684 25.5792 149.641 25.3967H149.817C150.058 25.4002 150.294 25.4637 150.504 25.5812C150.714 25.6988 150.891 25.8667 151.02 26.0699C151.6 27.0349 151.935 28.1267 151.997 29.2504C152.172 30.8806 152.192 32.5238 152.056 34.1577ZM151.254 25.9138C151.08 25.642 150.833 25.4246 150.541 25.2865C150.248 25.1485 149.923 25.0954 149.602 25.1333C148.57 25.3233 147.649 25.8947 147.021 26.7333C146.149 27.7841 145.449 28.9663 144.948 30.2357C143.634 33.4745 142.833 36.8975 142.573 40.3821C142.443 41.9516 142.469 43.53 142.651 45.0943C142.75 46.2581 143.133 47.38 143.765 48.3626C143.956 48.6593 144.217 48.9039 144.526 49.0742C144.835 49.2446 145.182 49.3353 145.535 49.3382H145.819C147.324 49.1528 148.752 47.5918 149.954 44.8016C151.302 41.426 152.113 37.8612 152.359 34.2358C152.652 30.2651 152.252 27.2504 151.254 25.9138ZM152.056 34.1577C151.809 37.7548 151.008 41.2923 149.68 44.6455C149.229 45.7738 148.602 46.8241 147.823 47.7577C147.314 48.4031 146.588 48.8432 145.779 48.9968C145.436 49.0404 145.087 48.9867 144.772 48.8418C144.457 48.6969 144.19 48.4666 144 48.1772C143.022 46.8699 142.602 44.0309 142.876 40.3724C143.132 36.9154 143.923 33.519 145.222 30.304C145.715 29.0679 146.398 27.9159 147.246 26.8894C147.83 26.1115 148.684 25.5792 149.641 25.3967H149.817C150.058 25.4002 150.294 25.4637 150.504 25.5812C150.714 25.6988 150.891 25.8667 151.02 26.0699C151.6 27.0349 151.935 28.1267 151.997 29.2504C152.172 30.8806 152.192 32.5238 152.056 34.1577ZM151.254 25.9138C151.08 25.642 150.833 25.4246 150.541 25.2865C150.248 25.1485 149.923 25.0954 149.602 25.1333C148.57 25.3233 147.649 25.8947 147.021 26.7333C146.149 27.7841 145.449 28.9663 144.948 30.2357C143.634 33.4745 142.833 36.8975 142.573 40.3821C142.443 41.9516 142.469 43.53 142.651 45.0943C142.75 46.2581 143.133 47.38 143.765 48.3626C143.956 48.6593 144.217 48.9039 144.526 49.0742C144.835 49.2446 145.182 49.3353 145.535 49.3382H145.819C147.324 49.1528 148.752 47.5918 149.954 44.8016C151.302 41.426 152.113 37.8612 152.359 34.2358C152.652 30.2651 152.252 27.2504 151.254 25.9138ZM152.056 34.1577C151.809 37.7548 151.008 41.2923 149.68 44.6455C149.229 45.7738 148.602 46.8241 147.823 47.7577C147.314 48.4031 146.588 48.8432 145.779 48.9968C145.436 49.0404 145.087 48.9867 144.772 48.8418C144.457 48.6969 144.19 48.4666 144 48.1772C143.022 46.8699 142.602 44.0309 142.876 40.3724C143.132 36.9154 143.923 33.519 145.222 30.304C145.715 29.0679 146.398 27.9159 147.246 26.8894C147.83 26.1115 148.684 25.5792 149.641 25.3967H149.817C150.058 25.4002 150.294 25.4637 150.504 25.5812C150.714 25.6988 150.891 25.8667 151.02 26.0699C151.6 27.0349 151.935 28.1267 151.997 29.2504C152.172 30.8806 152.192 32.5238 152.056 34.1577ZM151.254 25.9138C151.08 25.642 150.833 25.4246 150.541 25.2865C150.248 25.1485 149.923 25.0954 149.602 25.1333C148.57 25.3233 147.649 25.8947 147.021 26.7333C146.149 27.7841 145.449 28.9663 144.948 30.2357C143.634 33.4745 142.833 36.8975 142.573 40.3821C142.443 41.9516 142.469 43.53 142.651 45.0943C142.75 46.2581 143.133 47.38 143.765 48.3626C143.956 48.6593 144.217 48.9039 144.526 49.0742C144.835 49.2446 145.182 49.3353 145.535 49.3382H145.819C147.324 49.1528 148.752 47.5918 149.954 44.8016C151.302 41.426 152.113 37.8612 152.359 34.2358C152.652 30.2651 152.252 27.2504 151.254 25.9138ZM152.056 34.1577C151.809 37.7548 151.008 41.2923 149.68 44.6455C149.229 45.7738 148.602 46.8241 147.823 47.7577C147.314 48.4031 146.588 48.8432 145.779 48.9968C145.436 49.0404 145.087 48.9867 144.772 48.8418C144.457 48.6969 144.19 48.4666 144 48.1772C143.022 46.8699 142.602 44.0309 142.876 40.3724C143.132 36.9154 143.923 33.519 145.222 30.304C145.715 29.0679 146.398 27.9159 147.246 26.8894C147.83 26.1115 148.684 25.5792 149.641 25.3967H149.817C150.058 25.4002 150.294 25.4637 150.504 25.5812C150.714 25.6988 150.891 25.8667 151.02 26.0699C151.6 27.0349 151.935 28.1267 151.997 29.2504C152.172 30.8806 152.192 32.5238 152.056 34.1577ZM151.254 25.9138C151.08 25.642 150.833 25.4246 150.541 25.2865C150.248 25.1485 149.923 25.0954 149.602 25.1333C148.57 25.3233 147.649 25.8947 147.021 26.7333C146.149 27.7841 145.449 28.9663 144.948 30.2357C143.634 33.4745 142.833 36.8975 142.573 40.3821C142.443 41.9516 142.469 43.53 142.651 45.0943C142.75 46.2581 143.133 47.38 143.765 48.3626C143.956 48.6593 144.217 48.9039 144.526 49.0742C144.835 49.2446 145.182 49.3353 145.535 49.3382H145.819C147.324 49.1528 148.752 47.5918 149.954 44.8016C151.302 41.426 152.113 37.8612 152.359 34.2358C152.652 30.2651 152.252 27.2504 151.254 25.9138ZM152.056 34.1577C151.809 37.7548 151.008 41.2923 149.68 44.6455C149.229 45.7738 148.602 46.8241 147.823 47.7577C147.314 48.4031 146.588 48.8432 145.779 48.9968C145.436 49.0404 145.087 48.9867 144.772 48.8418C144.457 48.6969 144.19 48.4666 144 48.1772C143.022 46.8699 142.602 44.0309 142.876 40.3724C143.132 36.9154 143.923 33.519 145.222 30.304C145.715 29.0679 146.398 27.9159 147.246 26.8894C147.83 26.1115 148.684 25.5792 149.641 25.3967H149.817C150.058 25.4002 150.294 25.4637 150.504 25.5812C150.714 25.6988 150.891 25.8667 151.02 26.0699C151.6 27.0349 151.935 28.1267 151.997 29.2504C152.172 30.8806 152.192 32.5238 152.056 34.1577ZM151.254 25.9138C151.08 25.642 150.833 25.4246 150.541 25.2865C150.248 25.1485 149.923 25.0954 149.602 25.1333C148.57 25.3233 147.649 25.8947 147.021 26.7333C146.149 27.7841 145.449 28.9663 144.948 30.2357C143.634 33.4745 142.833 36.8975 142.573 40.3821C142.443 41.9516 142.469 43.53 142.651 45.0943C142.75 46.2581 143.133 47.38 143.765 48.3626C143.956 48.6593 144.217 48.9039 144.526 49.0742C144.835 49.2446 145.182 49.3353 145.535 49.3382H145.819C147.324 49.1528 148.752 47.5918 149.954 44.8016C151.302 41.426 152.113 37.8612 152.359 34.2358C152.652 30.2651 152.252 27.2504 151.254 25.9138ZM152.056 34.1577C151.809 37.7548 151.008 41.2923 149.68 44.6455C149.229 45.7738 148.602 46.8241 147.823 47.7577C147.314 48.4031 146.588 48.8432 145.779 48.9968C145.436 49.0404 145.087 48.9867 144.772 48.8418C144.457 48.6969 144.19 48.4666 144 48.1772C143.022 46.8699 142.602 44.0309 142.876 40.3724C143.132 36.9154 143.923 33.519 145.222 30.304C145.715 29.0679 146.398 27.9159 147.246 26.8894C147.83 26.1115 148.684 25.5792 149.641 25.3967H149.817C150.058 25.4002 150.294 25.4637 150.504 25.5812C150.714 25.6988 150.891 25.8667 151.02 26.0699C151.6 27.0349 151.935 28.1267 151.997 29.2504C152.172 30.8806 152.192 32.5238 152.056 34.1577ZM147.529 23.7382C145.082 23.6385 142.669 24.3501 140.669 25.7619C138.669 27.1738 137.193 29.2065 136.472 31.5431C135.847 33.3768 135.543 35.304 135.573 37.2406C135.573 41.787 137.117 45.7187 140.002 48.1285C142.148 49.8611 144.848 50.7649 147.608 50.6748C155.429 50.6748 159.662 44.7529 159.642 37.1626C159.623 29.5724 155.302 23.7187 147.529 23.7382ZM147.608 50.4992C144.769 50.5796 142.001 49.6023 139.845 47.7577C137.244 45.4553 135.739 41.7967 135.719 37.2114C135.695 35.3921 135.963 33.5807 136.511 31.8455C137.193 29.4822 138.649 27.4149 140.646 25.9737C142.643 24.5325 145.067 23.8004 147.529 23.8943C154.764 23.8943 159.467 29.0748 159.486 37.1431C159.506 45.2114 154.852 50.4797 147.608 50.4992ZM149.563 25.1333C148.531 25.3233 147.61 25.8947 146.982 26.7333C146.11 27.7841 145.41 28.9663 144.909 30.2357C143.595 33.4745 142.793 36.8975 142.534 40.3821C142.404 41.9516 142.43 43.53 142.612 45.0943C142.711 46.2581 143.094 47.38 143.726 48.3626C143.917 48.6593 144.178 48.9039 144.487 49.0742C144.796 49.2446 145.143 49.3353 145.496 49.3382H145.779C147.285 49.1528 148.712 47.5918 149.915 44.8016C151.263 41.426 152.074 37.8612 152.32 34.2358C152.613 30.3333 152.212 27.2992 151.215 25.9626C151.05 25.6881 150.812 25.465 150.527 25.3185C150.242 25.172 149.922 25.1079 149.602 25.1333H149.563ZM152.017 34.1577C151.77 37.7548 150.969 41.2923 149.641 44.6455C149.189 45.7738 148.563 46.8241 147.784 47.7577C147.275 48.4031 146.549 48.8432 145.74 48.9968C145.397 49.0404 145.047 48.9867 144.733 48.8418C144.418 48.6969 144.151 48.4666 143.961 48.1772C142.983 46.8699 142.563 44.0309 142.837 40.3724C143.093 36.9154 143.884 33.519 145.183 30.304C145.676 29.0679 146.359 27.9159 147.207 26.8894C147.791 26.1115 148.645 25.5792 149.602 25.3967H149.778C150.019 25.4002 150.255 25.4637 150.465 25.5812C150.675 25.6988 150.852 25.8667 150.981 26.0699C151.561 27.0349 151.897 28.1267 151.958 29.2504C152.147 30.8794 152.179 32.5226 152.056 34.1577H152.017ZM151.215 25.9138C151.041 25.642 150.794 25.4246 150.502 25.2865C150.209 25.1485 149.884 25.0954 149.563 25.1333C148.531 25.3233 147.61 25.8947 146.982 26.7333C146.11 27.7841 145.41 28.9663 144.909 30.2357C143.595 33.4745 142.793 36.8975 142.534 40.3821C142.404 41.9516 142.43 43.53 142.612 45.0943C142.711 46.2581 143.094 47.38 143.726 48.3626C143.917 48.6593 144.178 48.9039 144.487 49.0742C144.796 49.2446 145.143 49.3353 145.496 49.3382H145.779C147.285 49.1528 148.712 47.5918 149.915 44.8016C151.263 41.426 152.074 37.8612 152.32 34.2358C152.652 30.2651 152.252 27.2504 151.254 25.9138H151.215ZM152.017 34.1577C151.77 37.7548 150.969 41.2923 149.641 44.6455C149.189 45.7738 148.563 46.8241 147.784 47.7577C147.275 48.4031 146.549 48.8432 145.74 48.9968C145.397 49.0404 145.047 48.9867 144.733 48.8418C144.418 48.6969 144.151 48.4666 143.961 48.1772C142.983 46.8699 142.563 44.0309 142.837 40.3724C143.093 36.9154 143.884 33.519 145.183 30.304C145.676 29.0679 146.359 27.9159 147.207 26.8894C147.791 26.1115 148.645 25.5792 149.602 25.3967H149.778C150.019 25.4002 150.255 25.4637 150.465 25.5812C150.675 25.6988 150.852 25.8667 150.981 26.0699C151.561 27.0349 151.897 28.1267 151.958 29.2504C152.147 30.8794 152.179 32.5226 152.056 34.1577H152.017ZM151.215 25.9138C151.041 25.642 150.794 25.4246 150.502 25.2865C150.209 25.1485 149.884 25.0954 149.563 25.1333C148.531 25.3233 147.61 25.8947 146.982 26.7333C146.11 27.7841 145.41 28.9663 144.909 30.2357C143.595 33.4745 142.793 36.8975 142.534 40.3821C142.404 41.9516 142.43 43.53 142.612 45.0943C142.711 46.2581 143.094 47.38 143.726 48.3626C143.917 48.6593 144.178 48.9039 144.487 49.0742C144.796 49.2446 145.143 49.3353 145.496 49.3382H145.779C147.285 49.1528 148.712 47.5918 149.915 44.8016C151.263 41.426 152.074 37.8612 152.32 34.2358C152.652 30.2651 152.252 27.2504 151.254 25.9138H151.215ZM152.017 34.1577C151.77 37.7548 150.969 41.2923 149.641 44.6455C149.189 45.7738 148.563 46.8241 147.784 47.7577C147.275 48.4031 146.549 48.8432 145.74 48.9968C145.397 49.0404 145.047 48.9867 144.733 48.8418C144.418 48.6969 144.151 48.4666 143.961 48.1772C142.983 46.8699 142.563 44.0309 142.837 40.3724C143.093 36.9154 143.884 33.519 145.183 30.304C145.676 29.0679 146.359 27.9159 147.207 26.8894C147.791 26.1115 148.645 25.5792 149.602 25.3967H149.778C150.019 25.4002 150.255 25.4637 150.465 25.5812C150.675 25.6988 150.852 25.8667 150.981 26.0699C151.561 27.0349 151.897 28.1267 151.958 29.2504C152.147 30.8794 152.179 32.5226 152.056 34.1577H152.017ZM151.215 25.9138C151.041 25.642 150.794 25.4246 150.502 25.2865C150.209 25.1485 149.884 25.0954 149.563 25.1333C148.531 25.3233 147.61 25.8947 146.982 26.7333C146.11 27.7841 145.41 28.9663 144.909 30.2357C143.595 33.4745 142.793 36.8975 142.534 40.3821C142.404 41.9516 142.43 43.53 142.612 45.0943C142.711 46.2581 143.094 47.38 143.726 48.3626C143.917 48.6593 144.178 48.9039 144.487 49.0742C144.796 49.2446 145.143 49.3353 145.496 49.3382H145.779C147.285 49.1528 148.712 47.5918 149.915 44.8016C151.263 41.426 152.074 37.8612 152.32 34.2358C152.652 30.2651 152.252 27.2504 151.254 25.9138H151.215ZM152.017 34.1577C151.77 37.7548 150.969 41.2923 149.641 44.6455C149.189 45.7738 148.563 46.8241 147.784 47.7577C147.275 48.4031 146.549 48.8432 145.74 48.9968C145.397 49.0404 145.047 48.9867 144.733 48.8418C144.418 48.6969 144.151 48.4666 143.961 48.1772C142.983 46.8699 142.563 44.0309 142.837 40.3724C143.093 36.9154 143.884 33.519 145.183 30.304C145.676 29.0679 146.359 27.9159 147.207 26.8894C147.791 26.1115 148.645 25.5792 149.602 25.3967H149.778C150.019 25.4002 150.255 25.4637 150.465 25.5812C150.675 25.6988 150.852 25.8667 150.981 26.0699C151.561 27.0349 151.897 28.1267 151.958 29.2504C152.147 30.8794 152.179 32.5226 152.056 34.1577H152.017ZM151.215 25.9138C151.041 25.642 150.794 25.4246 150.502 25.2865C150.209 25.1485 149.884 25.0954 149.563 25.1333C148.531 25.3233 147.61 25.8947 146.982 26.7333C146.11 27.7841 145.41 28.9663 144.909 30.2357C143.595 33.4745 142.793 36.8975 142.534 40.3821C142.404 41.9516 142.43 43.53 142.612 45.0943C142.711 46.2581 143.094 47.38 143.726 48.3626C143.917 48.6593 144.178 48.9039 144.487 49.0742C144.796 49.2446 145.143 49.3353 145.496 49.3382H145.779C147.285 49.1528 148.712 47.5918 149.915 44.8016C151.263 41.426 152.074 37.8612 152.32 34.2358C152.652 30.2651 152.252 27.2504 151.254 25.9138H151.215ZM152.017 34.1577C151.77 37.7548 150.969 41.2923 149.641 44.6455C149.189 45.7738 148.563 46.8241 147.784 47.7577C147.275 48.4031 146.549 48.8432 145.74 48.9968C145.397 49.0404 145.047 48.9867 144.733 48.8418C144.418 48.6969 144.151 48.4666 143.961 48.1772C142.983 46.8699 142.563 44.0309 142.837 40.3724C143.093 36.9154 143.884 33.519 145.183 30.304C145.676 29.0679 146.359 27.9159 147.207 26.8894C147.791 26.1115 148.645 25.5792 149.602 25.3967H149.778C150.019 25.4002 150.255 25.4637 150.465 25.5812C150.675 25.6988 150.852 25.8667 150.981 26.0699C151.561 27.0349 151.897 28.1267 151.958 29.2504C152.147 30.8794 152.179 32.5226 152.056 34.1577H152.017ZM151.215 25.9138C151.041 25.642 150.794 25.4246 150.502 25.2865C150.209 25.1485 149.884 25.0954 149.563 25.1333C148.531 25.3233 147.61 25.8947 146.982 26.7333C146.11 27.7841 145.41 28.9663 144.909 30.2357C143.595 33.4745 142.793 36.8975 142.534 40.3821C142.404 41.9516 142.43 43.53 142.612 45.0943C142.711 46.2581 143.094 47.38 143.726 48.3626C143.917 48.6593 144.178 48.9039 144.487 49.0742C144.796 49.2446 145.143 49.3353 145.496 49.3382H145.779C147.285 49.1528 148.712 47.5918 149.915 44.8016C151.263 41.426 152.074 37.8612 152.32 34.2358C152.652 30.2651 152.252 27.2504 151.254 25.9138H151.215ZM152.017 34.1577C151.77 37.7548 150.969 41.2923 149.641 44.6455C149.189 45.7738 148.563 46.8241 147.784 47.7577C147.275 48.4031 146.549 48.8432 145.74 48.9968C145.397 49.0404 145.047 48.9867 144.733 48.8418C144.418 48.6969 144.151 48.4666 143.961 48.1772C142.983 46.8699 142.563 44.0309 142.837 40.3724C143.093 36.9154 143.884 33.519 145.183 30.304C145.676 29.0679 146.359 27.9159 147.207 26.8894C147.791 26.1115 148.645 25.5792 149.602 25.3967H149.778C150.019 25.4002 150.255 25.4637 150.465 25.5812C150.675 25.6988 150.852 25.8667 150.981 26.0699C151.561 27.0349 151.897 28.1267 151.958 29.2504C152.147 30.8794 152.179 32.5226 152.056 34.1577H152.017ZM151.215 25.9138C151.041 25.642 150.794 25.4246 150.502 25.2865C150.209 25.1485 149.884 25.0954 149.563 25.1333C148.531 25.3233 147.61 25.8947 146.982 26.7333C146.11 27.7841 145.41 28.9663 144.909 30.2357C143.595 33.4745 142.793 36.8975 142.534 40.3821C142.404 41.9516 142.43 43.53 142.612 45.0943C142.711 46.2581 143.094 47.38 143.726 48.3626C143.917 48.6593 144.178 48.9039 144.487 49.0742C144.796 49.2446 145.143 49.3353 145.496 49.3382H145.779C147.285 49.1528 148.712 47.5918 149.915 44.8016C151.263 41.426 152.074 37.8612 152.32 34.2358C152.652 30.2651 152.252 27.2504 151.254 25.9138H151.215ZM152.017 34.1577C151.77 37.7548 150.969 41.2923 149.641 44.6455C149.189 45.7738 148.563 46.8241 147.784 47.7577C147.275 48.4031 146.549 48.8432 145.74 48.9968C145.397 49.0404 145.047 48.9867 144.733 48.8418C144.418 48.6969 144.151 48.4666 143.961 48.1772C142.983 46.8699 142.563 44.0309 142.837 40.3724C143.093 36.9154 143.884 33.519 145.183 30.304C145.676 29.0679 146.359 27.9159 147.207 26.8894C147.791 26.1115 148.645 25.5792 149.602 25.3967H149.778C150.019 25.4002 150.255 25.4637 150.465 25.5812C150.675 25.6988 150.852 25.8667 150.981 26.0699C151.561 27.0349 151.897 28.1267 151.958 29.2504C152.147 30.8794 152.179 32.5226 152.056 34.1577H152.017ZM151.215 25.9138C151.041 25.642 150.794 25.4246 150.502 25.2865C150.209 25.1485 149.884 25.0954 149.563 25.1333C148.531 25.3233 147.61 25.8947 146.982 26.7333C146.11 27.7841 145.41 28.9663 144.909 30.2357C143.595 33.4745 142.793 36.8975 142.534 40.3821C142.404 41.9516 142.43 43.53 142.612 45.0943C142.711 46.2581 143.094 47.38 143.726 48.3626C143.917 48.6593 144.178 48.9039 144.487 49.0742C144.796 49.2446 145.143 49.3353 145.496 49.3382H145.779C147.285 49.1528 148.712 47.5918 149.915 44.8016C151.263 41.426 152.074 37.8612 152.32 34.2358C152.652 30.2651 152.252 27.2504 151.254 25.9138H151.215ZM152.017 34.1577C151.77 37.7548 150.969 41.2923 149.641 44.6455C149.189 45.7738 148.563 46.8241 147.784 47.7577C147.275 48.4031 146.549 48.8432 145.74 48.9968C145.397 49.0404 145.047 48.9867 144.733 48.8418C144.418 48.6969 144.151 48.4666 143.961 48.1772C142.983 46.8699 142.563 44.0309 142.837 40.3724C143.093 36.9154 143.884 33.519 145.183 30.304C145.676 29.0679 146.359 27.9159 147.207 26.8894C147.791 26.1115 148.645 25.5792 149.602 25.3967H149.778C150.019 25.4002 150.255 25.4637 150.465 25.5812C150.675 25.6988 150.852 25.8667 150.981 26.0699C151.561 27.0349 151.897 28.1267 151.958 29.2504C152.147 30.8794 152.179 32.5226 152.056 34.1577H152.017ZM151.215 25.9138C151.041 25.642 150.794 25.4246 150.502 25.2865C150.209 25.1485 149.884 25.0954 149.563 25.1333C148.531 25.3233 147.61 25.8947 146.982 26.7333C146.11 27.7841 145.41 28.9663 144.909 30.2357C143.595 33.4745 142.793 36.8975 142.534 40.3821C142.404 41.9516 142.43 43.53 142.612 45.0943C142.711 46.2581 143.094 47.38 143.726 48.3626C143.917 48.6593 144.178 48.9039 144.487 49.0742C144.796 49.2446 145.143 49.3353 145.496 49.3382H145.779C147.285 49.1528 148.712 47.5918 149.915 44.8016C151.263 41.426 152.074 37.8612 152.32 34.2358C152.652 30.2651 152.252 27.2504 151.254 25.9138H151.215ZM152.017 34.1577C151.77 37.7548 150.969 41.2923 149.641 44.6455C149.189 45.7738 148.563 46.8241 147.784 47.7577C147.275 48.4031 146.549 48.8432 145.74 48.9968C145.397 49.0404 145.047 48.9867 144.733 48.8418C144.418 48.6969 144.151 48.4666 143.961 48.1772C142.983 46.8699 142.563 44.0309 142.837 40.3724C143.093 36.9154 143.884 33.519 145.183 30.304C145.676 29.0679 146.359 27.9159 147.207 26.8894C147.791 26.1115 148.645 25.5792 149.602 25.3967H149.778C150.019 25.4002 150.255 25.4637 150.465 25.5812C150.675 25.6988 150.852 25.8667 150.981 26.0699C151.561 27.0349 151.897 28.1267 151.958 29.2504C152.147 30.8794 152.179 32.5226 152.056 34.1577H152.017ZM151.215 25.9138C151.041 25.642 150.794 25.4246 150.502 25.2865C150.209 25.1485 149.884 25.0954 149.563 25.1333C148.531 25.3233 147.61 25.8947 146.982 26.7333C146.11 27.7841 145.41 28.9663 144.909 30.2357C143.595 33.4745 142.793 36.8975 142.534 40.3821C142.404 41.9516 142.43 43.53 142.612 45.0943C142.711 46.2581 143.094 47.38 143.726 48.3626C143.917 48.6593 144.178 48.9039 144.487 49.0742C144.796 49.2446 145.143 49.3353 145.496 49.3382H145.779C147.285 49.1528 148.712 47.5918 149.915 44.8016C151.263 41.426 152.074 37.8612 152.32 34.2358C152.652 30.2651 152.252 27.2504 151.254 25.9138H151.215ZM152.017 34.1577C151.77 37.7548 150.969 41.2923 149.641 44.6455C149.189 45.7738 148.563 46.8241 147.784 47.7577C147.275 48.4031 146.549 48.8432 145.74 48.9968C145.397 49.0404 145.047 48.9867 144.733 48.8418C144.418 48.6969 144.151 48.4666 143.961 48.1772C142.983 46.8699 142.563 44.0309 142.837 40.3724C143.093 36.9154 143.884 33.519 145.183 30.304C145.676 29.0679 146.359 27.9159 147.207 26.8894C147.791 26.1115 148.645 25.5792 149.602 25.3967H149.778C150.019 25.4002 150.255 25.4637 150.465 25.5812C150.675 25.6988 150.852 25.8667 150.981 26.0699C151.561 27.0349 151.897 28.1267 151.958 29.2504C152.147 30.8794 152.179 32.5226 152.056 34.1577H152.017ZM151.215 25.9138C151.041 25.642 150.794 25.4246 150.502 25.2865C150.209 25.1485 149.884 25.0954 149.563 25.1333C148.531 25.3233 147.61 25.8947 146.982 26.7333C146.11 27.7841 145.41 28.9663 144.909 30.2357C143.595 33.4745 142.793 36.8975 142.534 40.3821C142.404 41.9516 142.43 43.53 142.612 45.0943C142.711 46.2581 143.094 47.38 143.726 48.3626C143.917 48.6593 144.178 48.9039 144.487 49.0742C144.796 49.2446 145.143 49.3353 145.496 49.3382H145.779C147.285 49.1528 148.712 47.5918 149.915 44.8016C151.263 41.426 152.074 37.8612 152.32 34.2358C152.652 30.2651 152.252 27.2504 151.254 25.9138H151.215ZM152.017 34.1577C151.77 37.7548 150.969 41.2923 149.641 44.6455C149.189 45.7738 148.563 46.8241 147.784 47.7577C147.275 48.4031 146.549 48.8432 145.74 48.9968C145.397 49.0404 145.047 48.9867 144.733 48.8418C144.418 48.6969 144.151 48.4666 143.961 48.1772C142.983 46.8699 142.563 44.0309 142.837 40.3724C143.093 36.9154 143.884 33.519 145.183 30.304C145.676 29.0679 146.359 27.9159 147.207 26.8894C147.791 26.1115 148.645 25.5792 149.602 25.3967H149.778C150.019 25.4002 150.255 25.4637 150.465 25.5812C150.675 25.6988 150.852 25.8667 150.981 26.0699C151.561 27.0349 151.897 28.1267 151.958 29.2504C152.147 30.8794 152.179 32.5226 152.056 34.1577H152.017ZM151.215 25.9138C151.041 25.642 150.794 25.4246 150.502 25.2865C150.209 25.1485 149.884 25.0954 149.563 25.1333C148.531 25.3233 147.61 25.8947 146.982 26.7333C146.11 27.7841 145.41 28.9663 144.909 30.2357C143.595 33.4745 142.793 36.8975 142.534 40.3821C142.404 41.9516 142.43 43.53 142.612 45.0943C142.711 46.2581 143.094 47.38 143.726 48.3626C143.917 48.6593 144.178 48.9039 144.487 49.0742C144.796 49.2446 145.143 49.3353 145.496 49.3382H145.779C147.285 49.1528 148.712 47.5918 149.915 44.8016C151.263 41.426 152.074 37.8612 152.32 34.2358C152.652 30.2651 152.252 27.2504 151.254 25.9138H151.215ZM152.017 34.1577C151.77 37.7548 150.969 41.2923 149.641 44.6455C149.189 45.7738 148.563 46.8241 147.784 47.7577C147.275 48.4031 146.549 48.8432 145.74 48.9968C145.397 49.0404 145.047 48.9867 144.733 48.8418C144.418 48.6969 144.151 48.4666 143.961 48.1772C142.983 46.8699 142.563 44.0309 142.837 40.3724C143.093 36.9154 143.884 33.519 145.183 30.304C145.676 29.0679 146.359 27.9159 147.207 26.8894C147.791 26.1115 148.645 25.5792 149.602 25.3967H149.778C150.019 25.4002 150.255 25.4637 150.465 25.5812C150.675 25.6988 150.852 25.8667 150.981 26.0699C151.561 27.0349 151.897 28.1267 151.958 29.2504C152.147 30.8794 152.179 32.5226 152.056 34.1577H152.017ZM151.215 25.9138C151.041 25.642 150.794 25.4246 150.502 25.2865C150.209 25.1485 149.884 25.0954 149.563 25.1333C148.531 25.3233 147.61 25.8947 146.982 26.7333C146.11 27.7841 145.41 28.9663 144.909 30.2357C143.595 33.4745 142.793 36.8975 142.534 40.3821C142.404 41.9516 142.43 43.53 142.612 45.0943C142.711 46.2581 143.094 47.38 143.726 48.3626C143.917 48.6593 144.178 48.9039 144.487 49.0742C144.796 49.2446 145.143 49.3353 145.496 49.3382H145.779C147.285 49.1528 148.712 47.5918 149.915 44.8016C151.263 41.426 152.074 37.8612 152.32 34.2358C152.652 30.2651 152.252 27.2504 151.254 25.9138H151.215ZM152.017 34.1577C151.77 37.7548 150.969 41.2923 149.641 44.6455C149.189 45.7738 148.563 46.8241 147.784 47.7577C147.275 48.4031 146.549 48.8432 145.74 48.9968C145.397 49.0404 145.047 48.9867 144.733 48.8418C144.418 48.6969 144.151 48.4666 143.961 48.1772C142.983 46.8699 142.563 44.0309 142.837 40.3724C143.093 36.9154 143.884 33.519 145.183 30.304C145.676 29.0679 146.359 27.9159 147.207 26.8894C147.791 26.1115 148.645 25.5792 149.602 25.3967H149.778C150.019 25.4002 150.255 25.4637 150.465 25.5812C150.675 25.6988 150.852 25.8667 150.981 26.0699C151.561 27.0349 151.897 28.1267 151.958 29.2504C152.147 30.8794 152.179 32.5226 152.056 34.1577H152.017ZM147.617 53.1919C147.327 53.1908 147.039 53.2472 146.771 53.3577C146.502 53.4682 146.258 53.6307 146.053 53.8358C145.646 54.2686 145.421 54.8419 145.427 55.4358C145.426 55.7235 145.482 56.0086 145.593 56.2744C145.703 56.5403 145.865 56.7815 146.07 56.984C146.275 57.1866 146.518 57.3464 146.785 57.4541C147.053 57.5618 147.339 57.6152 147.627 57.6114C147.922 57.6163 148.216 57.5619 148.49 57.4512C148.763 57.3406 149.012 57.1761 149.221 56.9675C149.429 56.7665 149.593 56.5252 149.704 56.2585C149.815 55.9917 149.87 55.705 149.866 55.4162C149.87 55.1247 149.815 54.8353 149.706 54.565C149.597 54.2946 149.434 54.0487 149.229 53.8416C149.023 53.6346 148.778 53.4705 148.508 53.3589C148.238 53.2473 147.949 53.1906 147.656 53.1919H147.617ZM147.617 57.3187C147.229 57.3186 146.849 57.2028 146.526 56.9862C146.204 56.7695 145.953 56.4618 145.807 56.1025C145.66 55.7431 145.625 55.3483 145.704 54.9685C145.783 54.5887 145.975 54.2412 146.253 53.9704C146.531 53.6995 146.884 53.5177 147.267 53.448C147.649 53.3783 148.044 53.424 148.4 53.5792C148.756 53.7344 149.058 53.992 149.267 54.3193C149.476 54.6465 149.582 55.0284 149.573 55.4162C149.56 55.9169 149.356 56.3937 149.001 56.7478C148.646 57.1019 148.168 57.3063 147.666 57.3187H147.617Z" fill="#FFF7CE"/>
<path d="M11.9482 24.4794C11.9482 24.4794 12.2806 18.6746 15.8588 14.8989C19.437 11.1233 19.3394 6.81116 17.5014 4.7136C15.8883 2.87945 9.46501 8.53798 11.7723 8.50871C13.141 8.40139 16.1425 7.71845 13.1411 14.6258C11.8572 17.7871 11.1136 21.141 10.9414 24.5477L11.9482 24.4794Z" fill="#FFF7CE"/>
<path d="M66.1104 93.3576C65.146 92.7412 64.4109 91.8261 64.0181 90.7527C63.8014 90.1451 63.6635 89.5123 63.6075 88.8698C59.2863 81.6991 62.0824 62.899 63.1676 57.8649C63.1777 57.8189 63.1775 57.7713 63.1671 57.7254C63.1567 57.6794 63.1364 57.6363 63.1075 57.5991C63.0786 57.5619 63.0418 57.5315 62.9998 57.51C62.9579 57.4885 62.9116 57.4764 62.8645 57.4746H52.9805C52.9338 57.4749 52.8877 57.4857 52.8457 57.5061C52.8037 57.5265 52.7669 57.5561 52.7378 57.5926C52.7087 57.6291 52.6881 57.6716 52.6777 57.717C52.6672 57.7625 52.6672 57.8096 52.6774 57.8551C53.4749 61.3364 53.9883 64.8765 54.2124 68.4405C54.2151 68.5049 54.1982 68.5686 54.1642 68.6234C54.1302 68.6782 54.0804 68.7215 54.0215 68.7478C53.9625 68.774 53.897 68.7821 53.8334 68.7708C53.7698 68.7595 53.7111 68.7294 53.6649 68.6844C53.2399 68.28 52.7356 67.968 52.1836 67.7682C51.6316 67.5683 51.044 67.485 50.4581 67.5234C43.8394 67.5234 39.5572 73.9527 38.12 80.1575C36.9957 85.221 37.6705 94.3722 44.6607 94.3527C47.7599 94.3527 50.9665 92.1478 53.0977 87.8356C53.1324 87.7717 53.1878 87.7213 53.2548 87.6927C53.3218 87.6642 53.3965 87.6591 53.4667 87.6783C53.537 87.6975 53.5989 87.7399 53.6419 87.7986C53.685 87.8573 53.7069 87.9288 53.704 88.0015C53.3423 93.0649 55.1118 96.9966 60 96.9868C62.6906 96.7189 65.2367 95.6441 67.3031 93.9039C66.8847 93.7708 66.4842 93.5873 66.1104 93.3576ZM54.2709 79.699C53.4399 86.421 50.4874 90.2356 48.2095 90.2454C47.943 90.2587 47.6774 90.205 47.4371 90.0893C43.0181 88.1966 46.5278 71.26 51.0739 69.543C51.3315 69.4383 51.6073 69.3853 51.8855 69.3868C52.4146 69.4254 52.9182 69.6289 53.3252 69.9685C53.7322 70.3081 54.022 70.7667 54.1537 71.2795C54.1581 71.3053 54.1581 71.3317 54.1537 71.3576C54.5376 74.1455 54.5769 76.9699 54.2709 79.7673V79.699Z" fill="#FFF7CE"/>
<path d="M89.8673 93.2894C87.4037 83.3772 87.384 78.0699 89.789 68.1479H79.1131C82.0461 85.5528 77.5684 91.8358 74.4008 91.8456C73.1005 91.8456 72.0056 90.8017 71.7514 89.0553C70.8911 83.6797 75.662 73.9041 73.9218 68.1675H63.2458C68.535 77.9236 63.2458 83.7187 63.9595 89.1821C64.0279 89.6876 64.149 90.1847 64.3211 90.665C64.5928 91.394 65.0259 92.0524 65.5878 92.5913C66.1498 93.1301 66.8263 93.5355 67.567 93.7772C68.1952 93.9965 68.8568 94.1055 69.5223 94.0992C73.1299 94.0992 78.8685 93.0553 80.6283 86.2065C80.3155 88.3528 79.8756 90.6651 79.2303 93.2602L89.8673 93.2894Z" fill="#FFF7CE"/>
<path d="M106.693 91.6796C105.647 90.4796 104.522 88.3039 105.031 84.7039C105.224 83.3837 105.683 82.1161 106.38 80.9771L106.722 80.4698C106.223 72.8615 106.712 65.2208 108.179 57.7381C108.198 57.6483 108.196 57.5554 108.174 57.4662C108.153 57.377 108.111 57.2938 108.053 57.2227C107.995 57.1516 107.922 57.0944 107.839 57.0552C107.755 57.0161 107.664 56.9961 107.572 56.9966H98.4609C98.3685 56.9976 98.2774 57.0189 98.1943 57.0592C98.1112 57.0994 98.0379 57.1575 97.98 57.2294C97.922 57.3012 97.8806 57.3849 97.8589 57.4746C97.8373 57.5642 97.8359 57.6575 97.8546 57.7478C99.8686 66.5283 100.093 79.7771 98.5096 89.4259C97.835 93.3868 99.9175 97.1137 104.454 97.104C105.612 97.0803 106.744 96.7613 107.744 96.1772C108.743 95.5932 109.576 94.7635 110.163 93.7673C108.822 93.437 107.612 92.7092 106.693 91.6796Z" fill="#FFF7CE"/>
<path d="M130.166 92.382C126.94 86.1381 127.712 81.8942 128.289 78.0405C129.443 70.382 124.447 66.9088 118.933 66.9283C115.599 66.9447 112.379 68.1448 109.851 70.3137C107.211 72.5966 108.932 75.699 112.617 75.2893C114.573 75.0356 117.046 74.021 117.359 69.9723C117.427 68.7918 118.122 68.2259 118.972 68.2259C120.145 68.2259 121.651 69.3576 122.267 71.3771C122.846 73.3055 122.735 75.3747 121.954 77.2307C121.932 77.2817 121.899 77.3271 121.857 77.3636C121.816 77.4002 121.766 77.427 121.713 77.442C121.659 77.4569 121.603 77.4598 121.549 77.4502C121.494 77.4407 121.442 77.419 121.397 77.3869C119.879 76.3505 118.073 75.8148 116.235 75.8552C114.404 75.868 112.604 76.3175 110.983 77.1661C109.362 78.0146 107.968 79.2377 106.918 80.7332C106.11 81.9259 105.589 83.2878 105.392 84.7137C104.649 89.8454 107.221 92.821 110.437 93.621C111.034 93.7742 111.649 93.8496 112.265 93.8454C113.533 93.8384 114.78 93.5283 115.903 92.941C117.026 92.3536 117.991 91.5062 118.718 90.4698C118.76 90.4047 118.823 90.3551 118.896 90.3282C118.969 90.3013 119.048 90.2986 119.123 90.3206C119.198 90.3425 119.263 90.3878 119.31 90.4498C119.357 90.5119 119.382 90.5873 119.383 90.6649C119.421 91.3505 119.529 92.0305 119.705 92.6942C119.723 92.7742 119.768 92.8458 119.832 92.8972C119.896 92.9487 119.975 92.9768 120.057 92.9771H129.834C129.906 92.9846 129.979 92.9707 130.043 92.9373C130.108 92.9038 130.161 92.8522 130.197 92.7888C130.232 92.7255 130.248 92.6532 130.242 92.5809C130.237 92.5086 130.211 92.4394 130.166 92.382ZM120.673 80.382C119.999 87.543 117.652 90.4503 115.785 90.4601C113.918 90.4698 112.607 87.7576 113.654 83.543C114.573 79.7771 116.968 77.6893 118.708 77.6893C119.793 77.6893 120.663 78.5283 120.663 80.382H120.673Z" fill="#FFF7CE"/>
<path d="M174.161 76.8503C173.646 76.8111 173.13 76.8788 172.643 77.0492C172.157 77.2196 171.711 77.489 171.334 77.8402C170.957 78.1915 170.658 78.617 170.454 79.0898C170.251 79.5626 170.148 80.0723 170.152 80.5868C170.152 82.46 171.296 86.782 174.229 88.9771C174.266 89.0022 174.307 89.0186 174.351 89.0252C174.395 89.0318 174.44 89.0285 174.482 89.0153C174.524 89.0022 174.563 88.9796 174.596 88.9493C174.628 88.919 174.653 88.8818 174.669 88.8405C175.441 86.8893 176.624 82.9869 178.374 82.7625C181.943 82.1478 180.124 91.1527 174.532 93.4942C170.484 95.182 165.889 93.9624 163.778 90.8893C161.47 87.5917 161.5 84.9185 162.634 80.8893C163.983 76.0698 166.242 73.1429 165.107 69.7381C164.345 67.4746 161.51 66.7235 159.75 66.9088C157.247 67.1722 154.295 69.2698 152.525 74.1771C152.519 74.1966 152.506 74.2136 152.489 74.2257C152.473 74.2377 152.453 74.2442 152.432 74.2442C152.412 74.2442 152.392 74.2377 152.375 74.2257C152.358 74.2136 152.346 74.1966 152.339 74.1771C152.4 72.9015 152.228 71.6253 151.831 70.4112C151.078 68.1478 149.533 66.9771 147.774 66.9868C144.264 66.9868 139.815 71.7283 139.092 81.7771C139.092 81.8185 139.076 81.8582 139.046 81.8875C139.017 81.9168 138.977 81.9332 138.936 81.9332C138.894 81.9332 138.854 81.9168 138.825 81.8875C138.796 81.8582 138.779 81.8185 138.779 81.7771C138.69 77.2052 139.209 72.6417 140.324 68.2063C140.334 68.1611 140.334 68.1143 140.324 68.0691C140.314 68.0238 140.295 67.9812 140.267 67.9442C140.239 67.9071 140.204 67.8765 140.163 67.8544C140.122 67.8323 140.077 67.8193 140.031 67.8161H130.899C130.852 67.8186 130.806 67.8318 130.765 67.8545C130.723 67.8773 130.688 67.9091 130.66 67.9476C130.633 67.9861 130.615 68.0303 130.607 68.0768C130.599 68.1233 130.602 68.1709 130.616 68.2161C132.747 77.7381 132.757 83.0161 130.684 92.5576C130.674 92.6028 130.674 92.6496 130.684 92.6949C130.694 92.7401 130.714 92.7827 130.741 92.8198C130.769 92.8568 130.805 92.8875 130.845 92.9096C130.886 92.9317 130.931 92.9447 130.977 92.9478H140.148C140.191 92.9455 140.233 92.9343 140.271 92.9151C140.31 92.8958 140.344 92.8689 140.371 92.836C140.399 92.803 140.419 92.7647 140.431 92.7235C140.443 92.6824 140.447 92.6391 140.441 92.5966C138.887 78.3234 142.612 70.1088 144.694 70.1088C145.3 70.1088 145.75 70.7527 145.936 72.06C146.698 77.3771 142.426 86.9478 143.873 92.7234C143.89 92.7889 143.927 92.8471 143.98 92.8893C144.033 92.9315 144.099 92.9555 144.166 92.9576H152.056C152.1 92.9553 152.143 92.9438 152.183 92.9241C152.223 92.9044 152.258 92.8767 152.286 92.8429C152.314 92.809 152.336 92.7696 152.348 92.7273C152.361 92.6849 152.364 92.6404 152.359 92.5966C150.795 78.2941 154.52 70.1576 156.602 70.1576C157.208 70.1576 157.658 70.8112 157.853 72.1088C158.547 76.8015 155.487 84.7917 155.507 90.6454C155.507 98.0502 161.598 99.1137 167.239 98.6356C175.568 97.9429 180.232 93.3673 181.903 88.46C184.445 80.7332 178.824 76.8405 174.161 76.8503Z" fill="#FFF7CE"/>
<path d="M117.877 61.0455C119.02 61.2981 120.04 61.9396 120.761 62.8602L120.859 62.9578C121.651 63.8456 122.325 64.6651 123 64.6553C124.114 64.6553 124.955 63.5041 125.464 62.626C125.488 62.5834 125.526 62.5504 125.572 62.5326C125.618 62.5148 125.669 62.5131 125.715 62.528C125.762 62.5428 125.803 62.5732 125.83 62.6141C125.857 62.655 125.869 62.704 125.864 62.7529C125.61 64.6163 124.603 65.8846 122.179 65.7285C121.604 65.6986 121.045 65.5348 120.546 65.2501C120.047 64.9655 119.622 64.5679 119.304 64.0894L119.207 63.9919C118.632 63.5368 117.903 63.3233 117.173 63.3967C115.511 63.9626 115.804 64.47 114.876 65.0944C114.482 65.3501 114.014 65.4686 113.545 65.4316C113.077 65.3945 112.634 65.2039 112.285 64.8895C110.975 63.4358 113.253 60.187 117.877 61.0455Z" fill="#FFF7CE"/>
<path d="M12.9649 47.7574H12.5935C11.8846 47.7249 11.1742 47.7609 10.4721 47.8647H10.384H10.2666C11.1498 47.6489 12.0674 47.6124 12.9649 47.7574Z" fill="#187B5C"/>
<path d="M3.20812 51.6504C2.38014 52.1686 1.69755 52.8878 1.22393 53.7409C0.750317 54.5941 0.501135 55.5532 0.500003 56.5284C0.431567 60.0894 7.5489 54.187 3.20812 51.6504Z" fill="#FFF7CE"/>
<path d="M23.162 56.1282C23.162 54.8794 21.8812 54.7818 20.8057 54.8014C19.7303 54.8209 15.7024 57.5428 15.2332 57.8745C14.4575 58.251 13.6252 58.4982 12.7695 58.6063C11.546 58.6455 10.3228 58.5208 9.13262 58.2355H8.99585C10.1876 59.0549 11.0336 60.2849 11.3715 61.6892C11.3715 61.6892 11.4789 65.2892 11.4985 66.7819C11.4821 68.1973 11.7653 69.6002 12.3296 70.8989C12.3948 71.0593 12.4935 71.204 12.6191 71.3234C12.7447 71.4427 12.8941 71.534 13.0578 71.5913C13.2215 71.6485 13.3956 71.6703 13.5683 71.6552C13.7411 71.6401 13.9088 71.5885 14.06 71.5038C14.258 71.4286 14.4481 71.3339 14.6271 71.2209L20.8938 67.5136C21.5426 67.0719 22.0864 66.4935 22.4868 65.8192C22.8872 65.1449 23.1342 64.3912 23.2107 63.6111C23.2107 63.6111 23.2011 57.3673 23.162 56.1282ZM16.4357 62.3819C16.0348 63.0648 15.3504 63.416 14.93 63.1721C14.5096 62.9282 14.4901 62.1965 14.93 61.4746C15.37 60.7526 16.0153 60.4404 16.4357 60.6843C16.8561 60.9282 16.8365 61.6892 16.4357 62.3819ZM20.7764 64.7819C20.3658 65.4746 19.7012 65.8258 19.271 65.5819C18.8408 65.338 18.8311 64.6062 19.271 63.8843C19.7109 63.1623 20.3462 62.8404 20.7666 63.0843C21.187 63.3282 21.187 64.0892 20.7764 64.7819Z" fill="#F4EBC9"/>
<path d="M12.6034 70.7237C11.7333 70.1481 11.8702 68.8701 11.8702 68.4408C11.8702 68.0116 11.8701 63.9043 11.743 61.9238C11.6636 61.2356 11.4279 60.5745 11.0534 59.9911C10.6789 59.4078 10.1757 58.9176 9.58238 58.5579C9.52372 58.5579 9.36733 58.4115 9.1327 58.2749C7.77376 57.4652 3.96095 55.2896 3.55033 55.0652C3.20189 54.9065 2.81675 54.8454 2.43615 54.8884C2.05555 54.9313 1.69387 55.0767 1.38976 55.3091C1.15591 55.4635 0.957955 55.6662 0.809513 55.9035C0.661071 56.1409 0.565488 56.4073 0.529297 56.6847C0.529297 56.6847 0.529297 62.0701 0.529297 63.7482C0.744506 65.2525 1.52365 66.6192 2.70945 67.5725C3.25693 67.9335 8.33101 70.7823 9.36732 71.3871C10.2974 71.9159 11.3781 72.1186 12.4371 71.9628C12.9984 71.9348 13.5465 71.7815 14.0405 71.514C14.1586 71.4455 14.273 71.3706 14.3828 71.2896C14.0627 71.3355 13.736 71.3085 13.4278 71.2105C13.1197 71.1125 12.8379 70.946 12.6034 70.7237ZM2.98322 58.2359C3.42316 57.9725 4.11738 58.353 4.53777 59.075C4.95816 59.7969 4.94839 60.5871 4.53777 60.8408C4.12716 61.0945 3.40361 60.714 2.98322 59.992C2.56283 59.2701 2.54327 58.4603 2.98322 58.2359ZM4.86024 65.8848C4.43007 66.1384 3.75567 65.7676 3.33528 65.0554C2.91489 64.3433 2.94422 63.5823 3.33528 63.3286C3.72634 63.0749 4.44962 63.4457 4.86024 64.1579C5.27085 64.8701 5.2904 65.6018 4.86024 65.8555V65.8848ZM9.22077 68.2945C8.7906 68.5481 8.10619 68.1774 7.69557 67.4749C7.28496 66.7725 7.30451 65.9921 7.69557 65.7482C8.08664 65.5042 8.81016 65.8652 9.22077 66.5676C9.63139 67.2701 9.65094 67.9921 9.22077 68.2652V68.2945ZM9.28903 63.3189C8.85887 63.5726 8.17469 63.2018 7.76408 62.4896C7.35346 61.7774 7.37302 61.0067 7.76408 60.7628C8.15514 60.5189 8.87842 60.8798 9.28903 61.5823C9.69965 62.2847 9.7192 63.0359 9.28903 63.2896V63.3189Z" fill="#E5DDBD"/>
<path d="M23.0934 55.309C23.0934 55.2407 23.0934 55.1626 23.0445 55.0846C22.9956 55.0065 23.0445 54.9968 23.0445 54.9578V54.8309C23.0114 54.742 22.9851 54.6507 22.9662 54.5577C22.9662 54.4894 22.9664 54.4212 22.8882 54.3334C22.7901 54.0445 22.6622 53.7667 22.5068 53.5041C22.3251 53.1993 22.1158 52.9119 21.8812 52.6456C20.3658 50.948 13.6005 47.7675 13.6005 47.7675L13.0627 47.6602H12.8868H12.398H11.5571H11.3029H10.9217C10.6641 47.6964 10.4115 47.7618 10.1689 47.8553L10.0319 47.9138L9.86576 47.9919L9.68006 48.0797L9.30843 48.2651H9.24995L8.82939 48.4797L7.99853 48.9285L7.67582 49.1041L7.38248 49.2699L6.79603 49.5919C6.61028 49.709 6.40488 49.8163 6.21913 49.9236L5.95514 50.0699C5.86698 50.1162 5.78205 50.1683 5.70094 50.226L5.4761 50.3528L4.95792 50.6455L4.84072 50.7138L4.72329 50.7821L4.52781 50.8992L4.30297 51.0163L4.14639 51.1139L3.95091 51.2309L3.85328 51.2895H3.76521L3.61866 51.3772L3.49144 51.4553L3.43272 51.5041C3.18924 51.8593 3.02275 52.2614 2.94389 52.6846C2.87614 53.2835 3.0444 53.8853 3.41315 54.3627L3.57951 54.5675C3.71296 54.7069 3.86412 54.8283 4.02919 54.9285L4.42995 55.1529L4.81137 55.3577L4.8992 55.4163H4.99706C5.03716 55.4458 5.07956 55.4719 5.12404 55.4943L5.4076 55.6602C5.55189 55.7341 5.69238 55.8155 5.82816 55.9041C6.46364 56.2553 7.16755 56.6651 7.78347 57.0358L7.95938 57.1236L9.05423 57.7675L9.1423 57.8261L9.22059 57.8748C9.27274 57.8983 9.32186 57.9277 9.36715 57.9626L9.82661 58.2456C10.4054 58.4731 11.0232 58.5858 11.6452 58.5772H12.6228H13.0431C13.4675 58.544 13.8836 58.4418 14.275 58.2748C15.7024 57.6211 20.3266 54.7626 20.3266 54.7626C20.5292 54.6461 20.7512 54.5668 20.9818 54.5285H21.4706C21.6488 54.565 21.8248 54.6106 21.9984 54.6651L22.1941 54.7431C22.4699 54.852 22.7173 55.0222 22.9175 55.2407L23.0249 55.3577C23.066 55.3966 23.0993 55.443 23.1228 55.4943C23.2227 55.6478 23.2985 55.8156 23.3476 55.9919C23.2857 55.7564 23.2005 55.5277 23.0934 55.309ZM14.2065 52.8212C13.4146 52.8212 12.7791 52.4309 12.7791 51.9431C12.7791 51.4553 13.4048 51.0553 14.1967 51.0553C14.9886 51.0553 15.624 51.4455 15.624 51.9333C15.624 52.4211 14.9984 52.8602 14.2065 52.8602V52.8212ZM17.0614 54.4504C16.2695 54.4504 15.624 54.0602 15.624 53.5723C15.624 53.0845 16.2695 52.6846 17.0516 52.6748C17.8337 52.665 18.4789 53.0748 18.4789 53.5626C18.4789 54.0504 17.8435 54.4894 17.0614 54.4894V54.4504ZM11.4007 49.4065C12.1926 49.4065 12.8281 49.7967 12.8281 50.2845C12.8281 50.7724 12.1926 51.1724 11.4105 51.1724C10.6284 51.1724 9.98319 50.7919 9.98319 50.2943C9.98319 49.7968 10.6186 49.4553 11.4007 49.4553V49.4065ZM9.92447 53.5333C10.7164 53.5333 11.3616 53.9334 11.3616 54.4212C11.3616 54.909 10.7262 55.309 9.93426 55.309C9.14236 55.309 8.50692 54.909 8.50692 54.4212C8.50692 53.9334 9.13258 53.5723 9.92447 53.5723V53.5333ZM7.13807 51.8943C7.92019 51.8943 8.5654 52.2846 8.5654 52.7724C8.5654 53.2602 7.92997 53.6602 7.13807 53.6602C6.34617 53.6602 5.71073 53.2699 5.71073 52.7821C5.71073 52.2943 6.34621 51.9333 7.17721 51.9333L7.13807 51.8943ZM12.7889 56.9382C12.0068 56.9382 11.3616 56.548 11.3616 56.0602C11.3616 55.5724 11.997 55.1724 12.7889 55.1626C13.5808 55.1528 14.2163 55.5529 14.2163 56.0407C14.2163 56.5285 13.5808 56.9675 12.7889 56.9773V56.9382Z" fill="#FFF7CE"/>
<path d="M21.275 54.8015C21.0847 54.7624 20.8886 54.7624 20.6983 54.8015H21.275ZM4.15628 55.3967L4.5377 55.6015L4.62553 55.6601H4.72339C4.76349 55.6896 4.80613 55.7157 4.85061 55.7381L5.13393 55.904C5.27822 55.9779 5.41871 56.0593 5.55449 56.1479C6.18997 56.4991 6.89388 56.9089 7.5098 57.2796L7.68571 57.3674L8.78056 58.0113L8.86864 58.0699L8.94692 58.1186C8.99907 58.1421 9.04819 58.1715 9.09348 58.2064C8.05716 57.621 5.22192 56.0113 4.15628 55.3967ZM21.275 54.8015C21.0847 54.7624 20.8886 54.7624 20.6983 54.8015H21.275ZM4.15628 55.3967L4.5377 55.6015L4.62553 55.6601H4.72339C4.76349 55.6896 4.80613 55.7157 4.85061 55.7381L5.13393 55.904C5.27822 55.9779 5.41871 56.0593 5.55449 56.1479C6.18997 56.4991 6.89388 56.9089 7.5098 57.2796L7.68571 57.3674L8.78056 58.0113L8.86864 58.0699L8.94692 58.1186C8.99907 58.1421 9.04819 58.1715 9.09348 58.2064C8.05716 57.621 5.22192 56.0113 4.15628 55.3967ZM21.275 54.8015C21.0847 54.7624 20.8886 54.7624 20.6983 54.8015H21.275ZM4.15628 55.3967L4.5377 55.6015L4.62553 55.6601H4.72339C4.76349 55.6896 4.80613 55.7157 4.85061 55.7381L5.13393 55.904C5.27822 55.9779 5.41871 56.0593 5.55449 56.1479C6.18997 56.4991 6.89388 56.9089 7.5098 57.2796L7.68571 57.3674L8.78056 58.0113L8.86864 58.0699L8.94692 58.1186C8.99907 58.1421 9.04819 58.1715 9.09348 58.2064C8.05716 57.621 5.22192 56.0113 4.15628 55.3967ZM21.275 54.8015C21.0847 54.7624 20.8886 54.7624 20.6983 54.8015H21.275ZM4.15628 55.3967L4.5377 55.6015L4.62553 55.6601H4.72339C4.76349 55.6896 4.80613 55.7157 4.85061 55.7381L5.13393 55.904C5.27822 55.9779 5.41871 56.0593 5.55449 56.1479C6.18997 56.4991 6.89388 56.9089 7.5098 57.2796L7.68571 57.3674L8.78056 58.0113L8.86864 58.0699L8.94692 58.1186C8.99907 58.1421 9.04819 58.1715 9.09348 58.2064C8.05716 57.621 5.22192 56.0113 4.15628 55.3967ZM23.074 55.1137C22.8683 54.2128 22.4455 53.3756 21.8421 52.6747C20.4162 51.4588 18.8428 50.4263 17.1591 49.6016C15.282 48.626 13.581 47.7772 13.5516 47.7577H13.4051L13.1509 47.7089H12.9747H12.7988C11.9575 47.5828 11.0991 47.6292 10.2764 47.8454H10.2277L10.0907 47.8943C9.37702 48.1772 7.6759 49.1137 6.18009 49.9918L5.89653 50.1576L5.36856 50.4601L5.5934 50.3333L6.14094 50.0113C6.3267 49.904 6.53209 49.7967 6.71784 49.6796L7.30429 49.3577L7.59764 49.1918L7.92034 49.0162L8.75144 48.5674L9.17177 48.3528H9.23048L9.60188 48.1674L9.78757 48.0796L9.95394 48.0016L10.1005 47.943H10.2179L10.4721 47.865C10.5872 47.8297 10.7047 47.8036 10.8239 47.7869C10.9509 47.778 11.0784 47.778 11.2054 47.7869H11.4593H12.3002H12.5936H12.6425C12.8988 47.8107 13.1535 47.8498 13.4051 47.904H13.5418C13.6689 47.9625 20.3365 51.143 21.8225 52.782C22.245 53.2795 22.576 53.8476 22.8002 54.4601C22.8002 54.5479 22.8492 54.6162 22.8785 54.6845C22.8974 54.7774 22.9234 54.8688 22.9565 54.9577V55.0845C22.9565 55.0845 22.9565 55.1625 22.9565 55.2113C22.9565 55.2601 22.9566 55.3674 23.0055 55.4357C23.0055 55.6601 23.0055 55.8552 23.0055 55.9918C23.0055 55.9918 23.0055 56.2162 23.0055 56.2649C22.8566 55.8527 22.5656 55.5068 22.1844 55.2893C22.0809 55.2206 21.9691 55.1649 21.8519 55.1235L21.6564 55.0454C21.4993 54.9915 21.3394 54.946 21.1774 54.9089C20.9871 54.8697 20.7907 54.8697 20.6005 54.9089C20.5583 54.9034 20.5157 54.9034 20.4735 54.9089H20.3659C20.2601 54.9472 20.1585 54.9962 20.0627 55.0552C20.0627 55.0552 15.4287 57.9138 14.0111 58.5674C13.622 58.7328 13.2099 58.838 12.789 58.8796H12.3687H11.3911C10.7737 58.8716 10.1621 58.7594 9.5823 58.5479C9.44584 58.4464 9.30212 58.3551 9.15219 58.2747C8.05722 57.621 5.24147 56.0113 4.15628 55.3967L3.80446 55.1918C3.42849 54.9564 3.1264 54.6203 2.93278 54.2218C2.73915 53.8233 2.66169 53.3785 2.70937 52.9381C2.78405 52.4797 2.97229 52.0471 3.25691 51.6796L4.32264 51.0455L4.51812 50.9284L4.63532 50.8601L4.06844 51.1821L3.91186 51.2796L3.71638 51.3967L3.61876 51.4552H3.53068L3.38413 51.543L3.25691 51.621L3.20798 51.6699C2.95814 52.0227 2.78801 52.4254 2.70937 52.8503C2.64355 53.2925 2.72239 53.7442 2.93421 54.1381C3.00618 54.2761 3.09131 54.4068 3.18841 54.5284L3.35477 54.7332C3.43185 54.838 3.52783 54.9274 3.63809 54.9967L3.72617 55.0454C3.74876 55.0499 3.77208 55.0499 3.79467 55.0454L3.94122 55.1333L4.14649 55.2503C5.21213 55.865 7.92023 57.4064 9.03476 58.0991L9.5138 58.3918L9.60188 58.4503C10.1693 58.6263 10.758 58.7248 11.3519 58.743H11.8603C12.5942 58.7663 13.3253 58.6436 14.0111 58.3821C15.4189 57.7382 20.0138 54.8893 20.0627 54.8698C20.2986 54.7239 20.5677 54.64 20.8449 54.6259H21.197C21.7387 54.7107 22.2426 54.9554 22.6439 55.3284L22.7513 55.4455C22.7893 55.4869 22.8222 55.5327 22.8491 55.5821C22.9437 55.7371 23.016 55.9045 23.0642 56.0796V56.1381C23.1085 55.7983 23.1118 55.4544 23.074 55.1137ZM4.15628 55.3967L4.5377 55.6015L4.62553 55.6601H4.72339C4.76349 55.6896 4.80613 55.7157 4.85061 55.7381L5.13393 55.904C5.27822 55.9779 5.41871 56.0593 5.55449 56.1479C6.18997 56.4991 6.89388 56.9089 7.5098 57.2796L7.68571 57.3674L8.78056 58.0113L8.86864 58.0699L8.94692 58.1186C8.99907 58.1421 9.04819 58.1715 9.09348 58.2064C8.05716 57.621 5.22192 56.0113 4.15628 55.3967ZM21.275 54.8015C21.0847 54.7624 20.8886 54.7624 20.6983 54.8015H21.275ZM4.15628 55.3967L4.5377 55.6015L4.62553 55.6601H4.72339C4.76349 55.6896 4.80613 55.7157 4.85061 55.7381L5.13393 55.904C5.27822 55.9779 5.41871 56.0593 5.55449 56.1479C6.18997 56.4991 6.89388 56.9089 7.5098 57.2796L7.68571 57.3674L8.78056 58.0113L8.86864 58.0699L8.94692 58.1186C8.99907 58.1421 9.04819 58.1715 9.09348 58.2064C8.05716 57.621 5.22192 56.0113 4.15628 55.3967ZM21.275 54.8015C21.0847 54.7624 20.8886 54.7624 20.6983 54.8015H21.275ZM4.15628 55.3967L4.5377 55.6015L4.62553 55.6601H4.72339C4.76349 55.6896 4.80613 55.7157 4.85061 55.7381L5.13393 55.904C5.27822 55.9779 5.41871 56.0593 5.55449 56.1479C6.18997 56.4991 6.89388 56.9089 7.5098 57.2796L7.68571 57.3674L8.78056 58.0113L8.86864 58.0699L8.94692 58.1186C8.99907 58.1421 9.04819 58.1715 9.09348 58.2064C8.05716 57.621 5.22192 56.0113 4.15628 55.3967ZM21.275 54.8015C21.0847 54.7624 20.8886 54.7624 20.6983 54.8015H21.275ZM4.15628 55.3967L4.5377 55.6015L4.62553 55.6601H4.72339C4.76349 55.6896 4.80613 55.7157 4.85061 55.7381L5.13393 55.904C5.27822 55.9779 5.41871 56.0593 5.55449 56.1479C6.18997 56.4991 6.89388 56.9089 7.5098 57.2796L7.68571 57.3674L8.78056 58.0113L8.86864 58.0699L8.94692 58.1186C8.99907 58.1421 9.04819 58.1715 9.09348 58.2064C8.05716 57.621 5.22192 56.0113 4.15628 55.3967ZM21.275 54.8015C21.0847 54.7624 20.8886 54.7624 20.6983 54.8015H21.275Z" fill="#FFF7CE"/>
</g>
<defs>
<clipPath id="clip0_147_356">
<rect width="182" height="98" fill="white" transform="translate(0.5 0.577148)"/>
</clipPath>
</defs>
</svg>
