<svg width="1038" height="172" viewBox="0 0 1038 172" fill="none" xmlns="http://www.w3.org/2000/svg">
<g clip-path="url(#clip0_60_2931)">
<g opacity="0.44">
<path opacity="0.6" d="M842.866 46.3485V83.5492H842.697H841.991C840.165 83.4662 838.354 83.4109 836.527 83.3695H835.652C827.978 83.1575 820.303 83.0976 812.628 83.1898H809.988L806.105 83.2728H805.583C801.316 83.3695 797.049 83.5215 792.813 83.7289C789.942 83.8672 787.087 84.033 784.232 84.2266C780.671 84.4477 777.11 84.7382 773.58 85.0423C755.591 86.6597 738.538 89.2863 721.086 91.4152C710.342 92.7976 699.49 93.8482 688.162 94.4288C662.069 95.8112 634.747 93.9865 613.059 89.618H612.921C609.738 88.9821 606.699 88.2863 603.803 87.5306C598.538 86.1481 593.657 84.7657 589.022 83.3833L588.515 83.2313C585.568 82.3189 582.729 81.3788 579.951 80.4664L579.091 80.19C576.236 79.2361 573.443 78.2547 570.649 77.2731C566.72 75.8907 562.821 74.5083 558.83 73.1259C556.651 72.3794 554.44 71.6191 552.184 70.8725C546.781 69.0892 541.117 67.3335 534.916 65.6331C524.172 62.6886 505.753 63.7531 494.747 66.8635C483.742 69.9739 478.631 74.5082 475.039 78.932L474.364 79.7614C471.294 83.7151 468.669 87.7517 462.422 91.3322C462.1 91.5257 461.777 91.6916 461.44 91.8714C445.615 100.304 412.031 103.788 380.089 103.912H379.506C375.285 103.912 371.095 103.912 366.981 103.774C301.486 102.184 241.118 89.5213 213.229 71.5084C206.506 67.1814 198.202 61.8315 182.361 61.8315C179.605 61.8229 176.851 61.9845 174.119 62.3153H173.689C168.173 63.0568 162.79 64.4513 157.68 66.4626C154.027 67.845 150.619 69.3932 147.227 70.748C125.247 79.554 90.1898 83.6461 56.5292 88.0145C50.5583 88.8025 44.6335 89.5766 38.8469 90.3923C25.6313 92.2585 12.8761 94.3597 0.658203 96.7098V82.2083C34.9175 79.1117 68.5629 75.6557 97.9411 69.6422C100.474 69.1169 102.976 68.5915 105.447 68.0247C111.894 66.6423 118.049 64.9835 124.311 63.4628C131.571 61.6933 138.985 59.9928 147.135 58.6519C162.346 56.1774 181.471 55.1407 195.945 57.7396C206.889 59.6888 213.229 63.2692 221.855 66.1446C248.087 74.7847 293.29 75.3653 331.187 71.9922C369.084 68.6191 403.328 62.025 440.672 57.9883C478.017 53.9517 522.192 52.8873 552.998 59.9929C563.573 62.4398 573.657 65.5225 584.586 67.8726L587.487 68.481C590.388 69.0754 593.335 69.6144 596.374 70.0706C598.63 70.4162 600.979 70.7066 603.312 70.9692C604.847 71.1351 606.566 71.2735 608.239 71.3979C610.941 71.5914 613.749 71.7158 616.62 71.7573C618.016 71.7573 619.413 71.7573 620.825 71.7573H622.99C633.548 71.3374 644.046 70.0884 654.363 68.0247C658.968 67.1261 663.158 66.1308 666.75 65.094C682.744 60.4767 689.329 54.1868 709.252 50.4819C716.523 49.1745 723.872 48.2513 731.263 47.7171C735.99 47.3438 740.825 47.0812 745.721 46.8877C774.302 45.8094 805.414 47.3023 833.534 44.9107C835.744 44.731 837.924 44.5237 840.088 44.2749L842.866 46.3485Z" fill="url(#paint0_radial_60_2931)"/>
<path d="M1005.83 2.53542L1000.09 3.68745L946.258 14.4539C925.691 11.7108 899.141 12.5751 878.088 15.469C859.99 18.043 842.355 22.134 825.53 27.6617C810.572 32.3523 796.381 37.2624 778.208 41.2398C739.991 49.5513 684.722 52.6099 637.474 49.0576C606.605 46.726 580.13 41.9118 555.206 36.9195C520.486 29.9658 482.287 22.7928 437.657 20.3515C397.582 18.0694 357.274 21.1316 318.687 29.3898C297.204 34.0804 278.507 40.033 254.2 43.9144C222.714 48.9479 185.563 51.4577 148.898 51.9378C104.025 52.5275 59.731 50.2371 17.3258 46.9454C11.7221 46.6502 6.16912 45.966 0.741451 44.9018C-0.165985 44.6843 -1.05293 44.423 -1.91357 44.12V35.5754C-0.58087 34.7747 0.824675 34.0415 2.29329 33.381C15.8487 27.3189 35.5182 22.1482 57.8239 17.9651C126.387 5.11388 220.976 1.16394 302.495 4.81219C321.722 5.50216 340.865 7.11935 359.802 9.65355C365.093 10.4216 370.759 11.9578 367.449 13.3019C365.615 13.8584 363.682 14.2232 361.709 14.3854L256.612 27.3874C237.111 29.8013 215.871 32.2838 194.912 31.3374C187.27 31.1335 179.71 30.1077 172.475 28.2927C164.547 25.9337 163.126 22.354 168.605 19.5286C174.083 16.7033 186.442 14.7419 198.932 14.6459C197.679 17.0187 204.242 19.2817 212.711 20.3103C222.002 21.2479 231.391 21.5464 240.757 21.2019C271.645 20.5161 301.897 17.3068 325.68 12.1773C327.045 11.8893 328.503 11.5326 328.559 11.08C328.559 10.4217 325.773 10.0513 323.324 9.83186C278.09 6.05421 232.455 5.59476 187.096 8.46033C157.592 10.3119 90.6188 15.318 92.9746 25.1656C93.9656 29.2802 105.782 32.9421 120.516 34.7663C135.249 36.5904 152.525 37.0841 169.334 36.9607C213.628 36.6041 256.818 32.6266 296.475 27.36C320.295 24.2329 343.218 20.6533 368.235 18.1846C393.251 15.7158 420.848 14.3991 446.333 16.0724C475.22 17.9651 497.694 23.3963 524.412 26.6468C563.975 31.4745 611.447 31.3238 654.918 28.4985C721.761 24.1507 779.703 14.0973 842.713 7.28084C878.9 3.19649 915.427 0.94655 952.035 0.546771C970.003 0.469789 987.961 1.13367 1005.83 2.53542Z" fill="url(#paint1_radial_60_2931)"/>
<path d="M833.866 152.842C831.04 153.496 828.184 154.109 825.298 154.721C811.123 157.717 796.167 160.345 780.654 162.578C777.899 162.987 775.133 163.373 772.357 163.736C750.832 166.609 728.33 168.733 705.392 170.013C703.288 170.136 701.183 170.259 699.064 170.354L689.744 170.776L686.994 170.871L682.048 171.035C663.529 171.62 644.905 171.648 626.432 171.157C598.849 170.422 571.717 168.434 546.059 165.479C531.388 163.763 517.198 161.666 503.685 159.229C494.666 157.595 485.963 155.824 477.305 154.013L475.141 153.578L471.638 152.842C463.506 151.167 455.374 149.479 447.017 147.926C440.237 146.646 433.308 145.462 426.123 144.4C419.584 143.446 412.73 142.602 405.68 141.935C402.509 141.635 399.292 141.363 396.045 141.145L394.978 141.063C375.437 139.702 355.175 139.879 336.836 142.425C319.67 144.822 305.511 149.125 290.69 152.842C278.851 156.003 266.705 158.128 254.419 159.188C253.036 159.297 251.623 159.392 250.18 159.474C244.709 159.76 239.312 159.787 234.021 159.596H233.435C232.638 159.596 231.827 159.596 231.045 159.474H230.579C217.109 158.741 203.788 156.524 190.911 152.869C185.816 151.417 180.835 149.656 176 147.6C163.298 142.153 154.505 135.793 143.742 129.897C139.937 127.79 136.013 125.863 131.988 124.124C129.984 123.216 127.809 122.362 125.464 121.564C103.84 114.185 80.7366 111.034 57.6724 112.317C45.0396 113.084 32.5357 115.089 20.3794 118.295C16.336 119.317 12.4428 120.392 8.68498 121.495C5.94926 122.285 3.27367 123.089 0.658203 123.906V118.364C4.29581 117.397 8.00858 116.457 11.8416 115.64C16.6967 114.51 21.7323 113.448 27.0083 112.494C29.4735 112.059 31.9987 111.637 34.524 111.255C58.4691 107.633 87.0138 106.448 109.801 110.139C120.562 111.879 131.02 114.906 140.901 119.14C144.013 120.501 147.019 121.768 150.026 123.089C160.457 127.691 170.919 132.267 185.966 135.085L186.552 135.194C187.83 135.412 189.137 135.644 190.475 135.848C216.9 139.933 247.91 137.441 278.229 135.848C284.392 135.521 290.524 135.235 296.582 135.045C306.698 134.731 316.754 134.691 326.75 134.868H327.306C343.285 135.167 359.143 135.998 374.926 137.087H376.008C386.199 137.795 396.391 138.612 406.537 139.443C418.036 140.396 429.52 141.376 440.989 142.275C444.927 142.593 448.856 142.888 452.774 143.16H452.924L458.471 143.555C461.828 143.791 465.19 144.009 468.557 144.209C471.463 144.4 474.374 144.572 477.29 144.726C486.219 145.244 495.192 145.698 504.211 146.088C516.747 146.596 529.339 146.959 541.985 147.177C551.766 147.35 561.566 147.445 571.387 147.463C633.088 147.589 694.745 144.474 756.048 138.136C763.398 137.36 770.719 136.556 777.964 135.671C790.31 134.218 802.475 132.612 814.46 130.85C818.068 130.342 821.645 129.811 825.193 129.257V152.869L833.866 152.842Z" fill="url(#paint2_radial_60_2931)"/>
</g>
<g clip-path="url(#clip1_60_2931)">
<path d="M457.254 48.3953C457.254 48.3953 456.828 49.2494 453.478 49.6612C450.128 50.0731 425.228 66.0281 425.228 66.0281C425.228 66.0281 429.811 76.4573 460.894 52.3456C460.894 52.3456 468.859 58.1159 468.978 55.051C468.978 55.051 473.891 57.2665 470.866 47.027C470.866 47.027 510.765 25.5106 498.901 18.9191L467.616 42.5645C467.616 42.5645 463.328 40.2923 454.938 47.2236L457.254 48.3953Z" fill="#3D402A"/>
</g>
</g>
<defs>
<radialGradient id="paint0_radial_60_2931" cx="0" cy="0" r="1" gradientUnits="userSpaceOnUse" gradientTransform="translate(421.732 74.0383) scale(298.71 269.032)">
<stop stop-color="#E8BB34"/>
<stop offset="1" stop-color="#E16D2C"/>
</radialGradient>
<radialGradient id="paint1_radial_60_2931" cx="0" cy="0" r="1" gradientUnits="userSpaceOnUse" gradientTransform="translate(502.013 26.3588) scale(357.135 261.975)">
<stop stop-color="#E8BB34"/>
<stop offset="1" stop-color="#E16D2C"/>
</radialGradient>
<radialGradient id="paint2_radial_60_2931" cx="0" cy="0" r="1" gradientUnits="userSpaceOnUse" gradientTransform="translate(417.284 139.647) scale(295.623 267.809)">
<stop stop-color="#E8BB34"/>
<stop offset="1" stop-color="#E16D2C"/>
</radialGradient>
<clipPath id="clip0_60_2931">
<rect width="1036.37" height="170.961" fill="white" transform="translate(0.658203 0.540741)"/>
</clipPath>
<clipPath id="clip1_60_2931">
<rect width="48.8191" height="76.707" fill="white" transform="matrix(0.883612 0.468219 -0.446358 0.894855 459.215 -2.1098)"/>
</clipPath>
</defs>
</svg>
