<svg width="20" height="21" viewBox="0 0 20 21" fill="none" xmlns="http://www.w3.org/2000/svg">
<g clip-path="url(#clip0_80_73)">
<path d="M14.0156 4.2116L10.5194 0.715463C10.2325 0.428592 9.76748 0.428565 9.48061 0.715436L5.98448 4.21157C5.69761 4.49844 5.69758 4.96356 5.98445 5.25043L9.48058 8.74656C9.76745 9.03344 10.2326 9.03341 10.5194 8.74654L14.0156 5.2504C14.3024 4.96353 14.3024 4.49847 14.0156 4.2116Z" fill="#FFFBE2"/>
<path d="M19.7863 9.98149L16.2902 6.48536C16.0033 6.19849 15.5382 6.19852 15.2513 6.48539L11.7552 9.98152C11.4683 10.2684 11.4683 10.7335 11.7551 11.0204L15.2513 14.5165C15.5382 14.8034 16.0033 14.8034 16.2901 14.5165L19.7863 11.0204C20.0731 10.7335 20.0732 10.2684 19.7863 9.98149Z" fill="#FFFBE2"/>
<path d="M14.0153 15.7515L10.5192 12.2554C10.2323 11.9685 9.76724 11.9685 9.48037 12.2554L5.98423 15.7515C5.69736 16.0384 5.69733 16.5035 5.9842 16.7903L9.48034 20.2865C9.76721 20.5734 10.2323 20.5733 10.5192 20.2865L14.0153 16.7903C14.3022 16.5035 14.3022 16.0384 14.0153 15.7515Z" fill="#FFFBE2"/>
<path d="M8.24553 9.98369L4.7494 6.48756C4.46253 6.20069 3.99741 6.20071 3.71054 6.48758L0.214403 9.98372C-0.0724679 10.2706 -0.0724948 10.7357 0.214376 11.0226L3.71051 14.5187C3.99738 14.8056 4.4625 14.8056 4.74937 14.5187L8.2455 11.0226C8.53237 10.7357 8.5324 10.2706 8.24553 9.98369Z" fill="#FFFBE2"/>
</g>
<defs>
<clipPath id="clip0_80_73">
<rect width="20" height="20" fill="white" transform="translate(0 0.5)"/>
</clipPath>
</defs>
</svg>
